%TF.GenerationSoftware,KiCad,Pcbnew,7.0.10*%
%TF.CreationDate,2025-05-14T10:04:39+02:00*%
%TF.ProjectId,Carte_driver_LED,43617274-655f-4647-9269-7665725f4c45,rev?*%
%TF.SameCoordinates,Original*%
%TF.FileFunction,Legend,Top*%
%TF.FilePolarity,Positive*%
%FSLAX46Y46*%
G04 Gerber Fmt 4.6, Leading zero omitted, Abs format (unit mm)*
G04 Created by KiCad (PCBNEW 7.0.10) date 2025-05-14 10:04:39*
%MOMM*%
%LPD*%
G01*
G04 APERTURE LIST*
G04 Aperture macros list*
%AMRoundRect*
0 Rectangle with rounded corners*
0 $1 Rounding radius*
0 $2 $3 $4 $5 $6 $7 $8 $9 X,Y pos of 4 corners*
0 Add a 4 corners polygon primitive as box body*
4,1,4,$2,$3,$4,$5,$6,$7,$8,$9,$2,$3,0*
0 Add four circle primitives for the rounded corners*
1,1,$1+$1,$2,$3*
1,1,$1+$1,$4,$5*
1,1,$1+$1,$6,$7*
1,1,$1+$1,$8,$9*
0 Add four rect primitives between the rounded corners*
20,1,$1+$1,$2,$3,$4,$5,0*
20,1,$1+$1,$4,$5,$6,$7,0*
20,1,$1+$1,$6,$7,$8,$9,0*
20,1,$1+$1,$8,$9,$2,$3,0*%
G04 Aperture macros list end*
%ADD10C,0.150000*%
%ADD11C,0.127000*%
%ADD12C,0.200000*%
%ADD13C,0.120000*%
%ADD14C,0.400000*%
%ADD15O,3.804000X2.004000*%
%ADD16C,1.600000*%
%ADD17O,1.600000X1.600000*%
%ADD18RoundRect,0.102000X-0.724000X0.724000X-0.724000X-0.724000X0.724000X-0.724000X0.724000X0.724000X0*%
%ADD19C,1.652000*%
%ADD20RoundRect,0.102000X-0.862500X-0.862500X0.862500X-0.862500X0.862500X0.862500X-0.862500X0.862500X0*%
%ADD21C,1.929000*%
%ADD22RoundRect,0.250000X0.725000X-0.600000X0.725000X0.600000X-0.725000X0.600000X-0.725000X-0.600000X0*%
%ADD23O,1.950000X1.700000*%
%ADD24O,1.712000X3.220000*%
%ADD25O,3.220000X1.712000*%
%ADD26RoundRect,0.250000X0.750000X-0.600000X0.750000X0.600000X-0.750000X0.600000X-0.750000X-0.600000X0*%
%ADD27O,2.000000X1.700000*%
%ADD28R,2.200000X2.200000*%
%ADD29O,2.200000X2.200000*%
%ADD30C,3.200000*%
%ADD31R,2.000000X2.000000*%
%ADD32O,2.000000X2.000000*%
%ADD33R,1.800000X1.800000*%
%ADD34C,1.800000*%
%ADD35RoundRect,0.102000X-0.765000X0.765000X-0.765000X-0.765000X0.765000X-0.765000X0.765000X0.765000X0*%
%ADD36C,1.734000*%
G04 APERTURE END LIST*
D10*
X47841472Y-24504505D02*
X47841472Y-25219207D01*
X47841472Y-25219207D02*
X47793826Y-25362148D01*
X47793826Y-25362148D02*
X47698532Y-25457442D01*
X47698532Y-25457442D02*
X47555592Y-25505088D01*
X47555592Y-25505088D02*
X47460298Y-25505088D01*
X48222647Y-24504505D02*
X48842055Y-24504505D01*
X48842055Y-24504505D02*
X48508528Y-24885680D01*
X48508528Y-24885680D02*
X48651468Y-24885680D01*
X48651468Y-24885680D02*
X48746762Y-24933327D01*
X48746762Y-24933327D02*
X48794409Y-24980973D01*
X48794409Y-24980973D02*
X48842055Y-25076267D01*
X48842055Y-25076267D02*
X48842055Y-25314501D01*
X48842055Y-25314501D02*
X48794409Y-25409795D01*
X48794409Y-25409795D02*
X48746762Y-25457442D01*
X48746762Y-25457442D02*
X48651468Y-25505088D01*
X48651468Y-25505088D02*
X48365587Y-25505088D01*
X48365587Y-25505088D02*
X48270294Y-25457442D01*
X48270294Y-25457442D02*
X48222647Y-25409795D01*
X30833333Y-64904819D02*
X30500000Y-64428628D01*
X30261905Y-64904819D02*
X30261905Y-63904819D01*
X30261905Y-63904819D02*
X30642857Y-63904819D01*
X30642857Y-63904819D02*
X30738095Y-63952438D01*
X30738095Y-63952438D02*
X30785714Y-64000057D01*
X30785714Y-64000057D02*
X30833333Y-64095295D01*
X30833333Y-64095295D02*
X30833333Y-64238152D01*
X30833333Y-64238152D02*
X30785714Y-64333390D01*
X30785714Y-64333390D02*
X30738095Y-64381009D01*
X30738095Y-64381009D02*
X30642857Y-64428628D01*
X30642857Y-64428628D02*
X30261905Y-64428628D01*
X31785714Y-64904819D02*
X31214286Y-64904819D01*
X31500000Y-64904819D02*
X31500000Y-63904819D01*
X31500000Y-63904819D02*
X31404762Y-64047676D01*
X31404762Y-64047676D02*
X31309524Y-64142914D01*
X31309524Y-64142914D02*
X31214286Y-64190533D01*
X49153095Y-53444819D02*
X49153095Y-54254342D01*
X49153095Y-54254342D02*
X49200714Y-54349580D01*
X49200714Y-54349580D02*
X49248333Y-54397200D01*
X49248333Y-54397200D02*
X49343571Y-54444819D01*
X49343571Y-54444819D02*
X49534047Y-54444819D01*
X49534047Y-54444819D02*
X49629285Y-54397200D01*
X49629285Y-54397200D02*
X49676904Y-54349580D01*
X49676904Y-54349580D02*
X49724523Y-54254342D01*
X49724523Y-54254342D02*
X49724523Y-53444819D01*
X50724523Y-54444819D02*
X50153095Y-54444819D01*
X50438809Y-54444819D02*
X50438809Y-53444819D01*
X50438809Y-53444819D02*
X50343571Y-53587676D01*
X50343571Y-53587676D02*
X50248333Y-53682914D01*
X50248333Y-53682914D02*
X50153095Y-53730533D01*
X56313095Y-40954819D02*
X56313095Y-41764342D01*
X56313095Y-41764342D02*
X56360714Y-41859580D01*
X56360714Y-41859580D02*
X56408333Y-41907200D01*
X56408333Y-41907200D02*
X56503571Y-41954819D01*
X56503571Y-41954819D02*
X56694047Y-41954819D01*
X56694047Y-41954819D02*
X56789285Y-41907200D01*
X56789285Y-41907200D02*
X56836904Y-41859580D01*
X56836904Y-41859580D02*
X56884523Y-41764342D01*
X56884523Y-41764342D02*
X56884523Y-40954819D01*
X57265476Y-40954819D02*
X57884523Y-40954819D01*
X57884523Y-40954819D02*
X57551190Y-41335771D01*
X57551190Y-41335771D02*
X57694047Y-41335771D01*
X57694047Y-41335771D02*
X57789285Y-41383390D01*
X57789285Y-41383390D02*
X57836904Y-41431009D01*
X57836904Y-41431009D02*
X57884523Y-41526247D01*
X57884523Y-41526247D02*
X57884523Y-41764342D01*
X57884523Y-41764342D02*
X57836904Y-41859580D01*
X57836904Y-41859580D02*
X57789285Y-41907200D01*
X57789285Y-41907200D02*
X57694047Y-41954819D01*
X57694047Y-41954819D02*
X57408333Y-41954819D01*
X57408333Y-41954819D02*
X57313095Y-41907200D01*
X57313095Y-41907200D02*
X57265476Y-41859580D01*
X54133333Y-76654819D02*
X53800000Y-76178628D01*
X53561905Y-76654819D02*
X53561905Y-75654819D01*
X53561905Y-75654819D02*
X53942857Y-75654819D01*
X53942857Y-75654819D02*
X54038095Y-75702438D01*
X54038095Y-75702438D02*
X54085714Y-75750057D01*
X54085714Y-75750057D02*
X54133333Y-75845295D01*
X54133333Y-75845295D02*
X54133333Y-75988152D01*
X54133333Y-75988152D02*
X54085714Y-76083390D01*
X54085714Y-76083390D02*
X54038095Y-76131009D01*
X54038095Y-76131009D02*
X53942857Y-76178628D01*
X53942857Y-76178628D02*
X53561905Y-76178628D01*
X54466667Y-75654819D02*
X55085714Y-75654819D01*
X55085714Y-75654819D02*
X54752381Y-76035771D01*
X54752381Y-76035771D02*
X54895238Y-76035771D01*
X54895238Y-76035771D02*
X54990476Y-76083390D01*
X54990476Y-76083390D02*
X55038095Y-76131009D01*
X55038095Y-76131009D02*
X55085714Y-76226247D01*
X55085714Y-76226247D02*
X55085714Y-76464342D01*
X55085714Y-76464342D02*
X55038095Y-76559580D01*
X55038095Y-76559580D02*
X54990476Y-76607200D01*
X54990476Y-76607200D02*
X54895238Y-76654819D01*
X54895238Y-76654819D02*
X54609524Y-76654819D01*
X54609524Y-76654819D02*
X54514286Y-76607200D01*
X54514286Y-76607200D02*
X54466667Y-76559580D01*
X67229819Y-43083333D02*
X67944104Y-43083333D01*
X67944104Y-43083333D02*
X68086961Y-43130952D01*
X68086961Y-43130952D02*
X68182200Y-43226190D01*
X68182200Y-43226190D02*
X68229819Y-43369047D01*
X68229819Y-43369047D02*
X68229819Y-43464285D01*
X67658390Y-42464285D02*
X67610771Y-42559523D01*
X67610771Y-42559523D02*
X67563152Y-42607142D01*
X67563152Y-42607142D02*
X67467914Y-42654761D01*
X67467914Y-42654761D02*
X67420295Y-42654761D01*
X67420295Y-42654761D02*
X67325057Y-42607142D01*
X67325057Y-42607142D02*
X67277438Y-42559523D01*
X67277438Y-42559523D02*
X67229819Y-42464285D01*
X67229819Y-42464285D02*
X67229819Y-42273809D01*
X67229819Y-42273809D02*
X67277438Y-42178571D01*
X67277438Y-42178571D02*
X67325057Y-42130952D01*
X67325057Y-42130952D02*
X67420295Y-42083333D01*
X67420295Y-42083333D02*
X67467914Y-42083333D01*
X67467914Y-42083333D02*
X67563152Y-42130952D01*
X67563152Y-42130952D02*
X67610771Y-42178571D01*
X67610771Y-42178571D02*
X67658390Y-42273809D01*
X67658390Y-42273809D02*
X67658390Y-42464285D01*
X67658390Y-42464285D02*
X67706009Y-42559523D01*
X67706009Y-42559523D02*
X67753628Y-42607142D01*
X67753628Y-42607142D02*
X67848866Y-42654761D01*
X67848866Y-42654761D02*
X68039342Y-42654761D01*
X68039342Y-42654761D02*
X68134580Y-42607142D01*
X68134580Y-42607142D02*
X68182200Y-42559523D01*
X68182200Y-42559523D02*
X68229819Y-42464285D01*
X68229819Y-42464285D02*
X68229819Y-42273809D01*
X68229819Y-42273809D02*
X68182200Y-42178571D01*
X68182200Y-42178571D02*
X68134580Y-42130952D01*
X68134580Y-42130952D02*
X68039342Y-42083333D01*
X68039342Y-42083333D02*
X67848866Y-42083333D01*
X67848866Y-42083333D02*
X67753628Y-42130952D01*
X67753628Y-42130952D02*
X67706009Y-42178571D01*
X67706009Y-42178571D02*
X67658390Y-42273809D01*
X36916472Y-24504505D02*
X36916472Y-25219207D01*
X36916472Y-25219207D02*
X36868826Y-25362148D01*
X36868826Y-25362148D02*
X36773532Y-25457442D01*
X36773532Y-25457442D02*
X36630592Y-25505088D01*
X36630592Y-25505088D02*
X36535298Y-25505088D01*
X37821762Y-24838033D02*
X37821762Y-25505088D01*
X37583528Y-24456859D02*
X37345294Y-25171561D01*
X37345294Y-25171561D02*
X37964702Y-25171561D01*
X21991262Y-52654167D02*
X21991262Y-53369319D01*
X21991262Y-53369319D02*
X21943586Y-53512350D01*
X21943586Y-53512350D02*
X21848232Y-53607704D01*
X21848232Y-53607704D02*
X21705202Y-53655380D01*
X21705202Y-53655380D02*
X21609848Y-53655380D01*
X22992475Y-53655380D02*
X22420354Y-53655380D01*
X22706415Y-53655380D02*
X22706415Y-52654167D01*
X22706415Y-52654167D02*
X22611061Y-52797198D01*
X22611061Y-52797198D02*
X22515707Y-52892551D01*
X22515707Y-52892551D02*
X22420354Y-52940228D01*
X25991472Y-24504505D02*
X25991472Y-25219207D01*
X25991472Y-25219207D02*
X25943826Y-25362148D01*
X25943826Y-25362148D02*
X25848532Y-25457442D01*
X25848532Y-25457442D02*
X25705592Y-25505088D01*
X25705592Y-25505088D02*
X25610298Y-25505088D01*
X26944409Y-24504505D02*
X26467941Y-24504505D01*
X26467941Y-24504505D02*
X26420294Y-24980973D01*
X26420294Y-24980973D02*
X26467941Y-24933327D01*
X26467941Y-24933327D02*
X26563234Y-24885680D01*
X26563234Y-24885680D02*
X26801468Y-24885680D01*
X26801468Y-24885680D02*
X26896762Y-24933327D01*
X26896762Y-24933327D02*
X26944409Y-24980973D01*
X26944409Y-24980973D02*
X26992055Y-25076267D01*
X26992055Y-25076267D02*
X26992055Y-25314501D01*
X26992055Y-25314501D02*
X26944409Y-25409795D01*
X26944409Y-25409795D02*
X26896762Y-25457442D01*
X26896762Y-25457442D02*
X26801468Y-25505088D01*
X26801468Y-25505088D02*
X26563234Y-25505088D01*
X26563234Y-25505088D02*
X26467941Y-25457442D01*
X26467941Y-25457442D02*
X26420294Y-25409795D01*
X59996485Y-53033333D02*
X60710770Y-53033333D01*
X60710770Y-53033333D02*
X60853627Y-53080952D01*
X60853627Y-53080952D02*
X60948866Y-53176190D01*
X60948866Y-53176190D02*
X60996485Y-53319047D01*
X60996485Y-53319047D02*
X60996485Y-53414285D01*
X60996485Y-52509523D02*
X60996485Y-52319047D01*
X60996485Y-52319047D02*
X60948866Y-52223809D01*
X60948866Y-52223809D02*
X60901246Y-52176190D01*
X60901246Y-52176190D02*
X60758389Y-52080952D01*
X60758389Y-52080952D02*
X60567913Y-52033333D01*
X60567913Y-52033333D02*
X60186961Y-52033333D01*
X60186961Y-52033333D02*
X60091723Y-52080952D01*
X60091723Y-52080952D02*
X60044104Y-52128571D01*
X60044104Y-52128571D02*
X59996485Y-52223809D01*
X59996485Y-52223809D02*
X59996485Y-52414285D01*
X59996485Y-52414285D02*
X60044104Y-52509523D01*
X60044104Y-52509523D02*
X60091723Y-52557142D01*
X60091723Y-52557142D02*
X60186961Y-52604761D01*
X60186961Y-52604761D02*
X60425056Y-52604761D01*
X60425056Y-52604761D02*
X60520294Y-52557142D01*
X60520294Y-52557142D02*
X60567913Y-52509523D01*
X60567913Y-52509523D02*
X60615532Y-52414285D01*
X60615532Y-52414285D02*
X60615532Y-52223809D01*
X60615532Y-52223809D02*
X60567913Y-52128571D01*
X60567913Y-52128571D02*
X60520294Y-52080952D01*
X60520294Y-52080952D02*
X60425056Y-52033333D01*
X36354819Y-55228094D02*
X35354819Y-55228094D01*
X35354819Y-55228094D02*
X35354819Y-54989999D01*
X35354819Y-54989999D02*
X35402438Y-54847142D01*
X35402438Y-54847142D02*
X35497676Y-54751904D01*
X35497676Y-54751904D02*
X35592914Y-54704285D01*
X35592914Y-54704285D02*
X35783390Y-54656666D01*
X35783390Y-54656666D02*
X35926247Y-54656666D01*
X35926247Y-54656666D02*
X36116723Y-54704285D01*
X36116723Y-54704285D02*
X36211961Y-54751904D01*
X36211961Y-54751904D02*
X36307200Y-54847142D01*
X36307200Y-54847142D02*
X36354819Y-54989999D01*
X36354819Y-54989999D02*
X36354819Y-55228094D01*
X35688152Y-53799523D02*
X36354819Y-53799523D01*
X35307200Y-54037618D02*
X36021485Y-54275713D01*
X36021485Y-54275713D02*
X36021485Y-53656666D01*
X34254819Y-60221904D02*
X33254819Y-60221904D01*
X34254819Y-59650476D02*
X33683390Y-60079047D01*
X33254819Y-59650476D02*
X33826247Y-60221904D01*
X49358333Y-50309580D02*
X49310714Y-50357200D01*
X49310714Y-50357200D02*
X49167857Y-50404819D01*
X49167857Y-50404819D02*
X49072619Y-50404819D01*
X49072619Y-50404819D02*
X48929762Y-50357200D01*
X48929762Y-50357200D02*
X48834524Y-50261961D01*
X48834524Y-50261961D02*
X48786905Y-50166723D01*
X48786905Y-50166723D02*
X48739286Y-49976247D01*
X48739286Y-49976247D02*
X48739286Y-49833390D01*
X48739286Y-49833390D02*
X48786905Y-49642914D01*
X48786905Y-49642914D02*
X48834524Y-49547676D01*
X48834524Y-49547676D02*
X48929762Y-49452438D01*
X48929762Y-49452438D02*
X49072619Y-49404819D01*
X49072619Y-49404819D02*
X49167857Y-49404819D01*
X49167857Y-49404819D02*
X49310714Y-49452438D01*
X49310714Y-49452438D02*
X49358333Y-49500057D01*
X49739286Y-49500057D02*
X49786905Y-49452438D01*
X49786905Y-49452438D02*
X49882143Y-49404819D01*
X49882143Y-49404819D02*
X50120238Y-49404819D01*
X50120238Y-49404819D02*
X50215476Y-49452438D01*
X50215476Y-49452438D02*
X50263095Y-49500057D01*
X50263095Y-49500057D02*
X50310714Y-49595295D01*
X50310714Y-49595295D02*
X50310714Y-49690533D01*
X50310714Y-49690533D02*
X50263095Y-49833390D01*
X50263095Y-49833390D02*
X49691667Y-50404819D01*
X49691667Y-50404819D02*
X50310714Y-50404819D01*
X58766472Y-24504505D02*
X58766472Y-25219207D01*
X58766472Y-25219207D02*
X58718826Y-25362148D01*
X58718826Y-25362148D02*
X58623532Y-25457442D01*
X58623532Y-25457442D02*
X58480592Y-25505088D01*
X58480592Y-25505088D02*
X58385298Y-25505088D01*
X59195294Y-24599799D02*
X59242941Y-24552152D01*
X59242941Y-24552152D02*
X59338234Y-24504505D01*
X59338234Y-24504505D02*
X59576468Y-24504505D01*
X59576468Y-24504505D02*
X59671762Y-24552152D01*
X59671762Y-24552152D02*
X59719409Y-24599799D01*
X59719409Y-24599799D02*
X59767055Y-24695093D01*
X59767055Y-24695093D02*
X59767055Y-24790386D01*
X59767055Y-24790386D02*
X59719409Y-24933327D01*
X59719409Y-24933327D02*
X59147647Y-25505088D01*
X59147647Y-25505088D02*
X59767055Y-25505088D01*
X32863095Y-40954819D02*
X32863095Y-41764342D01*
X32863095Y-41764342D02*
X32910714Y-41859580D01*
X32910714Y-41859580D02*
X32958333Y-41907200D01*
X32958333Y-41907200D02*
X33053571Y-41954819D01*
X33053571Y-41954819D02*
X33244047Y-41954819D01*
X33244047Y-41954819D02*
X33339285Y-41907200D01*
X33339285Y-41907200D02*
X33386904Y-41859580D01*
X33386904Y-41859580D02*
X33434523Y-41764342D01*
X33434523Y-41764342D02*
X33434523Y-40954819D01*
X34339285Y-41288152D02*
X34339285Y-41954819D01*
X34101190Y-40907200D02*
X33863095Y-41621485D01*
X33863095Y-41621485D02*
X34482142Y-41621485D01*
X57333333Y-57559580D02*
X57285714Y-57607200D01*
X57285714Y-57607200D02*
X57142857Y-57654819D01*
X57142857Y-57654819D02*
X57047619Y-57654819D01*
X57047619Y-57654819D02*
X56904762Y-57607200D01*
X56904762Y-57607200D02*
X56809524Y-57511961D01*
X56809524Y-57511961D02*
X56761905Y-57416723D01*
X56761905Y-57416723D02*
X56714286Y-57226247D01*
X56714286Y-57226247D02*
X56714286Y-57083390D01*
X56714286Y-57083390D02*
X56761905Y-56892914D01*
X56761905Y-56892914D02*
X56809524Y-56797676D01*
X56809524Y-56797676D02*
X56904762Y-56702438D01*
X56904762Y-56702438D02*
X57047619Y-56654819D01*
X57047619Y-56654819D02*
X57142857Y-56654819D01*
X57142857Y-56654819D02*
X57285714Y-56702438D01*
X57285714Y-56702438D02*
X57333333Y-56750057D01*
X57666667Y-56654819D02*
X58285714Y-56654819D01*
X58285714Y-56654819D02*
X57952381Y-57035771D01*
X57952381Y-57035771D02*
X58095238Y-57035771D01*
X58095238Y-57035771D02*
X58190476Y-57083390D01*
X58190476Y-57083390D02*
X58238095Y-57131009D01*
X58238095Y-57131009D02*
X58285714Y-57226247D01*
X58285714Y-57226247D02*
X58285714Y-57464342D01*
X58285714Y-57464342D02*
X58238095Y-57559580D01*
X58238095Y-57559580D02*
X58190476Y-57607200D01*
X58190476Y-57607200D02*
X58095238Y-57654819D01*
X58095238Y-57654819D02*
X57809524Y-57654819D01*
X57809524Y-57654819D02*
X57714286Y-57607200D01*
X57714286Y-57607200D02*
X57666667Y-57559580D01*
X26739819Y-62688094D02*
X25739819Y-62688094D01*
X25739819Y-62688094D02*
X25739819Y-62449999D01*
X25739819Y-62449999D02*
X25787438Y-62307142D01*
X25787438Y-62307142D02*
X25882676Y-62211904D01*
X25882676Y-62211904D02*
X25977914Y-62164285D01*
X25977914Y-62164285D02*
X26168390Y-62116666D01*
X26168390Y-62116666D02*
X26311247Y-62116666D01*
X26311247Y-62116666D02*
X26501723Y-62164285D01*
X26501723Y-62164285D02*
X26596961Y-62211904D01*
X26596961Y-62211904D02*
X26692200Y-62307142D01*
X26692200Y-62307142D02*
X26739819Y-62449999D01*
X26739819Y-62449999D02*
X26739819Y-62688094D01*
X26739819Y-61164285D02*
X26739819Y-61735713D01*
X26739819Y-61449999D02*
X25739819Y-61449999D01*
X25739819Y-61449999D02*
X25882676Y-61545237D01*
X25882676Y-61545237D02*
X25977914Y-61640475D01*
X25977914Y-61640475D02*
X26025533Y-61735713D01*
X41508333Y-57559580D02*
X41460714Y-57607200D01*
X41460714Y-57607200D02*
X41317857Y-57654819D01*
X41317857Y-57654819D02*
X41222619Y-57654819D01*
X41222619Y-57654819D02*
X41079762Y-57607200D01*
X41079762Y-57607200D02*
X40984524Y-57511961D01*
X40984524Y-57511961D02*
X40936905Y-57416723D01*
X40936905Y-57416723D02*
X40889286Y-57226247D01*
X40889286Y-57226247D02*
X40889286Y-57083390D01*
X40889286Y-57083390D02*
X40936905Y-56892914D01*
X40936905Y-56892914D02*
X40984524Y-56797676D01*
X40984524Y-56797676D02*
X41079762Y-56702438D01*
X41079762Y-56702438D02*
X41222619Y-56654819D01*
X41222619Y-56654819D02*
X41317857Y-56654819D01*
X41317857Y-56654819D02*
X41460714Y-56702438D01*
X41460714Y-56702438D02*
X41508333Y-56750057D01*
X42460714Y-57654819D02*
X41889286Y-57654819D01*
X42175000Y-57654819D02*
X42175000Y-56654819D01*
X42175000Y-56654819D02*
X42079762Y-56797676D01*
X42079762Y-56797676D02*
X41984524Y-56892914D01*
X41984524Y-56892914D02*
X41889286Y-56940533D01*
X69691472Y-24154505D02*
X69691472Y-24869207D01*
X69691472Y-24869207D02*
X69643826Y-25012148D01*
X69643826Y-25012148D02*
X69548532Y-25107442D01*
X69548532Y-25107442D02*
X69405592Y-25155088D01*
X69405592Y-25155088D02*
X69310298Y-25155088D01*
X70596762Y-24154505D02*
X70406175Y-24154505D01*
X70406175Y-24154505D02*
X70310881Y-24202152D01*
X70310881Y-24202152D02*
X70263234Y-24249799D01*
X70263234Y-24249799D02*
X70167941Y-24392739D01*
X70167941Y-24392739D02*
X70120294Y-24583327D01*
X70120294Y-24583327D02*
X70120294Y-24964501D01*
X70120294Y-24964501D02*
X70167941Y-25059795D01*
X70167941Y-25059795D02*
X70215587Y-25107442D01*
X70215587Y-25107442D02*
X70310881Y-25155088D01*
X70310881Y-25155088D02*
X70501468Y-25155088D01*
X70501468Y-25155088D02*
X70596762Y-25107442D01*
X70596762Y-25107442D02*
X70644409Y-25059795D01*
X70644409Y-25059795D02*
X70692055Y-24964501D01*
X70692055Y-24964501D02*
X70692055Y-24726267D01*
X70692055Y-24726267D02*
X70644409Y-24630973D01*
X70644409Y-24630973D02*
X70596762Y-24583327D01*
X70596762Y-24583327D02*
X70501468Y-24535680D01*
X70501468Y-24535680D02*
X70310881Y-24535680D01*
X70310881Y-24535680D02*
X70215587Y-24583327D01*
X70215587Y-24583327D02*
X70167941Y-24630973D01*
X70167941Y-24630973D02*
X70120294Y-24726267D01*
X46563095Y-79654819D02*
X46563095Y-80464342D01*
X46563095Y-80464342D02*
X46610714Y-80559580D01*
X46610714Y-80559580D02*
X46658333Y-80607200D01*
X46658333Y-80607200D02*
X46753571Y-80654819D01*
X46753571Y-80654819D02*
X46944047Y-80654819D01*
X46944047Y-80654819D02*
X47039285Y-80607200D01*
X47039285Y-80607200D02*
X47086904Y-80559580D01*
X47086904Y-80559580D02*
X47134523Y-80464342D01*
X47134523Y-80464342D02*
X47134523Y-79654819D01*
X47563095Y-79750057D02*
X47610714Y-79702438D01*
X47610714Y-79702438D02*
X47705952Y-79654819D01*
X47705952Y-79654819D02*
X47944047Y-79654819D01*
X47944047Y-79654819D02*
X48039285Y-79702438D01*
X48039285Y-79702438D02*
X48086904Y-79750057D01*
X48086904Y-79750057D02*
X48134523Y-79845295D01*
X48134523Y-79845295D02*
X48134523Y-79940533D01*
X48134523Y-79940533D02*
X48086904Y-80083390D01*
X48086904Y-80083390D02*
X47515476Y-80654819D01*
X47515476Y-80654819D02*
X48134523Y-80654819D01*
X59996485Y-62509523D02*
X60710770Y-62509523D01*
X60710770Y-62509523D02*
X60853627Y-62557142D01*
X60853627Y-62557142D02*
X60948866Y-62652380D01*
X60948866Y-62652380D02*
X60996485Y-62795237D01*
X60996485Y-62795237D02*
X60996485Y-62890475D01*
X60996485Y-61509523D02*
X60996485Y-62080951D01*
X60996485Y-61795237D02*
X59996485Y-61795237D01*
X59996485Y-61795237D02*
X60139342Y-61890475D01*
X60139342Y-61890475D02*
X60234580Y-61985713D01*
X60234580Y-61985713D02*
X60282199Y-62080951D01*
X59996485Y-60890475D02*
X59996485Y-60795237D01*
X59996485Y-60795237D02*
X60044104Y-60699999D01*
X60044104Y-60699999D02*
X60091723Y-60652380D01*
X60091723Y-60652380D02*
X60186961Y-60604761D01*
X60186961Y-60604761D02*
X60377437Y-60557142D01*
X60377437Y-60557142D02*
X60615532Y-60557142D01*
X60615532Y-60557142D02*
X60806008Y-60604761D01*
X60806008Y-60604761D02*
X60901246Y-60652380D01*
X60901246Y-60652380D02*
X60948866Y-60699999D01*
X60948866Y-60699999D02*
X60996485Y-60795237D01*
X60996485Y-60795237D02*
X60996485Y-60890475D01*
X60996485Y-60890475D02*
X60948866Y-60985713D01*
X60948866Y-60985713D02*
X60901246Y-61033332D01*
X60901246Y-61033332D02*
X60806008Y-61080951D01*
X60806008Y-61080951D02*
X60615532Y-61128570D01*
X60615532Y-61128570D02*
X60377437Y-61128570D01*
X60377437Y-61128570D02*
X60186961Y-61080951D01*
X60186961Y-61080951D02*
X60091723Y-61033332D01*
X60091723Y-61033332D02*
X60044104Y-60985713D01*
X60044104Y-60985713D02*
X59996485Y-60890475D01*
X54133333Y-72654819D02*
X53800000Y-72178628D01*
X53561905Y-72654819D02*
X53561905Y-71654819D01*
X53561905Y-71654819D02*
X53942857Y-71654819D01*
X53942857Y-71654819D02*
X54038095Y-71702438D01*
X54038095Y-71702438D02*
X54085714Y-71750057D01*
X54085714Y-71750057D02*
X54133333Y-71845295D01*
X54133333Y-71845295D02*
X54133333Y-71988152D01*
X54133333Y-71988152D02*
X54085714Y-72083390D01*
X54085714Y-72083390D02*
X54038095Y-72131009D01*
X54038095Y-72131009D02*
X53942857Y-72178628D01*
X53942857Y-72178628D02*
X53561905Y-72178628D01*
X54514286Y-71750057D02*
X54561905Y-71702438D01*
X54561905Y-71702438D02*
X54657143Y-71654819D01*
X54657143Y-71654819D02*
X54895238Y-71654819D01*
X54895238Y-71654819D02*
X54990476Y-71702438D01*
X54990476Y-71702438D02*
X55038095Y-71750057D01*
X55038095Y-71750057D02*
X55085714Y-71845295D01*
X55085714Y-71845295D02*
X55085714Y-71940533D01*
X55085714Y-71940533D02*
X55038095Y-72083390D01*
X55038095Y-72083390D02*
X54466667Y-72654819D01*
X54466667Y-72654819D02*
X55085714Y-72654819D01*
X67229819Y-58283333D02*
X67944104Y-58283333D01*
X67944104Y-58283333D02*
X68086961Y-58330952D01*
X68086961Y-58330952D02*
X68182200Y-58426190D01*
X68182200Y-58426190D02*
X68229819Y-58569047D01*
X68229819Y-58569047D02*
X68229819Y-58664285D01*
X67229819Y-57902380D02*
X67229819Y-57235714D01*
X67229819Y-57235714D02*
X68229819Y-57664285D01*
D11*
%TO.C,J3*%
X50925000Y-16050000D02*
X45425000Y-16050000D01*
X45425000Y-16050000D02*
X45425000Y-20050000D01*
X51675000Y-20050000D02*
X50925000Y-20050000D01*
X50925000Y-20050000D02*
X50925000Y-16050000D01*
X50925000Y-20050000D02*
X45425000Y-20050000D01*
X45425000Y-20050000D02*
X44675000Y-20050000D01*
X44675000Y-20050000D02*
X44675000Y-21050000D01*
X51925000Y-21050000D02*
X51925000Y-34550000D01*
X51675000Y-21050000D02*
X51675000Y-20050000D01*
X51675000Y-21050000D02*
X51925000Y-21050000D01*
X44675000Y-21050000D02*
X51675000Y-21050000D01*
X44425000Y-21050000D02*
X44675000Y-21050000D01*
X51925000Y-34550000D02*
X44425000Y-34550000D01*
X44425000Y-34550000D02*
X44425000Y-21050000D01*
D12*
X51775000Y-19250000D02*
G75*
G03*
X51575000Y-19250000I-100000J0D01*
G01*
X51575000Y-19250000D02*
G75*
G03*
X51775000Y-19250000I100000J0D01*
G01*
D13*
%TO.C,R1*%
X34270000Y-65820000D02*
X27730000Y-65820000D01*
X34270000Y-65490000D02*
X34270000Y-65820000D01*
X34270000Y-63410000D02*
X34270000Y-63080000D01*
X34270000Y-63080000D02*
X27730000Y-63080000D01*
X27730000Y-65820000D02*
X27730000Y-65490000D01*
X27730000Y-63080000D02*
X27730000Y-63410000D01*
D11*
%TO.C,U1*%
X53525000Y-51740000D02*
X53525000Y-65740000D01*
X46025000Y-51740000D02*
X53525000Y-51740000D01*
X46025000Y-65740000D02*
X46025000Y-51740000D01*
X46025000Y-65740000D02*
X53525000Y-65740000D01*
D12*
X46535000Y-56170000D02*
G75*
G03*
X46335000Y-56170000I-100000J0D01*
G01*
X46335000Y-56170000D02*
G75*
G03*
X46535000Y-56170000I100000J0D01*
G01*
D11*
%TO.C,U3*%
X46025000Y-35225000D02*
X68125000Y-35225000D01*
X46025000Y-47775000D02*
X46025000Y-35225000D01*
X68125000Y-35225000D02*
X68125000Y-47775000D01*
X68125000Y-47775000D02*
X46025000Y-47775000D01*
D12*
X46635000Y-37590000D02*
G75*
G03*
X46435000Y-37590000I-100000J0D01*
G01*
X46435000Y-37590000D02*
G75*
G03*
X46635000Y-37590000I100000J0D01*
G01*
D13*
%TO.C,R3*%
X50260000Y-76200000D02*
X51030000Y-76200000D01*
X51030000Y-74830000D02*
X51030000Y-77570000D01*
X51030000Y-77570000D02*
X57570000Y-77570000D01*
X57570000Y-74830000D02*
X51030000Y-74830000D01*
X57570000Y-77570000D02*
X57570000Y-74830000D01*
X58340000Y-76200000D02*
X57570000Y-76200000D01*
%TO.C,J8*%
X68575000Y-49350000D02*
X69825000Y-49350000D01*
X68865000Y-49060000D02*
X74835000Y-49060000D01*
X74835000Y-49060000D02*
X74835000Y-36440000D01*
X68875000Y-49050000D02*
X69625000Y-49050000D01*
X69625000Y-49050000D02*
X69625000Y-47250000D01*
X71125000Y-49050000D02*
X71125000Y-48300000D01*
X71125000Y-48300000D02*
X74075000Y-48300000D01*
X74075000Y-48300000D02*
X74075000Y-42750000D01*
X68575000Y-48100000D02*
X68575000Y-49350000D01*
X68875000Y-47250000D02*
X68875000Y-49050000D01*
X69625000Y-47250000D02*
X68875000Y-47250000D01*
X68875000Y-45750000D02*
X69625000Y-45750000D01*
X69625000Y-45750000D02*
X69625000Y-39750000D01*
X68875000Y-39750000D02*
X68875000Y-45750000D01*
X69625000Y-39750000D02*
X68875000Y-39750000D01*
X68875000Y-38250000D02*
X69625000Y-38250000D01*
X69625000Y-38250000D02*
X69625000Y-36450000D01*
X71125000Y-37200000D02*
X74075000Y-37200000D01*
X74075000Y-37200000D02*
X74075000Y-42750000D01*
X68875000Y-36450000D02*
X68875000Y-38250000D01*
X69625000Y-36450000D02*
X68875000Y-36450000D01*
X71125000Y-36450000D02*
X71125000Y-37200000D01*
X68865000Y-36440000D02*
X68865000Y-49060000D01*
X74835000Y-36440000D02*
X68865000Y-36440000D01*
D11*
%TO.C,J4*%
X40000000Y-16050000D02*
X34500000Y-16050000D01*
X34500000Y-16050000D02*
X34500000Y-20050000D01*
X40750000Y-20050000D02*
X40000000Y-20050000D01*
X40000000Y-20050000D02*
X40000000Y-16050000D01*
X40000000Y-20050000D02*
X34500000Y-20050000D01*
X34500000Y-20050000D02*
X33750000Y-20050000D01*
X33750000Y-20050000D02*
X33750000Y-21050000D01*
X41000000Y-21050000D02*
X41000000Y-34550000D01*
X40750000Y-21050000D02*
X40750000Y-20050000D01*
X40750000Y-21050000D02*
X41000000Y-21050000D01*
X33750000Y-21050000D02*
X40750000Y-21050000D01*
X33500000Y-21050000D02*
X33750000Y-21050000D01*
X41000000Y-34550000D02*
X33500000Y-34550000D01*
X33500000Y-34550000D02*
X33500000Y-21050000D01*
D12*
X40850000Y-19250000D02*
G75*
G03*
X40650000Y-19250000I-100000J0D01*
G01*
X40650000Y-19250000D02*
G75*
G03*
X40850000Y-19250000I100000J0D01*
G01*
D11*
%TO.C,J1*%
X33025000Y-57700000D02*
X31175000Y-57700000D01*
X33025000Y-54650000D02*
X33025000Y-57700000D01*
X33025000Y-48700000D02*
X33025000Y-51650000D01*
X27575000Y-57700000D02*
X18625000Y-57700000D01*
X18625000Y-57700000D02*
X18625000Y-48700000D01*
X18625000Y-48700000D02*
X33025000Y-48700000D01*
D14*
X31165000Y-53180000D02*
G75*
G03*
X30765000Y-53180000I-200000J0D01*
G01*
X30765000Y-53180000D02*
G75*
G03*
X31165000Y-53180000I200000J0D01*
G01*
D11*
%TO.C,J5*%
X29075000Y-16050000D02*
X23575000Y-16050000D01*
X23575000Y-16050000D02*
X23575000Y-20050000D01*
X29825000Y-20050000D02*
X29075000Y-20050000D01*
X29075000Y-20050000D02*
X29075000Y-16050000D01*
X29075000Y-20050000D02*
X23575000Y-20050000D01*
X23575000Y-20050000D02*
X22825000Y-20050000D01*
X22825000Y-20050000D02*
X22825000Y-21050000D01*
X30075000Y-21050000D02*
X30075000Y-34550000D01*
X29825000Y-21050000D02*
X29825000Y-20050000D01*
X29825000Y-21050000D02*
X30075000Y-21050000D01*
X22825000Y-21050000D02*
X29825000Y-21050000D01*
X22575000Y-21050000D02*
X22825000Y-21050000D01*
X30075000Y-34550000D02*
X22575000Y-34550000D01*
X22575000Y-34550000D02*
X22575000Y-21050000D01*
D12*
X29925000Y-19250000D02*
G75*
G03*
X29725000Y-19250000I-100000J0D01*
G01*
X29725000Y-19250000D02*
G75*
G03*
X29925000Y-19250000I100000J0D01*
G01*
D13*
%TO.C,J9*%
X61341666Y-56800000D02*
X62591666Y-56800000D01*
X61631666Y-56510000D02*
X67601666Y-56510000D01*
X67601666Y-56510000D02*
X67601666Y-48890000D01*
X61641666Y-56500000D02*
X62391666Y-56500000D01*
X62391666Y-56500000D02*
X62391666Y-54700000D01*
X63891666Y-56500000D02*
X63891666Y-55750000D01*
X63891666Y-55750000D02*
X66841666Y-55750000D01*
X66841666Y-55750000D02*
X66841666Y-52700000D01*
X61341666Y-55550000D02*
X61341666Y-56800000D01*
X61641666Y-54700000D02*
X61641666Y-56500000D01*
X62391666Y-54700000D02*
X61641666Y-54700000D01*
X61641666Y-53200000D02*
X62391666Y-53200000D01*
X62391666Y-53200000D02*
X62391666Y-52200000D01*
X61641666Y-52200000D02*
X61641666Y-53200000D01*
X62391666Y-52200000D02*
X61641666Y-52200000D01*
X61641666Y-50700000D02*
X62391666Y-50700000D01*
X62391666Y-50700000D02*
X62391666Y-48900000D01*
X63891666Y-49650000D02*
X66841666Y-49650000D01*
X66841666Y-49650000D02*
X66841666Y-52700000D01*
X61641666Y-48900000D02*
X61641666Y-50700000D01*
X62391666Y-48900000D02*
X61641666Y-48900000D01*
X63891666Y-48900000D02*
X63891666Y-49650000D01*
X61631666Y-48890000D02*
X61631666Y-56510000D01*
X67601666Y-48890000D02*
X61631666Y-48890000D01*
%TO.C,D4*%
X35900000Y-58620000D02*
X35900000Y-57600000D01*
X34430000Y-57600000D02*
X37370000Y-57600000D01*
X37370000Y-57600000D02*
X37370000Y-52160000D01*
X34430000Y-56820000D02*
X37370000Y-56820000D01*
X34430000Y-56700000D02*
X37370000Y-56700000D01*
X34430000Y-56580000D02*
X37370000Y-56580000D01*
X34430000Y-52160000D02*
X34430000Y-57600000D01*
X37370000Y-52160000D02*
X34430000Y-52160000D01*
X35900000Y-51140000D02*
X35900000Y-52160000D01*
%TO.C,C2*%
X45905000Y-48580000D02*
X45905000Y-51320000D01*
X45905000Y-48580000D02*
X53145000Y-48580000D01*
X45905000Y-51320000D02*
X53145000Y-51320000D01*
X53145000Y-48580000D02*
X53145000Y-51320000D01*
D11*
%TO.C,J2*%
X61850000Y-16050000D02*
X56350000Y-16050000D01*
X56350000Y-16050000D02*
X56350000Y-20050000D01*
X62600000Y-20050000D02*
X61850000Y-20050000D01*
X61850000Y-20050000D02*
X61850000Y-16050000D01*
X61850000Y-20050000D02*
X56350000Y-20050000D01*
X56350000Y-20050000D02*
X55600000Y-20050000D01*
X55600000Y-20050000D02*
X55600000Y-21050000D01*
X62850000Y-21050000D02*
X62850000Y-34550000D01*
X62600000Y-21050000D02*
X62600000Y-20050000D01*
X62600000Y-21050000D02*
X62850000Y-21050000D01*
X55600000Y-21050000D02*
X62600000Y-21050000D01*
X55350000Y-21050000D02*
X55600000Y-21050000D01*
X62850000Y-34550000D02*
X55350000Y-34550000D01*
X55350000Y-34550000D02*
X55350000Y-21050000D01*
D12*
X62700000Y-19250000D02*
G75*
G03*
X62500000Y-19250000I-100000J0D01*
G01*
X62500000Y-19250000D02*
G75*
G03*
X62700000Y-19250000I100000J0D01*
G01*
D11*
%TO.C,U4*%
X22575000Y-35225000D02*
X44675000Y-35225000D01*
X22575000Y-47775000D02*
X22575000Y-35225000D01*
X44675000Y-35225000D02*
X44675000Y-47775000D01*
X44675000Y-47775000D02*
X22575000Y-47775000D01*
D12*
X23195000Y-37590000D02*
G75*
G03*
X22995000Y-37590000I-100000J0D01*
G01*
X22995000Y-37590000D02*
G75*
G03*
X23195000Y-37590000I100000J0D01*
G01*
D13*
%TO.C,C3*%
X55300000Y-64070000D02*
X55300000Y-62570000D01*
X57500000Y-63460000D02*
X57500000Y-62320000D01*
X54550000Y-63320000D02*
X56050000Y-63320000D01*
X54380000Y-62320000D02*
X60620000Y-62320000D01*
X54380000Y-62320000D02*
X54380000Y-60820000D01*
X60620000Y-62320000D02*
X60620000Y-60820000D01*
X54380000Y-60820000D02*
X55130000Y-60070000D01*
X60620000Y-60820000D02*
X59870000Y-60070000D01*
X55130000Y-60070000D02*
X54380000Y-59320000D01*
X59870000Y-60070000D02*
X60620000Y-59320000D01*
X54380000Y-59320000D02*
X54380000Y-52080000D01*
X60620000Y-59320000D02*
X60620000Y-52080000D01*
X54380000Y-52080000D02*
X60620000Y-52080000D01*
X57500000Y-50940000D02*
X57500000Y-52080000D01*
%TO.C,D1*%
X24561000Y-61960000D02*
X24405000Y-61960000D01*
X22245000Y-61960000D02*
X22089000Y-61960000D01*
X24403608Y-65192334D02*
G75*
G03*
X24560515Y-61960001I-1078608J1672334D01*
G01*
X24404836Y-64561129D02*
G75*
G03*
X24404999Y-62479040I-1079836J1041129D01*
G01*
X22245001Y-62479040D02*
G75*
G03*
X22245164Y-64561129I1079999J-1040960D01*
G01*
X22089485Y-61960001D02*
G75*
G03*
X22246392Y-65192334I1235515J-1559999D01*
G01*
%TO.C,C1*%
X43875000Y-50330000D02*
X43875000Y-51830000D01*
X41675000Y-50940000D02*
X41675000Y-52080000D01*
X44625000Y-51080000D02*
X43125000Y-51080000D01*
X44795000Y-52080000D02*
X38555000Y-52080000D01*
X44795000Y-52080000D02*
X44795000Y-53580000D01*
X38555000Y-52080000D02*
X38555000Y-53580000D01*
X44795000Y-53580000D02*
X44045000Y-54330000D01*
X38555000Y-53580000D02*
X39305000Y-54330000D01*
X44045000Y-54330000D02*
X44795000Y-55080000D01*
X39305000Y-54330000D02*
X38555000Y-55080000D01*
X44795000Y-55080000D02*
X44795000Y-62320000D01*
X38555000Y-55080000D02*
X38555000Y-62320000D01*
X44795000Y-62320000D02*
X38555000Y-62320000D01*
X41675000Y-63460000D02*
X41675000Y-62320000D01*
D11*
%TO.C,J6*%
X72775000Y-15700000D02*
X67275000Y-15700000D01*
X67275000Y-15700000D02*
X67275000Y-19700000D01*
X73525000Y-19700000D02*
X72775000Y-19700000D01*
X72775000Y-19700000D02*
X72775000Y-15700000D01*
X72775000Y-19700000D02*
X67275000Y-19700000D01*
X67275000Y-19700000D02*
X66525000Y-19700000D01*
X66525000Y-19700000D02*
X66525000Y-20700000D01*
X73775000Y-20700000D02*
X73775000Y-34200000D01*
X73525000Y-20700000D02*
X73525000Y-19700000D01*
X73525000Y-20700000D02*
X73775000Y-20700000D01*
X66525000Y-20700000D02*
X73525000Y-20700000D01*
X66275000Y-20700000D02*
X66525000Y-20700000D01*
X73775000Y-34200000D02*
X66275000Y-34200000D01*
X66275000Y-34200000D02*
X66275000Y-20700000D01*
D12*
X73625000Y-18900000D02*
G75*
G03*
X73425000Y-18900000I-100000J0D01*
G01*
X73425000Y-18900000D02*
G75*
G03*
X73625000Y-18900000I100000J0D01*
G01*
D11*
%TO.C,U2*%
X71355000Y-66950000D02*
X23155000Y-66950000D01*
X23155000Y-66950000D02*
X23155000Y-76830000D01*
X77555000Y-71900000D02*
X77555000Y-89900000D01*
X71355000Y-71900000D02*
X71355000Y-66950000D01*
X71355000Y-71900000D02*
X77555000Y-71900000D01*
X23155000Y-76830000D02*
X22255000Y-76830000D01*
X22255000Y-76830000D02*
X22255000Y-84960000D01*
X23155000Y-84960000D02*
X23155000Y-94850000D01*
X22255000Y-84960000D02*
X23155000Y-84960000D01*
X77555000Y-89900000D02*
X71355000Y-89900000D01*
X71355000Y-94850000D02*
X71355000Y-89900000D01*
X23155000Y-94850000D02*
X71355000Y-94850000D01*
D12*
X70325000Y-66330000D02*
G75*
G03*
X70125000Y-66330000I-100000J0D01*
G01*
X70125000Y-66330000D02*
G75*
G03*
X70325000Y-66330000I100000J0D01*
G01*
D13*
%TO.C,J10*%
X61341666Y-65800000D02*
X62591666Y-65800000D01*
X61631666Y-65510000D02*
X67601666Y-65510000D01*
X67601666Y-65510000D02*
X67601666Y-57890000D01*
X61641666Y-65500000D02*
X62391666Y-65500000D01*
X62391666Y-65500000D02*
X62391666Y-63700000D01*
X63891666Y-65500000D02*
X63891666Y-64750000D01*
X63891666Y-64750000D02*
X66841666Y-64750000D01*
X66841666Y-64750000D02*
X66841666Y-61700000D01*
X61341666Y-64550000D02*
X61341666Y-65800000D01*
X61641666Y-63700000D02*
X61641666Y-65500000D01*
X62391666Y-63700000D02*
X61641666Y-63700000D01*
X61641666Y-62200000D02*
X62391666Y-62200000D01*
X62391666Y-62200000D02*
X62391666Y-61200000D01*
X61641666Y-61200000D02*
X61641666Y-62200000D01*
X62391666Y-61200000D02*
X61641666Y-61200000D01*
X61641666Y-59700000D02*
X62391666Y-59700000D01*
X62391666Y-59700000D02*
X62391666Y-57900000D01*
X63891666Y-58650000D02*
X66841666Y-58650000D01*
X66841666Y-58650000D02*
X66841666Y-61700000D01*
X61641666Y-57900000D02*
X61641666Y-59700000D01*
X62391666Y-57900000D02*
X61641666Y-57900000D01*
X63891666Y-57900000D02*
X63891666Y-58650000D01*
X61631666Y-57890000D02*
X61631666Y-65510000D01*
X67601666Y-57890000D02*
X61631666Y-57890000D01*
%TO.C,R2*%
X50260000Y-72200000D02*
X51030000Y-72200000D01*
X51030000Y-70830000D02*
X51030000Y-73570000D01*
X51030000Y-73570000D02*
X57570000Y-73570000D01*
X57570000Y-70830000D02*
X51030000Y-70830000D01*
X57570000Y-73570000D02*
X57570000Y-70830000D01*
X58340000Y-72200000D02*
X57570000Y-72200000D01*
%TO.C,J7*%
X68575000Y-65800000D02*
X69825000Y-65800000D01*
X68865000Y-65510000D02*
X74835000Y-65510000D01*
X74835000Y-65510000D02*
X74835000Y-50390000D01*
X68875000Y-65500000D02*
X69625000Y-65500000D01*
X69625000Y-65500000D02*
X69625000Y-63700000D01*
X71125000Y-65500000D02*
X71125000Y-64750000D01*
X71125000Y-64750000D02*
X74075000Y-64750000D01*
X74075000Y-64750000D02*
X74075000Y-57950000D01*
X68575000Y-64550000D02*
X68575000Y-65800000D01*
X68875000Y-63700000D02*
X68875000Y-65500000D01*
X69625000Y-63700000D02*
X68875000Y-63700000D01*
X68875000Y-62200000D02*
X69625000Y-62200000D01*
X69625000Y-62200000D02*
X69625000Y-53700000D01*
X68875000Y-53700000D02*
X68875000Y-62200000D01*
X69625000Y-53700000D02*
X68875000Y-53700000D01*
X68875000Y-52200000D02*
X69625000Y-52200000D01*
X69625000Y-52200000D02*
X69625000Y-50400000D01*
X71125000Y-51150000D02*
X74075000Y-51150000D01*
X74075000Y-51150000D02*
X74075000Y-57950000D01*
X68875000Y-50400000D02*
X68875000Y-52200000D01*
X69625000Y-50400000D02*
X68875000Y-50400000D01*
X71125000Y-50400000D02*
X71125000Y-51150000D01*
X68865000Y-50390000D02*
X68865000Y-65510000D01*
X74835000Y-50390000D02*
X68865000Y-50390000D01*
%TD*%
%LPC*%
D15*
%TO.C,J3*%
X48175000Y-22250000D03*
X48175000Y-27650000D03*
X48175000Y-33350000D03*
%TD*%
D16*
%TO.C,R1*%
X34810000Y-64450000D03*
D17*
X27190000Y-64450000D03*
%TD*%
D18*
%TO.C,U1*%
X49915000Y-56200000D03*
D19*
X49915000Y-58740000D03*
X49915000Y-61280000D03*
%TD*%
D20*
%TO.C,U3*%
X48045000Y-37685000D03*
D21*
X48045000Y-40225000D03*
X48045000Y-42765000D03*
X48045000Y-45305000D03*
X65825000Y-45305000D03*
X65825000Y-37685000D03*
%TD*%
D16*
%TO.C,R3*%
X49220000Y-76200000D03*
D17*
X59380000Y-76200000D03*
%TD*%
D22*
%TO.C,J8*%
X71325000Y-46500000D03*
D23*
X71325000Y-44000000D03*
X71325000Y-41500000D03*
X71325000Y-39000000D03*
%TD*%
D15*
%TO.C,J4*%
X37250000Y-22250000D03*
X37250000Y-27650000D03*
X37250000Y-33350000D03*
%TD*%
D24*
%TO.C,J1*%
X32325000Y-53200000D03*
X26325000Y-53200000D03*
D25*
X29325000Y-57900000D03*
%TD*%
D15*
%TO.C,J5*%
X26325000Y-22250000D03*
X26325000Y-27650000D03*
X26325000Y-33350000D03*
%TD*%
D26*
%TO.C,J9*%
X64091666Y-53950000D03*
D27*
X64091666Y-51450000D03*
%TD*%
D28*
%TO.C,D4*%
X35900000Y-59960000D03*
D29*
X35900000Y-49800000D03*
%TD*%
D30*
%TO.C,H1*%
X74000000Y-92000000D03*
%TD*%
D16*
%TO.C,C2*%
X47025000Y-49950000D03*
X52025000Y-49950000D03*
%TD*%
D15*
%TO.C,J2*%
X59100000Y-22250000D03*
X59100000Y-27650000D03*
X59100000Y-33350000D03*
%TD*%
D30*
%TO.C,H2*%
X28000000Y-74000000D03*
%TD*%
D20*
%TO.C,U4*%
X24595000Y-37685000D03*
D21*
X24595000Y-40225000D03*
X24595000Y-42765000D03*
X24595000Y-45305000D03*
X42375000Y-45305000D03*
X42375000Y-37685000D03*
%TD*%
D31*
%TO.C,C3*%
X57500000Y-64700000D03*
D32*
X57500000Y-49700000D03*
%TD*%
D33*
%TO.C,D1*%
X23325000Y-62250000D03*
D34*
X23325000Y-64790000D03*
%TD*%
D31*
%TO.C,C1*%
X41675000Y-49700000D03*
D32*
X41675000Y-64700000D03*
%TD*%
D15*
%TO.C,J6*%
X70025000Y-21900000D03*
X70025000Y-27300000D03*
X70025000Y-33000000D03*
%TD*%
D35*
%TO.C,U2*%
X70105000Y-68200000D03*
D36*
X67565000Y-68200000D03*
X65025000Y-68200000D03*
X62485000Y-68200000D03*
X59945000Y-68200000D03*
X57405000Y-68200000D03*
X54865000Y-68200000D03*
X52325000Y-68200000D03*
X49785000Y-68200000D03*
X47245000Y-68200000D03*
X44705000Y-68200000D03*
X42165000Y-68200000D03*
X39625000Y-68200000D03*
X37085000Y-68200000D03*
X34545000Y-68200000D03*
X32005000Y-68200000D03*
X29465000Y-68200000D03*
X26925000Y-68200000D03*
X24385000Y-68200000D03*
X24385000Y-93600000D03*
X26925000Y-93600000D03*
X29465000Y-93600000D03*
X32005000Y-93600000D03*
X34545000Y-93600000D03*
X37085000Y-93600000D03*
X39625000Y-93600000D03*
X42165000Y-93600000D03*
X44705000Y-93600000D03*
X47245000Y-93600000D03*
X49785000Y-93600000D03*
X52325000Y-93600000D03*
X54865000Y-93600000D03*
X57405000Y-93600000D03*
X59945000Y-93600000D03*
X62485000Y-93600000D03*
X65025000Y-93600000D03*
X67565000Y-93600000D03*
X70105000Y-93600000D03*
%TD*%
D26*
%TO.C,J10*%
X64091666Y-62950000D03*
D27*
X64091666Y-60450000D03*
%TD*%
D16*
%TO.C,R2*%
X49220000Y-72200000D03*
D17*
X59380000Y-72200000D03*
%TD*%
D22*
%TO.C,J7*%
X71325000Y-62950000D03*
D23*
X71325000Y-60450000D03*
X71325000Y-57950000D03*
X71325000Y-55450000D03*
X71325000Y-52950000D03*
%TD*%
%LPD*%
M02*
