M48
; DRILL file {KiCad 7.0.10} date Wed May 14 10:04:44 2025
; FORMAT={-:-/ absolute / metric / decimal}
; #@! TF.CreationDate,2025-05-14T10:04:44+02:00
; #@! TF.GenerationSoftware,Kicad,Pcbnew,7.0.10
; #@! TF.FileFunction,Plated,1,2,PTH
FMAT,2
METRIC
; #@! TA.AperFunction,Plated,PTH,ViaDrill
T1C0.400
; #@! TA.AperFunction,Plated,PTH,ComponentDrill
T2C0.800
; #@! TA.AperFunction,Plated,PTH,ComponentDrill
T3C0.900
; #@! TA.AperFunction,Plated,PTH,ComponentDrill
T4C0.940
; #@! TA.AperFunction,Plated,PTH,ComponentDrill
T5C0.950
; #@! TA.AperFunction,Plated,PTH,ComponentDrill
T6C1.000
; #@! TA.AperFunction,Plated,PTH,ComponentDrill
T7C1.020
; #@! TA.AperFunction,Plated,PTH,ComponentDrill
T8C1.100
; #@! TA.AperFunction,Plated,PTH,ComponentDrill
T9C1.150
; #@! TA.AperFunction,Plated,PTH,ComponentDrill
T10C1.200
%
G90
G05
T1
X27.8Y-44.3
X41.0Y-91.0
X43.4Y-91.0
X45.5Y-91.0
X45.775Y-48.1
X47.245Y-66.3
X49.785Y-66.3
X53.9Y-66.3
X59.7Y-66.3
X61.1Y-63.975
X61.121Y-56.921
X61.2Y-66.34
X64.5Y-24.0
X73.2Y-52.8
X73.2Y-55.3
X73.2Y-57.8
T2
X27.19Y-64.45
X34.81Y-64.45
X47.025Y-49.95
X49.22Y-72.2
X49.22Y-76.2
X52.025Y-49.95
X59.38Y-72.2
X59.38Y-76.2
T3
X23.325Y-62.25
X23.325Y-64.79
T4
X49.915Y-56.2
X49.915Y-58.74
X49.915Y-61.28
T5
X71.325Y-39.0
X71.325Y-41.5
X71.325Y-44.0
X71.325Y-46.5
X71.325Y-52.95
X71.325Y-55.45
X71.325Y-57.95
X71.325Y-60.45
X71.325Y-62.95
T6
X41.675Y-49.7
X41.675Y-64.7
X57.5Y-49.7
X57.5Y-64.7
X64.092Y-51.45
X64.092Y-53.95
X64.092Y-60.45
X64.092Y-62.95
T7
X24.385Y-68.2
X24.385Y-93.6
X26.925Y-68.2
X26.925Y-93.6
X29.465Y-68.2
X29.465Y-93.6
X32.005Y-68.2
X32.005Y-93.6
X34.545Y-68.2
X34.545Y-93.6
X37.085Y-68.2
X37.085Y-93.6
X39.625Y-68.2
X39.625Y-93.6
X42.165Y-68.2
X42.165Y-93.6
X44.705Y-68.2
X44.705Y-93.6
X47.245Y-68.2
X47.245Y-93.6
X49.785Y-68.2
X49.785Y-93.6
X52.325Y-68.2
X52.325Y-93.6
X54.865Y-68.2
X54.865Y-93.6
X57.405Y-68.2
X57.405Y-93.6
X59.945Y-68.2
X59.945Y-93.6
X62.485Y-68.2
X62.485Y-93.6
X65.025Y-68.2
X65.025Y-93.6
X67.565Y-68.2
X67.565Y-93.6
X70.105Y-68.2
X70.105Y-93.6
T8
X35.9Y-49.8
X35.9Y-59.96
T9
X24.595Y-37.685
X24.595Y-40.225
X24.595Y-42.765
X24.595Y-45.305
X42.375Y-37.685
X42.375Y-45.305
X48.045Y-37.685
X48.045Y-40.225
X48.045Y-42.765
X48.045Y-45.305
X65.825Y-37.685
X65.825Y-45.305
T6
G00X26.325Y-53.5
M15
G01X26.325Y-52.9
M16
G05
G00X29.625Y-57.9
M15
G01X29.025Y-57.9
M16
G05
G00X32.325Y-53.5
M15
G01X32.325Y-52.9
M16
G05
T10
G00X26.975Y-22.25
M15
G01X25.675Y-22.25
M16
G05
G00X26.975Y-27.65
M15
G01X25.675Y-27.65
M16
G05
G00X26.975Y-33.35
M15
G01X25.675Y-33.35
M16
G05
G00X37.9Y-22.25
M15
G01X36.6Y-22.25
M16
G05
G00X37.9Y-27.65
M15
G01X36.6Y-27.65
M16
G05
G00X37.9Y-33.35
M15
G01X36.6Y-33.35
M16
G05
G00X48.825Y-22.25
M15
G01X47.525Y-22.25
M16
G05
G00X48.825Y-27.65
M15
G01X47.525Y-27.65
M16
G05
G00X48.825Y-33.35
M15
G01X47.525Y-33.35
M16
G05
G00X59.75Y-22.25
M15
G01X58.45Y-22.25
M16
G05
G00X59.75Y-27.65
M15
G01X58.45Y-27.65
M16
G05
G00X59.75Y-33.35
M15
G01X58.45Y-33.35
M16
G05
G00X70.675Y-21.9
M15
G01X69.375Y-21.9
M16
G05
G00X70.675Y-27.3
M15
G01X69.375Y-27.3
M16
G05
G00X70.675Y-33.0
M15
G01X69.375Y-33.0
M16
G05
M30
