%TF.GenerationSoftware,KiCad,Pcbnew,7.0.10*%
%TF.CreationDate,2025-05-14T10:04:39+02:00*%
%TF.ProjectId,Carte_driver_LED,43617274-655f-4647-9269-7665725f4c45,rev?*%
%TF.SameCoordinates,Original*%
%TF.FileFunction,Copper,L1,Top*%
%TF.FilePolarity,Positive*%
%FSLAX46Y46*%
G04 Gerber Fmt 4.6, Leading zero omitted, Abs format (unit mm)*
G04 Created by KiCad (PCBNEW 7.0.10) date 2025-05-14 10:04:39*
%MOMM*%
%LPD*%
G01*
G04 APERTURE LIST*
G04 Aperture macros list*
%AMRoundRect*
0 Rectangle with rounded corners*
0 $1 Rounding radius*
0 $2 $3 $4 $5 $6 $7 $8 $9 X,Y pos of 4 corners*
0 Add a 4 corners polygon primitive as box body*
4,1,4,$2,$3,$4,$5,$6,$7,$8,$9,$2,$3,0*
0 Add four circle primitives for the rounded corners*
1,1,$1+$1,$2,$3*
1,1,$1+$1,$4,$5*
1,1,$1+$1,$6,$7*
1,1,$1+$1,$8,$9*
0 Add four rect primitives between the rounded corners*
20,1,$1+$1,$2,$3,$4,$5,0*
20,1,$1+$1,$4,$5,$6,$7,0*
20,1,$1+$1,$6,$7,$8,$9,0*
20,1,$1+$1,$8,$9,$2,$3,0*%
G04 Aperture macros list end*
%TA.AperFunction,ComponentPad*%
%ADD10O,3.600000X1.800000*%
%TD*%
%TA.AperFunction,ComponentPad*%
%ADD11C,1.600000*%
%TD*%
%TA.AperFunction,ComponentPad*%
%ADD12O,1.600000X1.600000*%
%TD*%
%TA.AperFunction,ComponentPad*%
%ADD13R,1.448000X1.448000*%
%TD*%
%TA.AperFunction,ComponentPad*%
%ADD14C,1.448000*%
%TD*%
%TA.AperFunction,ComponentPad*%
%ADD15R,1.725000X1.725000*%
%TD*%
%TA.AperFunction,ComponentPad*%
%ADD16C,1.725000*%
%TD*%
%TA.AperFunction,ComponentPad*%
%ADD17RoundRect,0.250000X0.725000X-0.600000X0.725000X0.600000X-0.725000X0.600000X-0.725000X-0.600000X0*%
%TD*%
%TA.AperFunction,ComponentPad*%
%ADD18O,1.950000X1.700000*%
%TD*%
%TA.AperFunction,ComponentPad*%
%ADD19O,1.508000X3.016000*%
%TD*%
%TA.AperFunction,ComponentPad*%
%ADD20O,3.016000X1.508000*%
%TD*%
%TA.AperFunction,ComponentPad*%
%ADD21RoundRect,0.250000X0.750000X-0.600000X0.750000X0.600000X-0.750000X0.600000X-0.750000X-0.600000X0*%
%TD*%
%TA.AperFunction,ComponentPad*%
%ADD22O,2.000000X1.700000*%
%TD*%
%TA.AperFunction,ComponentPad*%
%ADD23R,2.200000X2.200000*%
%TD*%
%TA.AperFunction,ComponentPad*%
%ADD24O,2.200000X2.200000*%
%TD*%
%TA.AperFunction,ComponentPad*%
%ADD25R,2.000000X2.000000*%
%TD*%
%TA.AperFunction,ComponentPad*%
%ADD26O,2.000000X2.000000*%
%TD*%
%TA.AperFunction,ComponentPad*%
%ADD27R,1.800000X1.800000*%
%TD*%
%TA.AperFunction,ComponentPad*%
%ADD28C,1.800000*%
%TD*%
%TA.AperFunction,ComponentPad*%
%ADD29R,1.530000X1.530000*%
%TD*%
%TA.AperFunction,ComponentPad*%
%ADD30C,1.530000*%
%TD*%
%TA.AperFunction,ViaPad*%
%ADD31C,0.800000*%
%TD*%
%TA.AperFunction,Conductor*%
%ADD32C,0.400000*%
%TD*%
G04 APERTURE END LIST*
D10*
%TO.P,J3,1*%
%TO.N,/AN_1.1*%
X48175000Y-22250000D03*
%TO.P,J3,2*%
%TO.N,GND*%
X48175000Y-27650000D03*
%TO.P,J3,3*%
%TO.N,unconnected-(J3-Pad3)*%
X48175000Y-33350000D03*
%TD*%
D11*
%TO.P,R1,1*%
%TO.N,+5V*%
X34810000Y-64450000D03*
D12*
%TO.P,R1,2*%
%TO.N,Net-(D1-A)*%
X27190000Y-64450000D03*
%TD*%
D13*
%TO.P,U1,1,Vin*%
%TO.N,Net-(D4-K)*%
X49915000Y-56200000D03*
D14*
%TO.P,U1,2,GND*%
%TO.N,GND*%
X49915000Y-58740000D03*
%TO.P,U1,3,Vout*%
%TO.N,+5V*%
X49915000Y-61280000D03*
%TD*%
D15*
%TO.P,U3,1,+Vin*%
%TO.N,VCC*%
X48045000Y-37685000D03*
D16*
%TO.P,U3,2,An_Dim*%
%TO.N,/AN_1.1*%
X48045000Y-40225000D03*
%TO.P,U3,3,PWM/ON/OFF*%
%TO.N,/PWM_1.2*%
X48045000Y-42765000D03*
%TO.P,U3,4,GND*%
%TO.N,GND*%
X48045000Y-45305000D03*
%TO.P,U3,5,-Vout*%
%TO.N,Net-(U3--Vout)*%
X65825000Y-45305000D03*
%TO.P,U3,6,+Vout*%
%TO.N,Net-(U3-+Vout)*%
X65825000Y-37685000D03*
%TD*%
D11*
%TO.P,R3,1*%
%TO.N,/PWM_2.2*%
X49220000Y-76200000D03*
D12*
%TO.P,R3,2*%
%TO.N,Net-(J10-Pin_1)*%
X59380000Y-76200000D03*
%TD*%
D17*
%TO.P,J8,1,Pin_1*%
%TO.N,+5V*%
X71325000Y-46500000D03*
D18*
%TO.P,J8,2,Pin_2*%
%TO.N,GND*%
X71325000Y-44000000D03*
%TO.P,J8,3,Pin_3*%
%TO.N,/SDA*%
X71325000Y-41500000D03*
%TO.P,J8,4,Pin_4*%
%TO.N,/SCL*%
X71325000Y-39000000D03*
%TD*%
D10*
%TO.P,J4,1*%
%TO.N,Net-(U4-+Vout)*%
X37250000Y-22250000D03*
%TO.P,J4,2*%
%TO.N,Net-(U4--Vout)*%
X37250000Y-27650000D03*
%TO.P,J4,3*%
%TO.N,unconnected-(J4-Pad3)*%
X37250000Y-33350000D03*
%TD*%
D19*
%TO.P,J1,1*%
%TO.N,VCC*%
X32325000Y-53200000D03*
%TO.P,J1,2*%
%TO.N,GND*%
X26325000Y-53200000D03*
D20*
%TO.P,J1,3*%
%TO.N,unconnected-(J1-Pad3)*%
X29325000Y-57900000D03*
%TD*%
D10*
%TO.P,J5,1*%
%TO.N,/AN_2.1*%
X26325000Y-22250000D03*
%TO.P,J5,2*%
%TO.N,GND*%
X26325000Y-27650000D03*
%TO.P,J5,3*%
%TO.N,unconnected-(J5-Pad3)*%
X26325000Y-33350000D03*
%TD*%
D21*
%TO.P,J9,1,Pin_1*%
%TO.N,Net-(J9-Pin_1)*%
X64091666Y-53950000D03*
D22*
%TO.P,J9,2,Pin_2*%
%TO.N,GND*%
X64091666Y-51450000D03*
%TD*%
D23*
%TO.P,D4,1,K*%
%TO.N,Net-(D4-K)*%
X35900000Y-59960000D03*
D24*
%TO.P,D4,2,A*%
%TO.N,VCC*%
X35900000Y-49800000D03*
%TD*%
D11*
%TO.P,C2,1*%
%TO.N,Net-(D4-K)*%
X47025000Y-49950000D03*
%TO.P,C2,2*%
%TO.N,GND*%
X52025000Y-49950000D03*
%TD*%
D10*
%TO.P,J2,1*%
%TO.N,Net-(U3-+Vout)*%
X59100000Y-22250000D03*
%TO.P,J2,2*%
%TO.N,Net-(U3--Vout)*%
X59100000Y-27650000D03*
%TO.P,J2,3*%
%TO.N,unconnected-(J2-Pad3)*%
X59100000Y-33350000D03*
%TD*%
D15*
%TO.P,U4,1,+Vin*%
%TO.N,VCC*%
X24595000Y-37685000D03*
D16*
%TO.P,U4,2,An_Dim*%
%TO.N,/AN_2.1*%
X24595000Y-40225000D03*
%TO.P,U4,3,PWM/ON/OFF*%
%TO.N,/PWM_2.2*%
X24595000Y-42765000D03*
%TO.P,U4,4,GND*%
%TO.N,GND*%
X24595000Y-45305000D03*
%TO.P,U4,5,-Vout*%
%TO.N,Net-(U4--Vout)*%
X42375000Y-45305000D03*
%TO.P,U4,6,+Vout*%
%TO.N,Net-(U4-+Vout)*%
X42375000Y-37685000D03*
%TD*%
D25*
%TO.P,C3,1*%
%TO.N,+5V*%
X57500000Y-64700000D03*
D26*
%TO.P,C3,2*%
%TO.N,GND*%
X57500000Y-49700000D03*
%TD*%
D27*
%TO.P,D1,1,K*%
%TO.N,GND*%
X23325000Y-62250000D03*
D28*
%TO.P,D1,2,A*%
%TO.N,Net-(D1-A)*%
X23325000Y-64790000D03*
%TD*%
D25*
%TO.P,C1,1*%
%TO.N,Net-(D4-K)*%
X41675000Y-49700000D03*
D26*
%TO.P,C1,2*%
%TO.N,GND*%
X41675000Y-64700000D03*
%TD*%
D10*
%TO.P,J6,1*%
%TO.N,/trigger*%
X70025000Y-21900000D03*
%TO.P,J6,2*%
%TO.N,GND*%
X70025000Y-27300000D03*
%TO.P,J6,3*%
%TO.N,unconnected-(J6-Pad3)*%
X70025000Y-33000000D03*
%TD*%
D29*
%TO.P,U2,1,3V3*%
%TO.N,unconnected-(U2-3V3-Pad1)*%
X70105000Y-68200000D03*
D30*
%TO.P,U2,2,EN*%
%TO.N,unconnected-(U2-EN-Pad2)*%
X67565000Y-68200000D03*
%TO.P,U2,3,SENSOR_VP*%
%TO.N,unconnected-(U2-SENSOR_VP-Pad3)*%
X65025000Y-68200000D03*
%TO.P,U2,4,SENSOR_VN*%
%TO.N,unconnected-(U2-SENSOR_VN-Pad4)*%
X62485000Y-68200000D03*
%TO.P,U2,5,IO34*%
%TO.N,unconnected-(U2-IO34-Pad5)*%
X59945000Y-68200000D03*
%TO.P,U2,6,IO35*%
%TO.N,unconnected-(U2-IO35-Pad6)*%
X57405000Y-68200000D03*
%TO.P,U2,7,IO32*%
%TO.N,unconnected-(U2-IO32-Pad7)*%
X54865000Y-68200000D03*
%TO.P,U2,8,IO33*%
%TO.N,/trigger*%
X52325000Y-68200000D03*
%TO.P,U2,9,IO25*%
%TO.N,/PWM_1.2*%
X49785000Y-68200000D03*
%TO.P,U2,10,IO26*%
%TO.N,/PWM_2.2*%
X47245000Y-68200000D03*
%TO.P,U2,11,IO27*%
%TO.N,unconnected-(U2-IO27-Pad11)*%
X44705000Y-68200000D03*
%TO.P,U2,12,IO14*%
%TO.N,unconnected-(U2-IO14-Pad12)*%
X42165000Y-68200000D03*
%TO.P,U2,13,IO12*%
%TO.N,unconnected-(U2-IO12-Pad13)*%
X39625000Y-68200000D03*
%TO.P,U2,14,GND1*%
%TO.N,GND*%
X37085000Y-68200000D03*
%TO.P,U2,15,IO13*%
%TO.N,unconnected-(U2-IO13-Pad15)*%
X34545000Y-68200000D03*
%TO.P,U2,16,SD2*%
%TO.N,unconnected-(U2-SD2-Pad16)*%
X32005000Y-68200000D03*
%TO.P,U2,17,SD3*%
%TO.N,unconnected-(U2-SD3-Pad17)*%
X29465000Y-68200000D03*
%TO.P,U2,18,CMD*%
%TO.N,unconnected-(U2-CMD-Pad18)*%
X26925000Y-68200000D03*
%TO.P,U2,19,EXT_5V*%
%TO.N,+5V*%
X24385000Y-68200000D03*
%TO.P,U2,20,CLK*%
%TO.N,unconnected-(U2-CLK-Pad20)*%
X24385000Y-93600000D03*
%TO.P,U2,21,SD0*%
%TO.N,unconnected-(U2-SD0-Pad21)*%
X26925000Y-93600000D03*
%TO.P,U2,22,SD1*%
%TO.N,unconnected-(U2-SD1-Pad22)*%
X29465000Y-93600000D03*
%TO.P,U2,23,IO15*%
%TO.N,unconnected-(U2-IO15-Pad23)*%
X32005000Y-93600000D03*
%TO.P,U2,24,IO2*%
%TO.N,unconnected-(U2-IO2-Pad24)*%
X34545000Y-93600000D03*
%TO.P,U2,25,IO0*%
%TO.N,unconnected-(U2-IO0-Pad25)*%
X37085000Y-93600000D03*
%TO.P,U2,26,IO4*%
%TO.N,/SW*%
X39625000Y-93600000D03*
%TO.P,U2,27,IO16*%
%TO.N,/B*%
X42165000Y-93600000D03*
%TO.P,U2,28,IO17*%
%TO.N,/A*%
X44705000Y-93600000D03*
%TO.P,U2,29,IO5*%
%TO.N,unconnected-(U2-IO5-Pad29)*%
X47245000Y-93600000D03*
%TO.P,U2,30,IO18*%
%TO.N,unconnected-(U2-IO18-Pad30)*%
X49785000Y-93600000D03*
%TO.P,U2,31,IO19*%
%TO.N,unconnected-(U2-IO19-Pad31)*%
X52325000Y-93600000D03*
%TO.P,U2,32,GND2*%
%TO.N,GND*%
X54865000Y-93600000D03*
%TO.P,U2,33,IO21*%
%TO.N,/SDA*%
X57405000Y-93600000D03*
%TO.P,U2,34,RXD0*%
%TO.N,unconnected-(U2-RXD0-Pad34)*%
X59945000Y-93600000D03*
%TO.P,U2,35,TXD0*%
%TO.N,unconnected-(U2-TXD0-Pad35)*%
X62485000Y-93600000D03*
%TO.P,U2,36,IO22*%
%TO.N,/SCL*%
X65025000Y-93600000D03*
%TO.P,U2,37,IO23*%
%TO.N,unconnected-(U2-IO23-Pad37)*%
X67565000Y-93600000D03*
%TO.P,U2,38,GND3*%
%TO.N,GND*%
X70105000Y-93600000D03*
%TD*%
D21*
%TO.P,J10,1,Pin_1*%
%TO.N,Net-(J10-Pin_1)*%
X64091666Y-62950000D03*
D22*
%TO.P,J10,2,Pin_2*%
%TO.N,GND*%
X64091666Y-60450000D03*
%TD*%
D11*
%TO.P,R2,1*%
%TO.N,/PWM_1.2*%
X49220000Y-72200000D03*
D12*
%TO.P,R2,2*%
%TO.N,Net-(J9-Pin_1)*%
X59380000Y-72200000D03*
%TD*%
D17*
%TO.P,J7,1,Pin_1*%
%TO.N,+5V*%
X71325000Y-62950000D03*
D18*
%TO.P,J7,2,Pin_2*%
%TO.N,GND*%
X71325000Y-60450000D03*
%TO.P,J7,3,Pin_3*%
%TO.N,/SW*%
X71325000Y-57950000D03*
%TO.P,J7,4,Pin_4*%
%TO.N,/B*%
X71325000Y-55450000D03*
%TO.P,J7,5,Pin_5*%
%TO.N,/A*%
X71325000Y-52950000D03*
%TD*%
D31*
%TO.N,/PWM_2.2*%
X27800000Y-44300000D03*
X47245000Y-66300000D03*
%TO.N,/A*%
X45500000Y-91000000D03*
X73200000Y-52800000D03*
%TO.N,/trigger*%
X64500000Y-24000000D03*
X53900000Y-66300000D03*
%TO.N,Net-(J9-Pin_1)*%
X59700000Y-66300000D03*
X61120833Y-56920833D03*
%TO.N,Net-(J10-Pin_1)*%
X61200000Y-66340000D03*
X61100000Y-63975000D03*
%TO.N,/SW*%
X41000000Y-91000000D03*
X73200000Y-57800000D03*
%TO.N,/B*%
X43400000Y-91000000D03*
X73200000Y-55300000D03*
%TO.N,/PWM_1.2*%
X49785000Y-66300000D03*
X45775000Y-48100000D03*
%TD*%
D32*
%TO.N,/PWM_2.2*%
X45100000Y-49100000D02*
X43300000Y-47300000D01*
X47245000Y-63245000D02*
X45100000Y-61100000D01*
X43300000Y-47300000D02*
X30800000Y-47300000D01*
X30800000Y-47300000D02*
X27800000Y-44300000D01*
X45100000Y-61100000D02*
X45100000Y-49100000D01*
X47245000Y-66300000D02*
X47245000Y-63245000D01*
%TO.N,/A*%
X45500000Y-91000000D02*
X58700000Y-91000000D01*
X58700000Y-91000000D02*
X76500000Y-73200000D01*
X76500000Y-73200000D02*
X76500000Y-56100000D01*
X76500000Y-56100000D02*
X73200000Y-52800000D01*
%TO.N,/trigger*%
X53900000Y-45400000D02*
X64500000Y-34800000D01*
X53900000Y-66300000D02*
X53900000Y-45400000D01*
X64500000Y-34800000D02*
X64500000Y-24000000D01*
%TO.N,Net-(J9-Pin_1)*%
X59700000Y-58341666D02*
X59700000Y-66300000D01*
X61120833Y-56920833D02*
X59700000Y-58341666D01*
%TO.N,Net-(J10-Pin_1)*%
X61000000Y-64075000D02*
X61100000Y-63975000D01*
X61000000Y-66140000D02*
X61000000Y-64075000D01*
X61200000Y-66340000D02*
X61000000Y-66140000D01*
%TO.N,/SW*%
X43100000Y-88900000D02*
X57825000Y-88900000D01*
X57825000Y-88900000D02*
X74500000Y-72225000D01*
X41000000Y-91000000D02*
X43100000Y-88900000D01*
X74500000Y-72225000D02*
X74500000Y-59100000D01*
X74500000Y-59100000D02*
X73200000Y-57800000D01*
%TO.N,/B*%
X58300000Y-90000000D02*
X44300000Y-90000000D01*
X73200000Y-55300000D02*
X73400000Y-55300000D01*
X73400000Y-55300000D02*
X75500000Y-57400000D01*
X44300000Y-90000000D02*
X43400000Y-90900000D01*
X75500000Y-72800000D02*
X58300000Y-90000000D01*
X75500000Y-57400000D02*
X75500000Y-72800000D01*
%TO.N,/PWM_1.2*%
X45775000Y-48100000D02*
X45775000Y-60675000D01*
X49785000Y-64685000D02*
X49785000Y-66300000D01*
X45775000Y-60675000D02*
X49785000Y-64685000D01*
%TD*%
M02*
