%TF.GenerationSoftware,KiCad,Pcbnew,7.0.10*%
%TF.CreationDate,2025-05-14T10:04:39+02:00*%
%TF.ProjectId,Carte_driver_LED,43617274-655f-4647-9269-7665725f4c45,rev?*%
%TF.SameCoordinates,Original*%
%TF.FileFunction,Copper,L2,Bot*%
%TF.FilePolarity,Positive*%
%FSLAX46Y46*%
G04 Gerber Fmt 4.6, Leading zero omitted, Abs format (unit mm)*
G04 Created by KiCad (PCBNEW 7.0.10) date 2025-05-14 10:04:39*
%MOMM*%
%LPD*%
G01*
G04 APERTURE LIST*
G04 Aperture macros list*
%AMRoundRect*
0 Rectangle with rounded corners*
0 $1 Rounding radius*
0 $2 $3 $4 $5 $6 $7 $8 $9 X,Y pos of 4 corners*
0 Add a 4 corners polygon primitive as box body*
4,1,4,$2,$3,$4,$5,$6,$7,$8,$9,$2,$3,0*
0 Add four circle primitives for the rounded corners*
1,1,$1+$1,$2,$3*
1,1,$1+$1,$4,$5*
1,1,$1+$1,$6,$7*
1,1,$1+$1,$8,$9*
0 Add four rect primitives between the rounded corners*
20,1,$1+$1,$2,$3,$4,$5,0*
20,1,$1+$1,$4,$5,$6,$7,0*
20,1,$1+$1,$6,$7,$8,$9,0*
20,1,$1+$1,$8,$9,$2,$3,0*%
G04 Aperture macros list end*
%TA.AperFunction,ComponentPad*%
%ADD10O,3.600000X1.800000*%
%TD*%
%TA.AperFunction,ComponentPad*%
%ADD11C,1.600000*%
%TD*%
%TA.AperFunction,ComponentPad*%
%ADD12O,1.600000X1.600000*%
%TD*%
%TA.AperFunction,ComponentPad*%
%ADD13R,1.448000X1.448000*%
%TD*%
%TA.AperFunction,ComponentPad*%
%ADD14C,1.448000*%
%TD*%
%TA.AperFunction,ComponentPad*%
%ADD15R,1.725000X1.725000*%
%TD*%
%TA.AperFunction,ComponentPad*%
%ADD16C,1.725000*%
%TD*%
%TA.AperFunction,ComponentPad*%
%ADD17RoundRect,0.250000X0.725000X-0.600000X0.725000X0.600000X-0.725000X0.600000X-0.725000X-0.600000X0*%
%TD*%
%TA.AperFunction,ComponentPad*%
%ADD18O,1.950000X1.700000*%
%TD*%
%TA.AperFunction,ComponentPad*%
%ADD19O,1.508000X3.016000*%
%TD*%
%TA.AperFunction,ComponentPad*%
%ADD20O,3.016000X1.508000*%
%TD*%
%TA.AperFunction,ComponentPad*%
%ADD21RoundRect,0.250000X0.750000X-0.600000X0.750000X0.600000X-0.750000X0.600000X-0.750000X-0.600000X0*%
%TD*%
%TA.AperFunction,ComponentPad*%
%ADD22O,2.000000X1.700000*%
%TD*%
%TA.AperFunction,ComponentPad*%
%ADD23R,2.200000X2.200000*%
%TD*%
%TA.AperFunction,ComponentPad*%
%ADD24O,2.200000X2.200000*%
%TD*%
%TA.AperFunction,ComponentPad*%
%ADD25R,2.000000X2.000000*%
%TD*%
%TA.AperFunction,ComponentPad*%
%ADD26O,2.000000X2.000000*%
%TD*%
%TA.AperFunction,ComponentPad*%
%ADD27R,1.800000X1.800000*%
%TD*%
%TA.AperFunction,ComponentPad*%
%ADD28C,1.800000*%
%TD*%
%TA.AperFunction,ComponentPad*%
%ADD29R,1.530000X1.530000*%
%TD*%
%TA.AperFunction,ComponentPad*%
%ADD30C,1.530000*%
%TD*%
%TA.AperFunction,ViaPad*%
%ADD31C,0.800000*%
%TD*%
%TA.AperFunction,Conductor*%
%ADD32C,1.500000*%
%TD*%
%TA.AperFunction,Conductor*%
%ADD33C,0.400000*%
%TD*%
%TA.AperFunction,Conductor*%
%ADD34C,0.250000*%
%TD*%
G04 APERTURE END LIST*
D10*
%TO.P,J3,1*%
%TO.N,/AN_1.1*%
X48175000Y-22250000D03*
%TO.P,J3,2*%
%TO.N,GND*%
X48175000Y-27650000D03*
%TO.P,J3,3*%
%TO.N,unconnected-(J3-Pad3)*%
X48175000Y-33350000D03*
%TD*%
D11*
%TO.P,R1,1*%
%TO.N,+5V*%
X34810000Y-64450000D03*
D12*
%TO.P,R1,2*%
%TO.N,Net-(D1-A)*%
X27190000Y-64450000D03*
%TD*%
D13*
%TO.P,U1,1,Vin*%
%TO.N,Net-(D4-K)*%
X49915000Y-56200000D03*
D14*
%TO.P,U1,2,GND*%
%TO.N,GND*%
X49915000Y-58740000D03*
%TO.P,U1,3,Vout*%
%TO.N,+5V*%
X49915000Y-61280000D03*
%TD*%
D15*
%TO.P,U3,1,+Vin*%
%TO.N,VCC*%
X48045000Y-37685000D03*
D16*
%TO.P,U3,2,An_Dim*%
%TO.N,/AN_1.1*%
X48045000Y-40225000D03*
%TO.P,U3,3,PWM/ON/OFF*%
%TO.N,/PWM_1.2*%
X48045000Y-42765000D03*
%TO.P,U3,4,GND*%
%TO.N,GND*%
X48045000Y-45305000D03*
%TO.P,U3,5,-Vout*%
%TO.N,Net-(U3--Vout)*%
X65825000Y-45305000D03*
%TO.P,U3,6,+Vout*%
%TO.N,Net-(U3-+Vout)*%
X65825000Y-37685000D03*
%TD*%
D11*
%TO.P,R3,1*%
%TO.N,/PWM_2.2*%
X49220000Y-76200000D03*
D12*
%TO.P,R3,2*%
%TO.N,Net-(J10-Pin_1)*%
X59380000Y-76200000D03*
%TD*%
D17*
%TO.P,J8,1,Pin_1*%
%TO.N,+5V*%
X71325000Y-46500000D03*
D18*
%TO.P,J8,2,Pin_2*%
%TO.N,GND*%
X71325000Y-44000000D03*
%TO.P,J8,3,Pin_3*%
%TO.N,/SDA*%
X71325000Y-41500000D03*
%TO.P,J8,4,Pin_4*%
%TO.N,/SCL*%
X71325000Y-39000000D03*
%TD*%
D10*
%TO.P,J4,1*%
%TO.N,Net-(U4-+Vout)*%
X37250000Y-22250000D03*
%TO.P,J4,2*%
%TO.N,Net-(U4--Vout)*%
X37250000Y-27650000D03*
%TO.P,J4,3*%
%TO.N,unconnected-(J4-Pad3)*%
X37250000Y-33350000D03*
%TD*%
D19*
%TO.P,J1,1*%
%TO.N,VCC*%
X32325000Y-53200000D03*
%TO.P,J1,2*%
%TO.N,GND*%
X26325000Y-53200000D03*
D20*
%TO.P,J1,3*%
%TO.N,unconnected-(J1-Pad3)*%
X29325000Y-57900000D03*
%TD*%
D10*
%TO.P,J5,1*%
%TO.N,/AN_2.1*%
X26325000Y-22250000D03*
%TO.P,J5,2*%
%TO.N,GND*%
X26325000Y-27650000D03*
%TO.P,J5,3*%
%TO.N,unconnected-(J5-Pad3)*%
X26325000Y-33350000D03*
%TD*%
D21*
%TO.P,J9,1,Pin_1*%
%TO.N,Net-(J9-Pin_1)*%
X64091666Y-53950000D03*
D22*
%TO.P,J9,2,Pin_2*%
%TO.N,GND*%
X64091666Y-51450000D03*
%TD*%
D23*
%TO.P,D4,1,K*%
%TO.N,Net-(D4-K)*%
X35900000Y-59960000D03*
D24*
%TO.P,D4,2,A*%
%TO.N,VCC*%
X35900000Y-49800000D03*
%TD*%
D11*
%TO.P,C2,1*%
%TO.N,Net-(D4-K)*%
X47025000Y-49950000D03*
%TO.P,C2,2*%
%TO.N,GND*%
X52025000Y-49950000D03*
%TD*%
D10*
%TO.P,J2,1*%
%TO.N,Net-(U3-+Vout)*%
X59100000Y-22250000D03*
%TO.P,J2,2*%
%TO.N,Net-(U3--Vout)*%
X59100000Y-27650000D03*
%TO.P,J2,3*%
%TO.N,unconnected-(J2-Pad3)*%
X59100000Y-33350000D03*
%TD*%
D15*
%TO.P,U4,1,+Vin*%
%TO.N,VCC*%
X24595000Y-37685000D03*
D16*
%TO.P,U4,2,An_Dim*%
%TO.N,/AN_2.1*%
X24595000Y-40225000D03*
%TO.P,U4,3,PWM/ON/OFF*%
%TO.N,/PWM_2.2*%
X24595000Y-42765000D03*
%TO.P,U4,4,GND*%
%TO.N,GND*%
X24595000Y-45305000D03*
%TO.P,U4,5,-Vout*%
%TO.N,Net-(U4--Vout)*%
X42375000Y-45305000D03*
%TO.P,U4,6,+Vout*%
%TO.N,Net-(U4-+Vout)*%
X42375000Y-37685000D03*
%TD*%
D25*
%TO.P,C3,1*%
%TO.N,+5V*%
X57500000Y-64700000D03*
D26*
%TO.P,C3,2*%
%TO.N,GND*%
X57500000Y-49700000D03*
%TD*%
D27*
%TO.P,D1,1,K*%
%TO.N,GND*%
X23325000Y-62250000D03*
D28*
%TO.P,D1,2,A*%
%TO.N,Net-(D1-A)*%
X23325000Y-64790000D03*
%TD*%
D25*
%TO.P,C1,1*%
%TO.N,Net-(D4-K)*%
X41675000Y-49700000D03*
D26*
%TO.P,C1,2*%
%TO.N,GND*%
X41675000Y-64700000D03*
%TD*%
D10*
%TO.P,J6,1*%
%TO.N,/trigger*%
X70025000Y-21900000D03*
%TO.P,J6,2*%
%TO.N,GND*%
X70025000Y-27300000D03*
%TO.P,J6,3*%
%TO.N,unconnected-(J6-Pad3)*%
X70025000Y-33000000D03*
%TD*%
D29*
%TO.P,U2,1,3V3*%
%TO.N,unconnected-(U2-3V3-Pad1)*%
X70105000Y-68200000D03*
D30*
%TO.P,U2,2,EN*%
%TO.N,unconnected-(U2-EN-Pad2)*%
X67565000Y-68200000D03*
%TO.P,U2,3,SENSOR_VP*%
%TO.N,unconnected-(U2-SENSOR_VP-Pad3)*%
X65025000Y-68200000D03*
%TO.P,U2,4,SENSOR_VN*%
%TO.N,unconnected-(U2-SENSOR_VN-Pad4)*%
X62485000Y-68200000D03*
%TO.P,U2,5,IO34*%
%TO.N,unconnected-(U2-IO34-Pad5)*%
X59945000Y-68200000D03*
%TO.P,U2,6,IO35*%
%TO.N,unconnected-(U2-IO35-Pad6)*%
X57405000Y-68200000D03*
%TO.P,U2,7,IO32*%
%TO.N,unconnected-(U2-IO32-Pad7)*%
X54865000Y-68200000D03*
%TO.P,U2,8,IO33*%
%TO.N,/trigger*%
X52325000Y-68200000D03*
%TO.P,U2,9,IO25*%
%TO.N,/PWM_1.2*%
X49785000Y-68200000D03*
%TO.P,U2,10,IO26*%
%TO.N,/PWM_2.2*%
X47245000Y-68200000D03*
%TO.P,U2,11,IO27*%
%TO.N,unconnected-(U2-IO27-Pad11)*%
X44705000Y-68200000D03*
%TO.P,U2,12,IO14*%
%TO.N,unconnected-(U2-IO14-Pad12)*%
X42165000Y-68200000D03*
%TO.P,U2,13,IO12*%
%TO.N,unconnected-(U2-IO12-Pad13)*%
X39625000Y-68200000D03*
%TO.P,U2,14,GND1*%
%TO.N,GND*%
X37085000Y-68200000D03*
%TO.P,U2,15,IO13*%
%TO.N,unconnected-(U2-IO13-Pad15)*%
X34545000Y-68200000D03*
%TO.P,U2,16,SD2*%
%TO.N,unconnected-(U2-SD2-Pad16)*%
X32005000Y-68200000D03*
%TO.P,U2,17,SD3*%
%TO.N,unconnected-(U2-SD3-Pad17)*%
X29465000Y-68200000D03*
%TO.P,U2,18,CMD*%
%TO.N,unconnected-(U2-CMD-Pad18)*%
X26925000Y-68200000D03*
%TO.P,U2,19,EXT_5V*%
%TO.N,+5V*%
X24385000Y-68200000D03*
%TO.P,U2,20,CLK*%
%TO.N,unconnected-(U2-CLK-Pad20)*%
X24385000Y-93600000D03*
%TO.P,U2,21,SD0*%
%TO.N,unconnected-(U2-SD0-Pad21)*%
X26925000Y-93600000D03*
%TO.P,U2,22,SD1*%
%TO.N,unconnected-(U2-SD1-Pad22)*%
X29465000Y-93600000D03*
%TO.P,U2,23,IO15*%
%TO.N,unconnected-(U2-IO15-Pad23)*%
X32005000Y-93600000D03*
%TO.P,U2,24,IO2*%
%TO.N,unconnected-(U2-IO2-Pad24)*%
X34545000Y-93600000D03*
%TO.P,U2,25,IO0*%
%TO.N,unconnected-(U2-IO0-Pad25)*%
X37085000Y-93600000D03*
%TO.P,U2,26,IO4*%
%TO.N,/SW*%
X39625000Y-93600000D03*
%TO.P,U2,27,IO16*%
%TO.N,/B*%
X42165000Y-93600000D03*
%TO.P,U2,28,IO17*%
%TO.N,/A*%
X44705000Y-93600000D03*
%TO.P,U2,29,IO5*%
%TO.N,unconnected-(U2-IO5-Pad29)*%
X47245000Y-93600000D03*
%TO.P,U2,30,IO18*%
%TO.N,unconnected-(U2-IO18-Pad30)*%
X49785000Y-93600000D03*
%TO.P,U2,31,IO19*%
%TO.N,unconnected-(U2-IO19-Pad31)*%
X52325000Y-93600000D03*
%TO.P,U2,32,GND2*%
%TO.N,GND*%
X54865000Y-93600000D03*
%TO.P,U2,33,IO21*%
%TO.N,/SDA*%
X57405000Y-93600000D03*
%TO.P,U2,34,RXD0*%
%TO.N,unconnected-(U2-RXD0-Pad34)*%
X59945000Y-93600000D03*
%TO.P,U2,35,TXD0*%
%TO.N,unconnected-(U2-TXD0-Pad35)*%
X62485000Y-93600000D03*
%TO.P,U2,36,IO22*%
%TO.N,/SCL*%
X65025000Y-93600000D03*
%TO.P,U2,37,IO23*%
%TO.N,unconnected-(U2-IO23-Pad37)*%
X67565000Y-93600000D03*
%TO.P,U2,38,GND3*%
%TO.N,GND*%
X70105000Y-93600000D03*
%TD*%
D21*
%TO.P,J10,1,Pin_1*%
%TO.N,Net-(J10-Pin_1)*%
X64091666Y-62950000D03*
D22*
%TO.P,J10,2,Pin_2*%
%TO.N,GND*%
X64091666Y-60450000D03*
%TD*%
D11*
%TO.P,R2,1*%
%TO.N,/PWM_1.2*%
X49220000Y-72200000D03*
D12*
%TO.P,R2,2*%
%TO.N,Net-(J9-Pin_1)*%
X59380000Y-72200000D03*
%TD*%
D17*
%TO.P,J7,1,Pin_1*%
%TO.N,+5V*%
X71325000Y-62950000D03*
D18*
%TO.P,J7,2,Pin_2*%
%TO.N,GND*%
X71325000Y-60450000D03*
%TO.P,J7,3,Pin_3*%
%TO.N,/SW*%
X71325000Y-57950000D03*
%TO.P,J7,4,Pin_4*%
%TO.N,/B*%
X71325000Y-55450000D03*
%TO.P,J7,5,Pin_5*%
%TO.N,/A*%
X71325000Y-52950000D03*
%TD*%
D31*
%TO.N,/PWM_2.2*%
X27800000Y-44300000D03*
X47245000Y-66300000D03*
%TO.N,/A*%
X45500000Y-91000000D03*
X73200000Y-52800000D03*
%TO.N,/trigger*%
X64500000Y-24000000D03*
X53900000Y-66300000D03*
%TO.N,Net-(J9-Pin_1)*%
X59700000Y-66300000D03*
X61120833Y-56920833D03*
%TO.N,Net-(J10-Pin_1)*%
X61200000Y-66340000D03*
X61100000Y-63975000D03*
%TO.N,/SW*%
X41000000Y-91000000D03*
X73200000Y-57800000D03*
%TO.N,/B*%
X43400000Y-91000000D03*
X73200000Y-55300000D03*
%TO.N,/PWM_1.2*%
X49785000Y-66300000D03*
X45775000Y-48100000D03*
%TD*%
D32*
%TO.N,GND*%
X23325000Y-62250000D02*
X23400000Y-62250000D01*
D33*
%TO.N,+5V*%
X49915000Y-61280000D02*
X53335000Y-64700000D01*
X24385000Y-68200000D02*
X24385000Y-67230000D01*
X24385000Y-67230000D02*
X25115000Y-66500000D01*
X71325000Y-62950000D02*
X74000000Y-60275000D01*
X25115000Y-66500000D02*
X32760000Y-66500000D01*
X34810000Y-64450000D02*
X36700000Y-66340000D01*
X74000000Y-48500000D02*
X72000000Y-46500000D01*
X32760000Y-66500000D02*
X34810000Y-64450000D01*
D34*
X69575000Y-64700000D02*
X71325000Y-62950000D01*
D33*
X44855000Y-66340000D02*
X49915000Y-61280000D01*
X53335000Y-64700000D02*
X57508333Y-64700000D01*
X72000000Y-46500000D02*
X71325000Y-46500000D01*
D34*
X57500000Y-64700000D02*
X69575000Y-64700000D01*
D33*
X74000000Y-60275000D02*
X74000000Y-48500000D01*
X36700000Y-66340000D02*
X44855000Y-66340000D01*
%TO.N,/AN_1.1*%
X49275000Y-40225000D02*
X48045000Y-40225000D01*
X51500000Y-38000000D02*
X49275000Y-40225000D01*
X48175000Y-22250000D02*
X51500000Y-25575000D01*
X51500000Y-25575000D02*
X51500000Y-38000000D01*
%TO.N,/AN_2.1*%
X26325000Y-23085000D02*
X29500000Y-26260000D01*
X22230000Y-37860000D02*
X24595000Y-40225000D01*
X29500000Y-26260000D02*
X29500000Y-28500000D01*
X27500000Y-30500000D02*
X25000000Y-30500000D01*
X26325000Y-22250000D02*
X26325000Y-23085000D01*
X25000000Y-30500000D02*
X22230000Y-33270000D01*
X22230000Y-33270000D02*
X22230000Y-37860000D01*
X29500000Y-28500000D02*
X27500000Y-30500000D01*
%TO.N,/PWM_2.2*%
X26265000Y-42765000D02*
X24595000Y-42765000D01*
X27800000Y-44300000D02*
X26265000Y-42765000D01*
X47245000Y-74225000D02*
X47245000Y-68200000D01*
X49220000Y-76200000D02*
X47245000Y-74225000D01*
X47245000Y-66300000D02*
X47245000Y-68200000D01*
%TO.N,/SCL*%
X65025000Y-93600000D02*
X65025000Y-87475000D01*
X76500000Y-44175000D02*
X71325000Y-39000000D01*
X76500000Y-76000000D02*
X76500000Y-44175000D01*
X65025000Y-87475000D02*
X76500000Y-76000000D01*
%TO.N,/SDA*%
X75500000Y-75505000D02*
X75500000Y-45675000D01*
X75500000Y-45675000D02*
X71325000Y-41500000D01*
X57405000Y-93600000D02*
X75500000Y-75505000D01*
%TO.N,/A*%
X45500000Y-91000000D02*
X44705000Y-91795000D01*
X71475000Y-52800000D02*
X71325000Y-52950000D01*
X73200000Y-52800000D02*
X71475000Y-52800000D01*
X44705000Y-91795000D02*
X44705000Y-93600000D01*
D32*
%TO.N,VCC*%
X35900000Y-48044366D02*
X25540634Y-37685000D01*
X45325000Y-38690868D02*
X45325000Y-46000000D01*
X48045000Y-37685000D02*
X46330868Y-37685000D01*
X25540634Y-37685000D02*
X24595000Y-37685000D01*
X35900000Y-49800000D02*
X38345000Y-47355000D01*
X46330868Y-37685000D02*
X45325000Y-38690868D01*
X35725000Y-49800000D02*
X32325000Y-53200000D01*
X35900000Y-49800000D02*
X35725000Y-49800000D01*
X35900000Y-49800000D02*
X35900000Y-48244366D01*
X45325000Y-46200000D02*
X44170000Y-47355000D01*
X44170000Y-47355000D02*
X38345000Y-47355000D01*
%TO.N,Net-(U3--Vout)*%
X62270000Y-41750000D02*
X65825000Y-45305000D01*
X62270000Y-30820000D02*
X62270000Y-41750000D01*
X59100000Y-27650000D02*
X62270000Y-30820000D01*
%TO.N,Net-(U3-+Vout)*%
X59100000Y-22250000D02*
X65825000Y-28975000D01*
X65825000Y-28975000D02*
X65825000Y-37685000D01*
D33*
%TO.N,/trigger*%
X66600000Y-21900000D02*
X70025000Y-21900000D01*
X53900000Y-66300000D02*
X52325000Y-67875000D01*
X52325000Y-67875000D02*
X52325000Y-68200000D01*
X64500000Y-24000000D02*
X66600000Y-21900000D01*
%TO.N,Net-(D1-A)*%
X27190000Y-64450000D02*
X23665000Y-64450000D01*
X23665000Y-64450000D02*
X23325000Y-64790000D01*
%TO.N,Net-(J9-Pin_1)*%
X58700000Y-71520000D02*
X59380000Y-72200000D01*
X61120833Y-56920833D02*
X64091666Y-53950000D01*
X59700000Y-66300000D02*
X58700000Y-67300000D01*
X58700000Y-67300000D02*
X58700000Y-71520000D01*
%TO.N,Net-(J10-Pin_1)*%
X61200000Y-74380000D02*
X59380000Y-76200000D01*
X61100000Y-63975000D02*
X61100000Y-63900000D01*
X62050000Y-62950000D02*
X64091666Y-62950000D01*
X61200000Y-66340000D02*
X61200000Y-74380000D01*
X61100000Y-63900000D02*
X62050000Y-62950000D01*
D32*
%TO.N,Net-(D4-K)*%
X47025000Y-49950000D02*
X49915000Y-52840000D01*
X35900000Y-59960000D02*
X36665000Y-59960000D01*
X46775000Y-49700000D02*
X47025000Y-49950000D01*
X41675000Y-54950000D02*
X41675000Y-49700000D01*
X36665000Y-59960000D02*
X41675000Y-54950000D01*
X49915000Y-52840000D02*
X49915000Y-56200000D01*
X41675000Y-49700000D02*
X46775000Y-49700000D01*
%TO.N,Net-(U4-+Vout)*%
X42375000Y-27375000D02*
X42375000Y-37685000D01*
X37250000Y-22250000D02*
X42375000Y-27375000D01*
%TO.N,Net-(U4--Vout)*%
X40410000Y-43340000D02*
X42375000Y-45305000D01*
X40410000Y-30810000D02*
X40410000Y-43340000D01*
X37250000Y-27650000D02*
X40410000Y-30810000D01*
D33*
%TO.N,/SW*%
X71475000Y-57800000D02*
X71325000Y-57950000D01*
X73200000Y-57800000D02*
X71475000Y-57800000D01*
X39625000Y-93600000D02*
X39625000Y-92375000D01*
X39625000Y-92375000D02*
X41000000Y-91000000D01*
%TO.N,/B*%
X43400000Y-90900000D02*
X42165000Y-92135000D01*
X42165000Y-92135000D02*
X42165000Y-93600000D01*
X71475000Y-55300000D02*
X71325000Y-55450000D01*
X73200000Y-55300000D02*
X71475000Y-55300000D01*
%TO.N,/PWM_1.2*%
X46475000Y-47400000D02*
X46475000Y-44335000D01*
X48080000Y-42800000D02*
X48045000Y-42765000D01*
X46475000Y-44335000D02*
X48045000Y-42765000D01*
X49785000Y-66300000D02*
X49785000Y-68200000D01*
X45775000Y-48100000D02*
X46475000Y-47400000D01*
X49220000Y-72200000D02*
X49220000Y-68765000D01*
X49220000Y-68765000D02*
X49785000Y-68200000D01*
%TD*%
%TA.AperFunction,Conductor*%
%TO.N,GND*%
G36*
X35110381Y-65748946D02*
G01*
X35140370Y-65771027D01*
X36187058Y-66817715D01*
X36192178Y-66823153D01*
X36232071Y-66868183D01*
X36281573Y-66902352D01*
X36287591Y-66906780D01*
X36334944Y-66943878D01*
X36342083Y-66947091D01*
X36395138Y-66992552D01*
X36415194Y-67059481D01*
X36395881Y-67126629D01*
X36385401Y-67137593D01*
X36384656Y-67146103D01*
X36943634Y-67705081D01*
X36939839Y-67705627D01*
X36806438Y-67766549D01*
X36695605Y-67862587D01*
X36616318Y-67985960D01*
X36593866Y-68062419D01*
X36031104Y-67499657D01*
X35985293Y-67565084D01*
X35927657Y-67688683D01*
X35881484Y-67741122D01*
X35814290Y-67760274D01*
X35747409Y-67740058D01*
X35702893Y-67688682D01*
X35645142Y-67564833D01*
X35518132Y-67383445D01*
X35361555Y-67226868D01*
X35180167Y-67099858D01*
X35165730Y-67093126D01*
X34979486Y-67006279D01*
X34979475Y-67006275D01*
X34765592Y-66948965D01*
X34765585Y-66948964D01*
X34545002Y-66929666D01*
X34544998Y-66929666D01*
X34324414Y-66948964D01*
X34324407Y-66948965D01*
X34110524Y-67006275D01*
X34110513Y-67006279D01*
X33909836Y-67099856D01*
X33909834Y-67099857D01*
X33728444Y-67226868D01*
X33571868Y-67383444D01*
X33444857Y-67564834D01*
X33444856Y-67564836D01*
X33387382Y-67688091D01*
X33341210Y-67740531D01*
X33274017Y-67759683D01*
X33207135Y-67739467D01*
X33162618Y-67688091D01*
X33134050Y-67626828D01*
X33105142Y-67564833D01*
X32978132Y-67383445D01*
X32957965Y-67363278D01*
X32924480Y-67301955D01*
X32929464Y-67232263D01*
X32971336Y-67176330D01*
X32994746Y-67162526D01*
X33024801Y-67148999D01*
X33031678Y-67146150D01*
X33087930Y-67124818D01*
X33096266Y-67119062D01*
X33115821Y-67108034D01*
X33125057Y-67103878D01*
X33172413Y-67066775D01*
X33178404Y-67062366D01*
X33227929Y-67028183D01*
X33267822Y-66983151D01*
X33272924Y-66977731D01*
X34479630Y-65771025D01*
X34540951Y-65737542D01*
X34578117Y-65735180D01*
X34583303Y-65735633D01*
X34583308Y-65735635D01*
X34788263Y-65753566D01*
X34809999Y-65755468D01*
X34810000Y-65755468D01*
X34810001Y-65755468D01*
X34828304Y-65753866D01*
X35036692Y-65735635D01*
X35036697Y-65735633D01*
X35041881Y-65735180D01*
X35110381Y-65748946D01*
G37*
%TD.AperFunction*%
%TA.AperFunction,Conductor*%
G36*
X38762490Y-67060185D02*
G01*
X38808245Y-67112989D01*
X38818189Y-67182147D01*
X38789164Y-67245703D01*
X38783132Y-67252181D01*
X38651871Y-67383441D01*
X38651868Y-67383444D01*
X38524857Y-67564833D01*
X38467106Y-67688683D01*
X38420934Y-67741122D01*
X38353740Y-67760274D01*
X38286859Y-67740058D01*
X38242342Y-67688683D01*
X38184707Y-67565085D01*
X38184706Y-67565083D01*
X38138894Y-67499657D01*
X38138894Y-67499656D01*
X37576132Y-68062418D01*
X37553682Y-67985960D01*
X37474395Y-67862587D01*
X37363562Y-67766549D01*
X37230161Y-67705627D01*
X37226366Y-67705081D01*
X37795884Y-67135562D01*
X37801663Y-67106809D01*
X37850277Y-67056625D01*
X37911425Y-67040500D01*
X38695451Y-67040500D01*
X38762490Y-67060185D01*
G37*
%TD.AperFunction*%
%TA.AperFunction,Conductor*%
G36*
X74174427Y-20000631D02*
G01*
X74340540Y-20008310D01*
X74541640Y-20018202D01*
X74552641Y-20019238D01*
X74731831Y-20044233D01*
X74731991Y-20044256D01*
X74919155Y-20072019D01*
X74929297Y-20073960D01*
X75108218Y-20116041D01*
X75109956Y-20116463D01*
X75203114Y-20139796D01*
X75289755Y-20161498D01*
X75299003Y-20164202D01*
X75474744Y-20223103D01*
X75476976Y-20223876D01*
X75650149Y-20285837D01*
X75658425Y-20289140D01*
X75828698Y-20364322D01*
X75831516Y-20365610D01*
X75997038Y-20443896D01*
X76004348Y-20447655D01*
X76167283Y-20538407D01*
X76170641Y-20540348D01*
X76327339Y-20634269D01*
X76333613Y-20638292D01*
X76487712Y-20743852D01*
X76491456Y-20746522D01*
X76637956Y-20855173D01*
X76643288Y-20859359D01*
X76787071Y-20978755D01*
X76791112Y-20982260D01*
X76926194Y-21104690D01*
X76930557Y-21108845D01*
X76970946Y-21149234D01*
X77062710Y-21240998D01*
X77066906Y-21245405D01*
X77189336Y-21380484D01*
X77192848Y-21384532D01*
X77219682Y-21416846D01*
X77312211Y-21528275D01*
X77316400Y-21533610D01*
X77425061Y-21680121D01*
X77427745Y-21683886D01*
X77533279Y-21837946D01*
X77537337Y-21844274D01*
X77631212Y-22000893D01*
X77633183Y-22004303D01*
X77723926Y-22167216D01*
X77727692Y-22174538D01*
X77805951Y-22340002D01*
X77807291Y-22342933D01*
X77882447Y-22513146D01*
X77885763Y-22521458D01*
X77947672Y-22694482D01*
X77948493Y-22696849D01*
X78007384Y-22872554D01*
X78010096Y-22881831D01*
X78055123Y-23061585D01*
X78055545Y-23063325D01*
X78097628Y-23242253D01*
X78099580Y-23252449D01*
X78127281Y-23439197D01*
X78127434Y-23440259D01*
X78152352Y-23618882D01*
X78153392Y-23629930D01*
X78163543Y-23836558D01*
X78163560Y-23836915D01*
X78170941Y-23996564D01*
X78171073Y-24002291D01*
X78171073Y-92168701D01*
X78170941Y-92174427D01*
X78163425Y-92337013D01*
X78163103Y-92343968D01*
X78163086Y-92344327D01*
X78153407Y-92541341D01*
X78152367Y-92552388D01*
X78126973Y-92734421D01*
X78126820Y-92735483D01*
X78099628Y-92918800D01*
X78097676Y-92928996D01*
X78055088Y-93110071D01*
X78054666Y-93111811D01*
X78010180Y-93289407D01*
X78007468Y-93298683D01*
X77948055Y-93475948D01*
X77947234Y-93478317D01*
X77885882Y-93649783D01*
X77882566Y-93658094D01*
X77806863Y-93829546D01*
X77805522Y-93832477D01*
X77727857Y-93996684D01*
X77724092Y-94004006D01*
X77632765Y-94167969D01*
X77630795Y-94171378D01*
X77537558Y-94326936D01*
X77533498Y-94333265D01*
X77427334Y-94488244D01*
X77424633Y-94492033D01*
X77316703Y-94637561D01*
X77312502Y-94642912D01*
X77192422Y-94787519D01*
X77188903Y-94791576D01*
X77067289Y-94925755D01*
X77063092Y-94930162D01*
X76930162Y-95063092D01*
X76925755Y-95067289D01*
X76791576Y-95188903D01*
X76787519Y-95192422D01*
X76642912Y-95312502D01*
X76637561Y-95316703D01*
X76492033Y-95424633D01*
X76488244Y-95427334D01*
X76333265Y-95533498D01*
X76326936Y-95537558D01*
X76171378Y-95630795D01*
X76167969Y-95632765D01*
X76004006Y-95724092D01*
X75996684Y-95727857D01*
X75832477Y-95805522D01*
X75829546Y-95806863D01*
X75658094Y-95882566D01*
X75649783Y-95885882D01*
X75478317Y-95947234D01*
X75475948Y-95948055D01*
X75298683Y-96007468D01*
X75289407Y-96010180D01*
X75111811Y-96054666D01*
X75110071Y-96055088D01*
X74928996Y-96097676D01*
X74918800Y-96099628D01*
X74735483Y-96126820D01*
X74734421Y-96126973D01*
X74552388Y-96152367D01*
X74541340Y-96153407D01*
X74344496Y-96163077D01*
X74344139Y-96163094D01*
X74174428Y-96170941D01*
X74168701Y-96171073D01*
X24831299Y-96171073D01*
X24825572Y-96170941D01*
X24655858Y-96163094D01*
X24655501Y-96163077D01*
X24458658Y-96153407D01*
X24447610Y-96152367D01*
X24265577Y-96126973D01*
X24264515Y-96126820D01*
X24081198Y-96099628D01*
X24071002Y-96097676D01*
X23889927Y-96055088D01*
X23888187Y-96054666D01*
X23710591Y-96010180D01*
X23701315Y-96007468D01*
X23524050Y-95948055D01*
X23521681Y-95947234D01*
X23350215Y-95885882D01*
X23341904Y-95882566D01*
X23234435Y-95835114D01*
X23170437Y-95806856D01*
X23167521Y-95805522D01*
X23003314Y-95727857D01*
X22995992Y-95724092D01*
X22832029Y-95632765D01*
X22828620Y-95630795D01*
X22673062Y-95537558D01*
X22666733Y-95533498D01*
X22511754Y-95427334D01*
X22507965Y-95424633D01*
X22362437Y-95316703D01*
X22357106Y-95312517D01*
X22212453Y-95192399D01*
X22208473Y-95188947D01*
X22074223Y-95067270D01*
X22069836Y-95063092D01*
X21936906Y-94930162D01*
X21932731Y-94925778D01*
X21811046Y-94791519D01*
X21807606Y-94787554D01*
X21687474Y-94642884D01*
X21683305Y-94637574D01*
X21630193Y-94565961D01*
X21575365Y-94492033D01*
X21572664Y-94488244D01*
X21536064Y-94434815D01*
X21466491Y-94333251D01*
X21462449Y-94326950D01*
X21369202Y-94171376D01*
X21367233Y-94167969D01*
X21335678Y-94111317D01*
X21275901Y-94003997D01*
X21272141Y-93996684D01*
X21222412Y-93891544D01*
X21194466Y-93832456D01*
X21193173Y-93829631D01*
X21117424Y-93658074D01*
X21114124Y-93649803D01*
X21052734Y-93478230D01*
X21051972Y-93476033D01*
X20992524Y-93298665D01*
X20989824Y-93289427D01*
X20945294Y-93111655D01*
X20944951Y-93110244D01*
X20902317Y-92928974D01*
X20900374Y-92918823D01*
X20873163Y-92735382D01*
X20873025Y-92734421D01*
X20871805Y-92725675D01*
X20847628Y-92552357D01*
X20846593Y-92541371D01*
X20836928Y-92344638D01*
X20829059Y-92174427D01*
X20828927Y-92168702D01*
X20828927Y-74067763D01*
X26145787Y-74067763D01*
X26175413Y-74337013D01*
X26175415Y-74337024D01*
X26243926Y-74599082D01*
X26243928Y-74599088D01*
X26349870Y-74848390D01*
X26490979Y-75079605D01*
X26490986Y-75079615D01*
X26664253Y-75287819D01*
X26664259Y-75287824D01*
X26745774Y-75360861D01*
X26865998Y-75468582D01*
X27091910Y-75618044D01*
X27337176Y-75733020D01*
X27337183Y-75733022D01*
X27337185Y-75733023D01*
X27596557Y-75811057D01*
X27596564Y-75811058D01*
X27596569Y-75811060D01*
X27864561Y-75850500D01*
X27864566Y-75850500D01*
X28067629Y-75850500D01*
X28067631Y-75850500D01*
X28067636Y-75850499D01*
X28067648Y-75850499D01*
X28105191Y-75847750D01*
X28270156Y-75835677D01*
X28382758Y-75810593D01*
X28534546Y-75776782D01*
X28534548Y-75776781D01*
X28534553Y-75776780D01*
X28787558Y-75680014D01*
X29023777Y-75547441D01*
X29238177Y-75381888D01*
X29426186Y-75186881D01*
X29583799Y-74966579D01*
X29671836Y-74795345D01*
X29707649Y-74725690D01*
X29707651Y-74725684D01*
X29707656Y-74725675D01*
X29795118Y-74469305D01*
X29844319Y-74202933D01*
X29854212Y-73932235D01*
X29824586Y-73662982D01*
X29756072Y-73400912D01*
X29650130Y-73151610D01*
X29509018Y-72920390D01*
X29506794Y-72917718D01*
X29335746Y-72712180D01*
X29335740Y-72712175D01*
X29134002Y-72531418D01*
X28908092Y-72381957D01*
X28908090Y-72381956D01*
X28662824Y-72266980D01*
X28662819Y-72266978D01*
X28662814Y-72266976D01*
X28403442Y-72188942D01*
X28403428Y-72188939D01*
X28287791Y-72171921D01*
X28135439Y-72149500D01*
X27932369Y-72149500D01*
X27932351Y-72149500D01*
X27729844Y-72164323D01*
X27729831Y-72164325D01*
X27465453Y-72223217D01*
X27465446Y-72223220D01*
X27212439Y-72319987D01*
X26976226Y-72452557D01*
X26761822Y-72618112D01*
X26573822Y-72813109D01*
X26573816Y-72813116D01*
X26416202Y-73033419D01*
X26416199Y-73033424D01*
X26292350Y-73274309D01*
X26292343Y-73274327D01*
X26204884Y-73530685D01*
X26204881Y-73530699D01*
X26155681Y-73797068D01*
X26155680Y-73797075D01*
X26145787Y-74067763D01*
X20828927Y-74067763D01*
X20828927Y-57956506D01*
X27312696Y-57956506D01*
X27312697Y-57956510D01*
X27343009Y-58180281D01*
X27343010Y-58180284D01*
X27412789Y-58395044D01*
X27519794Y-58593891D01*
X27519796Y-58593894D01*
X27660586Y-58770439D01*
X27660588Y-58770440D01*
X27660589Y-58770442D01*
X27718916Y-58821401D01*
X27830639Y-58919011D01*
X27830640Y-58919012D01*
X27830643Y-58919014D01*
X28024493Y-59034834D01*
X28207694Y-59103591D01*
X28235908Y-59114180D01*
X28458090Y-59154500D01*
X28458093Y-59154500D01*
X30135337Y-59154500D01*
X30135343Y-59154500D01*
X30293443Y-59140270D01*
X30303906Y-59139329D01*
X30521570Y-59079258D01*
X30521575Y-59079255D01*
X30521582Y-59079254D01*
X30725033Y-58981277D01*
X30907721Y-58848547D01*
X31063772Y-58685330D01*
X31188173Y-58496871D01*
X31276923Y-58289229D01*
X31327172Y-58069076D01*
X31337303Y-57843490D01*
X31306991Y-57619719D01*
X31237211Y-57404957D01*
X31130204Y-57206106D01*
X31028520Y-57078599D01*
X30989413Y-57029560D01*
X30973718Y-57015848D01*
X30885596Y-56938857D01*
X30819360Y-56880988D01*
X30819357Y-56880986D01*
X30625507Y-56765166D01*
X30507154Y-56720747D01*
X30414091Y-56685819D01*
X30191910Y-56645500D01*
X30191907Y-56645500D01*
X28514657Y-56645500D01*
X28483271Y-56648324D01*
X28346093Y-56660670D01*
X28128429Y-56720741D01*
X28128414Y-56720747D01*
X27924973Y-56818719D01*
X27924965Y-56818723D01*
X27742284Y-56951448D01*
X27742282Y-56951449D01*
X27586226Y-57114671D01*
X27461828Y-57303125D01*
X27418305Y-57404955D01*
X27383522Y-57486335D01*
X27373077Y-57510772D01*
X27373075Y-57510778D01*
X27322828Y-57730922D01*
X27322828Y-57730926D01*
X27312696Y-57956506D01*
X20828927Y-57956506D01*
X20828927Y-54010316D01*
X25071000Y-54010316D01*
X25086164Y-54178816D01*
X25146211Y-54396393D01*
X25146217Y-54396408D01*
X25244150Y-54599769D01*
X25244154Y-54599777D01*
X25376826Y-54782384D01*
X25376833Y-54782392D01*
X25539981Y-54938378D01*
X25728363Y-55062729D01*
X25935929Y-55151446D01*
X25935932Y-55151447D01*
X26074999Y-55183188D01*
X26075000Y-55183188D01*
X26075000Y-53933686D01*
X26115156Y-53959493D01*
X26253111Y-54000000D01*
X26396889Y-54000000D01*
X26534844Y-53959493D01*
X26575000Y-53933686D01*
X26575000Y-55185587D01*
X26605165Y-55181503D01*
X26819845Y-55111749D01*
X27018614Y-55004786D01*
X27018623Y-55004780D01*
X27195087Y-54864055D01*
X27195102Y-54864041D01*
X27343607Y-54694062D01*
X27343608Y-54694060D01*
X27459378Y-54500296D01*
X27459380Y-54500291D01*
X27538696Y-54288958D01*
X27579000Y-54066864D01*
X27579000Y-53450000D01*
X26825000Y-53450000D01*
X26825000Y-52950000D01*
X27579000Y-52950000D01*
X27579000Y-52389685D01*
X27578999Y-52389683D01*
X27563835Y-52221183D01*
X27503788Y-52003606D01*
X27503782Y-52003591D01*
X27405849Y-51800230D01*
X27405845Y-51800222D01*
X27273173Y-51617615D01*
X27273166Y-51617607D01*
X27110018Y-51461621D01*
X26921636Y-51337270D01*
X26714072Y-51248554D01*
X26714066Y-51248552D01*
X26575000Y-51216811D01*
X26575000Y-52466313D01*
X26534844Y-52440507D01*
X26396889Y-52400000D01*
X26253111Y-52400000D01*
X26115156Y-52440507D01*
X26075000Y-52466313D01*
X26075000Y-51214411D01*
X26044828Y-51218498D01*
X26044825Y-51218499D01*
X25830154Y-51288250D01*
X25631385Y-51395213D01*
X25631376Y-51395219D01*
X25454912Y-51535944D01*
X25454897Y-51535958D01*
X25306392Y-51705937D01*
X25306391Y-51705939D01*
X25190621Y-51899703D01*
X25190619Y-51899708D01*
X25111303Y-52111041D01*
X25071000Y-52333135D01*
X25071000Y-52950000D01*
X25825000Y-52950000D01*
X25825000Y-53450000D01*
X25071000Y-53450000D01*
X25071000Y-54010316D01*
X20828927Y-54010316D01*
X20828927Y-37902605D01*
X21525642Y-37902605D01*
X21536483Y-37961770D01*
X21537610Y-37969171D01*
X21544859Y-38028871D01*
X21544860Y-38028874D01*
X21548451Y-38038343D01*
X21554474Y-38059946D01*
X21556304Y-38069930D01*
X21556305Y-38069932D01*
X21572288Y-38105446D01*
X21580991Y-38124782D01*
X21583854Y-38131694D01*
X21605182Y-38187930D01*
X21609826Y-38194657D01*
X21610936Y-38196266D01*
X21621961Y-38215813D01*
X21626120Y-38225055D01*
X21626124Y-38225060D01*
X21663215Y-38272403D01*
X21667655Y-38278438D01*
X21701812Y-38327924D01*
X21701816Y-38327929D01*
X21746828Y-38367805D01*
X21752283Y-38372940D01*
X23223086Y-39843743D01*
X23256571Y-39905066D01*
X23255611Y-39961863D01*
X23245981Y-39999890D01*
X23227329Y-40224994D01*
X23227329Y-40225005D01*
X23245981Y-40450107D01*
X23301433Y-40669082D01*
X23392168Y-40875938D01*
X23515715Y-41065042D01*
X23668698Y-41231224D01*
X23668702Y-41231228D01*
X23711560Y-41264586D01*
X23846958Y-41369970D01*
X23846965Y-41369974D01*
X23876478Y-41385946D01*
X23926068Y-41435165D01*
X23941176Y-41503382D01*
X23917005Y-41568937D01*
X23876478Y-41604054D01*
X23846965Y-41620025D01*
X23846958Y-41620029D01*
X23668701Y-41758772D01*
X23668698Y-41758775D01*
X23515715Y-41924957D01*
X23392168Y-42114061D01*
X23301433Y-42320917D01*
X23245981Y-42539892D01*
X23227329Y-42764994D01*
X23227329Y-42765005D01*
X23245981Y-42990107D01*
X23301433Y-43209082D01*
X23392168Y-43415938D01*
X23515715Y-43605042D01*
X23668698Y-43771224D01*
X23668702Y-43771228D01*
X23800743Y-43874000D01*
X23846958Y-43909970D01*
X23846960Y-43909971D01*
X23877001Y-43926228D01*
X23926592Y-43975447D01*
X23941700Y-44043663D01*
X23917530Y-44109219D01*
X23877005Y-44144336D01*
X23847226Y-44160452D01*
X23822922Y-44179368D01*
X23822922Y-44179370D01*
X24404913Y-44761360D01*
X24305019Y-44802738D01*
X24184905Y-44894905D01*
X24092738Y-45015019D01*
X24051360Y-45114913D01*
X23470905Y-44534458D01*
X23392609Y-44654299D01*
X23301907Y-44861079D01*
X23246476Y-45079970D01*
X23246474Y-45079978D01*
X23227830Y-45304993D01*
X23227830Y-45305006D01*
X23246474Y-45530021D01*
X23246476Y-45530029D01*
X23301907Y-45748920D01*
X23392609Y-45955700D01*
X23470904Y-46075540D01*
X24051360Y-45495085D01*
X24092738Y-45594981D01*
X24184905Y-45715095D01*
X24305019Y-45807262D01*
X24404913Y-45848639D01*
X23822922Y-46430629D01*
X23847230Y-46449549D01*
X24045812Y-46557017D01*
X24045818Y-46557019D01*
X24259377Y-46630334D01*
X24482100Y-46667500D01*
X24707900Y-46667500D01*
X24930622Y-46630334D01*
X25144181Y-46557019D01*
X25144187Y-46557017D01*
X25342770Y-46449548D01*
X25367076Y-46430629D01*
X24785086Y-45848639D01*
X24884981Y-45807262D01*
X25005095Y-45715095D01*
X25097262Y-45594981D01*
X25138639Y-45495087D01*
X25719093Y-46075541D01*
X25797389Y-45955702D01*
X25888092Y-45748920D01*
X25943523Y-45530029D01*
X25943525Y-45530021D01*
X25962170Y-45305006D01*
X25962170Y-45304993D01*
X25943525Y-45079978D01*
X25943523Y-45079970D01*
X25888092Y-44861079D01*
X25797391Y-44654302D01*
X25719093Y-44534457D01*
X25138638Y-45114912D01*
X25097262Y-45015019D01*
X25005095Y-44894905D01*
X24884981Y-44802738D01*
X24785086Y-44761360D01*
X25367076Y-44179369D01*
X25367076Y-44179367D01*
X25342779Y-44160456D01*
X25342768Y-44160449D01*
X25312996Y-44144337D01*
X25263406Y-44095117D01*
X25248299Y-44026901D01*
X25272470Y-43961345D01*
X25312998Y-43926228D01*
X25343045Y-43909968D01*
X25521298Y-43771228D01*
X25674285Y-43605041D01*
X25716352Y-43540652D01*
X25728748Y-43521679D01*
X25781894Y-43476322D01*
X25832557Y-43465500D01*
X25923481Y-43465500D01*
X25990520Y-43485185D01*
X26011162Y-43501819D01*
X26873495Y-44364152D01*
X26906980Y-44425475D01*
X26909134Y-44438869D01*
X26914325Y-44488249D01*
X26914327Y-44488260D01*
X26972818Y-44668277D01*
X26972821Y-44668284D01*
X27067467Y-44832216D01*
X27194129Y-44972888D01*
X27347265Y-45084148D01*
X27347270Y-45084151D01*
X27520192Y-45161142D01*
X27520197Y-45161144D01*
X27705354Y-45200500D01*
X27705355Y-45200500D01*
X27894644Y-45200500D01*
X27894646Y-45200500D01*
X28079803Y-45161144D01*
X28252730Y-45084151D01*
X28405871Y-44972888D01*
X28532533Y-44832216D01*
X28627179Y-44668284D01*
X28685674Y-44488256D01*
X28705460Y-44300000D01*
X28685674Y-44111744D01*
X28627179Y-43931716D01*
X28532533Y-43767784D01*
X28405871Y-43627112D01*
X28405870Y-43627111D01*
X28252734Y-43515851D01*
X28252729Y-43515848D01*
X28079807Y-43438857D01*
X28079802Y-43438855D01*
X27943490Y-43409882D01*
X27924872Y-43405924D01*
X27863391Y-43372733D01*
X27862973Y-43372316D01*
X26777940Y-42287283D01*
X26772805Y-42281828D01*
X26732929Y-42236816D01*
X26732924Y-42236812D01*
X26683438Y-42202655D01*
X26677403Y-42198215D01*
X26630060Y-42161124D01*
X26630055Y-42161120D01*
X26620813Y-42156961D01*
X26601266Y-42145936D01*
X26592931Y-42140183D01*
X26592932Y-42140183D01*
X26592930Y-42140182D01*
X26536694Y-42118854D01*
X26529790Y-42115994D01*
X26474932Y-42091305D01*
X26474930Y-42091304D01*
X26464946Y-42089474D01*
X26443343Y-42083451D01*
X26433874Y-42079860D01*
X26433871Y-42079859D01*
X26374171Y-42072610D01*
X26366770Y-42071483D01*
X26307609Y-42060642D01*
X26307603Y-42060642D01*
X26247567Y-42064274D01*
X26240079Y-42064500D01*
X25832557Y-42064500D01*
X25765518Y-42044815D01*
X25728748Y-42008321D01*
X25674284Y-41924957D01*
X25521301Y-41758775D01*
X25521298Y-41758772D01*
X25343041Y-41620029D01*
X25343039Y-41620028D01*
X25313522Y-41604055D01*
X25263931Y-41554836D01*
X25248823Y-41486620D01*
X25272993Y-41421064D01*
X25313522Y-41385945D01*
X25343045Y-41369968D01*
X25521298Y-41231228D01*
X25674285Y-41065041D01*
X25797831Y-40875939D01*
X25888567Y-40669082D01*
X25944018Y-40450111D01*
X25958735Y-40272500D01*
X25962671Y-40225005D01*
X25962671Y-40224995D01*
X25959029Y-40181048D01*
X25973109Y-40112612D01*
X26021954Y-40062652D01*
X26090055Y-40047031D01*
X26155791Y-40070708D01*
X26170286Y-40083126D01*
X34613181Y-48526021D01*
X34646666Y-48587344D01*
X34649500Y-48613702D01*
X34649500Y-48754000D01*
X34629815Y-48821039D01*
X34619792Y-48834530D01*
X34601164Y-48856340D01*
X34601158Y-48856349D01*
X34469533Y-49071141D01*
X34469531Y-49071144D01*
X34373128Y-49303884D01*
X34373125Y-49303894D01*
X34356170Y-49374514D01*
X34323278Y-49433246D01*
X32594431Y-51162093D01*
X32533108Y-51195578D01*
X32499691Y-51196915D01*
X32499639Y-51198078D01*
X32494076Y-51197828D01*
X32469934Y-51196743D01*
X32268493Y-51187696D01*
X32142193Y-51204805D01*
X32044719Y-51218009D01*
X32044716Y-51218009D01*
X32044715Y-51218010D01*
X31829955Y-51287789D01*
X31631108Y-51394794D01*
X31631105Y-51394796D01*
X31454560Y-51535586D01*
X31305988Y-51705639D01*
X31190166Y-51899493D01*
X31110819Y-52110908D01*
X31070500Y-52333090D01*
X31070500Y-54010339D01*
X31085670Y-54178906D01*
X31145741Y-54396570D01*
X31145747Y-54396585D01*
X31243719Y-54600026D01*
X31243723Y-54600034D01*
X31376448Y-54782715D01*
X31376449Y-54782717D01*
X31539671Y-54938773D01*
X31728125Y-55063171D01*
X31728127Y-55063172D01*
X31728129Y-55063173D01*
X31935771Y-55151923D01*
X32155924Y-55202172D01*
X32347153Y-55210760D01*
X32381506Y-55212303D01*
X32381506Y-55212302D01*
X32381510Y-55212303D01*
X32605281Y-55181991D01*
X32820043Y-55112211D01*
X33018894Y-55005204D01*
X33195442Y-54864411D01*
X33344014Y-54694357D01*
X33459834Y-54500507D01*
X33539180Y-54289092D01*
X33555348Y-54200000D01*
X33579500Y-54066909D01*
X33579500Y-53765336D01*
X33599185Y-53698297D01*
X33615819Y-53677655D01*
X34694128Y-52599346D01*
X35854656Y-51438817D01*
X35915977Y-51405334D01*
X35932594Y-51402883D01*
X36151148Y-51385683D01*
X36396111Y-51326873D01*
X36628859Y-51230466D01*
X36843659Y-51098836D01*
X37035224Y-50935224D01*
X37198836Y-50743659D01*
X37330466Y-50528859D01*
X37426873Y-50296111D01*
X37485683Y-50051148D01*
X37487933Y-50022555D01*
X37512816Y-49957267D01*
X37523862Y-49944610D01*
X38826655Y-48641819D01*
X38887978Y-48608334D01*
X38914336Y-48605500D01*
X40050500Y-48605500D01*
X40117539Y-48625185D01*
X40163294Y-48677989D01*
X40174500Y-48729500D01*
X40174500Y-50747870D01*
X40174501Y-50747876D01*
X40180908Y-50807483D01*
X40231202Y-50942328D01*
X40231203Y-50942329D01*
X40231204Y-50942331D01*
X40317454Y-51057546D01*
X40372613Y-51098838D01*
X40374810Y-51100482D01*
X40416682Y-51156415D01*
X40424500Y-51199749D01*
X40424500Y-54380663D01*
X40404815Y-54447702D01*
X40388181Y-54468344D01*
X36533343Y-58323181D01*
X36472020Y-58356666D01*
X36445662Y-58359500D01*
X34752129Y-58359500D01*
X34752123Y-58359501D01*
X34692516Y-58365908D01*
X34557671Y-58416202D01*
X34557664Y-58416206D01*
X34442455Y-58502452D01*
X34442452Y-58502455D01*
X34356206Y-58617664D01*
X34356202Y-58617671D01*
X34305908Y-58752517D01*
X34299501Y-58812116D01*
X34299500Y-58812135D01*
X34299500Y-61107870D01*
X34299501Y-61107876D01*
X34305908Y-61167483D01*
X34356202Y-61302328D01*
X34356206Y-61302335D01*
X34442452Y-61417544D01*
X34442455Y-61417547D01*
X34557664Y-61503793D01*
X34557671Y-61503797D01*
X34692517Y-61554091D01*
X34692516Y-61554091D01*
X34699444Y-61554835D01*
X34752127Y-61560500D01*
X37047872Y-61560499D01*
X37107483Y-61554091D01*
X37242331Y-61503796D01*
X37357546Y-61417546D01*
X37443796Y-61302331D01*
X37494091Y-61167483D01*
X37500500Y-61107873D01*
X37500499Y-60945406D01*
X37520183Y-60878367D01*
X37534868Y-60859719D01*
X37558239Y-60835275D01*
X37560094Y-60833378D01*
X42504666Y-55888806D01*
X42515016Y-55879557D01*
X42542666Y-55857508D01*
X42586267Y-55807601D01*
X42591957Y-55801516D01*
X42598945Y-55794529D01*
X42625124Y-55763169D01*
X42626824Y-55761179D01*
X42690765Y-55687996D01*
X42693006Y-55684243D01*
X42704274Y-55668364D01*
X42707068Y-55665019D01*
X42755029Y-55580491D01*
X42756375Y-55578182D01*
X42761895Y-55568941D01*
X42806215Y-55494764D01*
X42807747Y-55490679D01*
X42816003Y-55473033D01*
X42818153Y-55469245D01*
X42850251Y-55377512D01*
X42851141Y-55375055D01*
X42885307Y-55284024D01*
X42886085Y-55279734D01*
X42891055Y-55260904D01*
X42892498Y-55256782D01*
X42892499Y-55256777D01*
X42907696Y-55160825D01*
X42908154Y-55158124D01*
X42918470Y-55101281D01*
X42925500Y-55062549D01*
X42925500Y-55058169D01*
X42927027Y-55038770D01*
X42927710Y-55034460D01*
X42925531Y-54937359D01*
X42925500Y-54934577D01*
X42925500Y-51199749D01*
X42945185Y-51132710D01*
X42975190Y-51100482D01*
X42977385Y-51098839D01*
X43032546Y-51057546D01*
X43059227Y-51021903D01*
X43075485Y-51000188D01*
X43131419Y-50958318D01*
X43174751Y-50950500D01*
X46147411Y-50950500D01*
X46214450Y-50970185D01*
X46218534Y-50972925D01*
X46372262Y-51080566D01*
X46372264Y-51080566D01*
X46372266Y-51080568D01*
X46379563Y-51083970D01*
X46380233Y-51084283D01*
X46415511Y-51108985D01*
X48628181Y-53321655D01*
X48661666Y-53382978D01*
X48664500Y-53409336D01*
X48664500Y-56256151D01*
X48679622Y-56424185D01*
X48679623Y-56424188D01*
X48686032Y-56447411D01*
X48690500Y-56480398D01*
X48690500Y-56971870D01*
X48690501Y-56971876D01*
X48696908Y-57031483D01*
X48747202Y-57166328D01*
X48747206Y-57166335D01*
X48833452Y-57281544D01*
X48833455Y-57281547D01*
X48948664Y-57367793D01*
X48948671Y-57367797D01*
X48993618Y-57384561D01*
X49083517Y-57418091D01*
X49143127Y-57424500D01*
X49280543Y-57424499D01*
X49347581Y-57444183D01*
X49393336Y-57496987D01*
X49403280Y-57566145D01*
X49374256Y-57629701D01*
X49332949Y-57660880D01*
X49300663Y-57675935D01*
X49244096Y-57715543D01*
X49808965Y-58280412D01*
X49781224Y-58284401D01*
X49658286Y-58340545D01*
X49556145Y-58429051D01*
X49483077Y-58542747D01*
X49456092Y-58634645D01*
X48890543Y-58069096D01*
X48850936Y-58125663D01*
X48760424Y-58319766D01*
X48760420Y-58319775D01*
X48704992Y-58526637D01*
X48704990Y-58526648D01*
X48686325Y-58739997D01*
X48686325Y-58740002D01*
X48704990Y-58953351D01*
X48704992Y-58953362D01*
X48760420Y-59160224D01*
X48760424Y-59160233D01*
X48850935Y-59354336D01*
X48850936Y-59354338D01*
X48890543Y-59410902D01*
X48890544Y-59410903D01*
X49456092Y-58845354D01*
X49483077Y-58937253D01*
X49556145Y-59050949D01*
X49658286Y-59139455D01*
X49781224Y-59195599D01*
X49808965Y-59199587D01*
X49244095Y-59764455D01*
X49300662Y-59804063D01*
X49499675Y-59896865D01*
X49498726Y-59898899D01*
X49547252Y-59934601D01*
X49572210Y-59999861D01*
X49557925Y-60068255D01*
X49508931Y-60118068D01*
X49499394Y-60122428D01*
X49499504Y-60122663D01*
X49300412Y-60215500D01*
X49183319Y-60297490D01*
X49124900Y-60338396D01*
X49124898Y-60338397D01*
X49124895Y-60338400D01*
X48973400Y-60489895D01*
X48850500Y-60665412D01*
X48772198Y-60833333D01*
X48762699Y-60853705D01*
X48759952Y-60859595D01*
X48759948Y-60859604D01*
X48704498Y-61066550D01*
X48704496Y-61066561D01*
X48685823Y-61279998D01*
X48685823Y-61280002D01*
X48699972Y-61441728D01*
X48686205Y-61510228D01*
X48664125Y-61540216D01*
X44601162Y-65603181D01*
X44539839Y-65636666D01*
X44513481Y-65639500D01*
X43082085Y-65639500D01*
X43015046Y-65619815D01*
X42969291Y-65567011D01*
X42959347Y-65497853D01*
X42978276Y-65447679D01*
X42998732Y-65416368D01*
X43098588Y-65188716D01*
X43159040Y-64950000D01*
X42108686Y-64950000D01*
X42134493Y-64909844D01*
X42175000Y-64771889D01*
X42175000Y-64628111D01*
X42134493Y-64490156D01*
X42108686Y-64450000D01*
X43159040Y-64450000D01*
X43098588Y-64211283D01*
X42998732Y-63983632D01*
X42862767Y-63775521D01*
X42694407Y-63592635D01*
X42694397Y-63592626D01*
X42498237Y-63439948D01*
X42498228Y-63439942D01*
X42279614Y-63321635D01*
X42279603Y-63321630D01*
X42044492Y-63240916D01*
X41925000Y-63220976D01*
X41925000Y-64264498D01*
X41817315Y-64215320D01*
X41710763Y-64200000D01*
X41639237Y-64200000D01*
X41532685Y-64215320D01*
X41425000Y-64264498D01*
X41425000Y-63220976D01*
X41424999Y-63220976D01*
X41305507Y-63240916D01*
X41070396Y-63321630D01*
X41070385Y-63321635D01*
X40851771Y-63439942D01*
X40851762Y-63439948D01*
X40655602Y-63592626D01*
X40655592Y-63592635D01*
X40487232Y-63775521D01*
X40351267Y-63983632D01*
X40251411Y-64211283D01*
X40190960Y-64450000D01*
X41241314Y-64450000D01*
X41215507Y-64490156D01*
X41175000Y-64628111D01*
X41175000Y-64771889D01*
X41215507Y-64909844D01*
X41241314Y-64950000D01*
X40190960Y-64950000D01*
X40251411Y-65188716D01*
X40351267Y-65416368D01*
X40371724Y-65447679D01*
X40391912Y-65514569D01*
X40372731Y-65581754D01*
X40320272Y-65627904D01*
X40267915Y-65639500D01*
X37041519Y-65639500D01*
X36974480Y-65619815D01*
X36953838Y-65603181D01*
X36131027Y-64780370D01*
X36097542Y-64719047D01*
X36095180Y-64681881D01*
X36095633Y-64676697D01*
X36095635Y-64676692D01*
X36115468Y-64450000D01*
X36095635Y-64223308D01*
X36036739Y-64003504D01*
X35940568Y-63797266D01*
X35810047Y-63610861D01*
X35810045Y-63610858D01*
X35649141Y-63449954D01*
X35462734Y-63319432D01*
X35462732Y-63319431D01*
X35256497Y-63223261D01*
X35256488Y-63223258D01*
X35036697Y-63164366D01*
X35036693Y-63164365D01*
X35036692Y-63164365D01*
X35036691Y-63164364D01*
X35036686Y-63164364D01*
X34810002Y-63144532D01*
X34809998Y-63144532D01*
X34583313Y-63164364D01*
X34583302Y-63164366D01*
X34363511Y-63223258D01*
X34363502Y-63223261D01*
X34157267Y-63319431D01*
X34157265Y-63319432D01*
X33970858Y-63449954D01*
X33809954Y-63610858D01*
X33679432Y-63797265D01*
X33679431Y-63797267D01*
X33583261Y-64003502D01*
X33583258Y-64003511D01*
X33524366Y-64223302D01*
X33524364Y-64223313D01*
X33504532Y-64449998D01*
X33504532Y-64450000D01*
X33524819Y-64681881D01*
X33511052Y-64750381D01*
X33488972Y-64780369D01*
X32506162Y-65763181D01*
X32444839Y-65796666D01*
X32418481Y-65799500D01*
X27923344Y-65799500D01*
X27856305Y-65779815D01*
X27810550Y-65727011D01*
X27800606Y-65657853D01*
X27829631Y-65594297D01*
X27852221Y-65573925D01*
X27858559Y-65569487D01*
X28029139Y-65450047D01*
X28190047Y-65289139D01*
X28320568Y-65102734D01*
X28416739Y-64896496D01*
X28475635Y-64676692D01*
X28495468Y-64450000D01*
X28475635Y-64223308D01*
X28416739Y-64003504D01*
X28320568Y-63797266D01*
X28190047Y-63610861D01*
X28190045Y-63610858D01*
X28029141Y-63449954D01*
X27842734Y-63319432D01*
X27842732Y-63319431D01*
X27636497Y-63223261D01*
X27636488Y-63223258D01*
X27416697Y-63164366D01*
X27416693Y-63164365D01*
X27416692Y-63164365D01*
X27416691Y-63164364D01*
X27416686Y-63164364D01*
X27190002Y-63144532D01*
X27189998Y-63144532D01*
X26963313Y-63164364D01*
X26963302Y-63164366D01*
X26743511Y-63223258D01*
X26743502Y-63223261D01*
X26537267Y-63319431D01*
X26537265Y-63319432D01*
X26350858Y-63449954D01*
X26189954Y-63610858D01*
X26129902Y-63696623D01*
X26075325Y-63740248D01*
X26028327Y-63749500D01*
X24631060Y-63749500D01*
X24564021Y-63729815D01*
X24518266Y-63677011D01*
X24508322Y-63607853D01*
X24537347Y-63544297D01*
X24556748Y-63526234D01*
X24582190Y-63507187D01*
X24668350Y-63392093D01*
X24668354Y-63392086D01*
X24718596Y-63257379D01*
X24718598Y-63257372D01*
X24724999Y-63197844D01*
X24725000Y-63197827D01*
X24725000Y-62500000D01*
X23700278Y-62500000D01*
X23748625Y-62416260D01*
X23778810Y-62284008D01*
X23768673Y-62148735D01*
X23719113Y-62022459D01*
X23701203Y-62000000D01*
X24725000Y-62000000D01*
X24725000Y-61302172D01*
X24724999Y-61302155D01*
X24718598Y-61242627D01*
X24718596Y-61242620D01*
X24668354Y-61107913D01*
X24668350Y-61107906D01*
X24582190Y-60992812D01*
X24582187Y-60992809D01*
X24467093Y-60906649D01*
X24467086Y-60906645D01*
X24332379Y-60856403D01*
X24332372Y-60856401D01*
X24272844Y-60850000D01*
X23575000Y-60850000D01*
X23575000Y-61875810D01*
X23522453Y-61839984D01*
X23392827Y-61800000D01*
X23291276Y-61800000D01*
X23190862Y-61815135D01*
X23075000Y-61870931D01*
X23075000Y-60850000D01*
X22377155Y-60850000D01*
X22317627Y-60856401D01*
X22317620Y-60856403D01*
X22182913Y-60906645D01*
X22182906Y-60906649D01*
X22067812Y-60992809D01*
X22067809Y-60992812D01*
X21981649Y-61107906D01*
X21981645Y-61107913D01*
X21931403Y-61242620D01*
X21931401Y-61242627D01*
X21925000Y-61302155D01*
X21925000Y-62000000D01*
X22949722Y-62000000D01*
X22901375Y-62083740D01*
X22871190Y-62215992D01*
X22881327Y-62351265D01*
X22930887Y-62477541D01*
X22948797Y-62500000D01*
X21925000Y-62500000D01*
X21925000Y-63197844D01*
X21931401Y-63257372D01*
X21931403Y-63257379D01*
X21981645Y-63392086D01*
X21981649Y-63392093D01*
X22067809Y-63507187D01*
X22067812Y-63507190D01*
X22182906Y-63593350D01*
X22182913Y-63593354D01*
X22263270Y-63623325D01*
X22319204Y-63665196D01*
X22343621Y-63730660D01*
X22328770Y-63798933D01*
X22311168Y-63823489D01*
X22216021Y-63926847D01*
X22216019Y-63926848D01*
X22216016Y-63926853D01*
X22089075Y-64121151D01*
X21995842Y-64333699D01*
X21938866Y-64558691D01*
X21938864Y-64558702D01*
X21919700Y-64789993D01*
X21919700Y-64790006D01*
X21938864Y-65021297D01*
X21938866Y-65021308D01*
X21995842Y-65246300D01*
X22089075Y-65458848D01*
X22216016Y-65653147D01*
X22216019Y-65653151D01*
X22216021Y-65653153D01*
X22373216Y-65823913D01*
X22373219Y-65823915D01*
X22373222Y-65823918D01*
X22556365Y-65966464D01*
X22556371Y-65966468D01*
X22556374Y-65966470D01*
X22760497Y-66076936D01*
X22861875Y-66111739D01*
X22980015Y-66152297D01*
X22980017Y-66152297D01*
X22980019Y-66152298D01*
X23208951Y-66190500D01*
X23208952Y-66190500D01*
X23441048Y-66190500D01*
X23441049Y-66190500D01*
X23669981Y-66152298D01*
X23889503Y-66076936D01*
X24093626Y-65966470D01*
X24276784Y-65823913D01*
X24433979Y-65653153D01*
X24444751Y-65636666D01*
X24466627Y-65603181D01*
X24560924Y-65458849D01*
X24654157Y-65246300D01*
X24654723Y-65244065D01*
X24655204Y-65243249D01*
X24655824Y-65241446D01*
X24656194Y-65241573D01*
X24690260Y-65183908D01*
X24752679Y-65152513D01*
X24774930Y-65150500D01*
X26028327Y-65150500D01*
X26095366Y-65170185D01*
X26129902Y-65203377D01*
X26189954Y-65289141D01*
X26350858Y-65450045D01*
X26383626Y-65472989D01*
X26517904Y-65567011D01*
X26527779Y-65573925D01*
X26571404Y-65628501D01*
X26578598Y-65698000D01*
X26547076Y-65760355D01*
X26486846Y-65795769D01*
X26456656Y-65799500D01*
X25139921Y-65799500D01*
X25132433Y-65799274D01*
X25072396Y-65795642D01*
X25072388Y-65795642D01*
X25013227Y-65806483D01*
X25005827Y-65807610D01*
X24946128Y-65814860D01*
X24946121Y-65814861D01*
X24936647Y-65818454D01*
X24915049Y-65824475D01*
X24905068Y-65826305D01*
X24905063Y-65826306D01*
X24850212Y-65850992D01*
X24843296Y-65853857D01*
X24787070Y-65875181D01*
X24787066Y-65875184D01*
X24778723Y-65880942D01*
X24759188Y-65891960D01*
X24749948Y-65896119D01*
X24749938Y-65896124D01*
X24702597Y-65933213D01*
X24696569Y-65937649D01*
X24647068Y-65971819D01*
X24607183Y-66016838D01*
X24602051Y-66022290D01*
X23907290Y-66717051D01*
X23901838Y-66722183D01*
X23856819Y-66762068D01*
X23822649Y-66811569D01*
X23818213Y-66817597D01*
X23781124Y-66864938D01*
X23781119Y-66864948D01*
X23776960Y-66874188D01*
X23765942Y-66893723D01*
X23760187Y-66902061D01*
X23760179Y-66902076D01*
X23738853Y-66958305D01*
X23735989Y-66965220D01*
X23711305Y-67020068D01*
X23709477Y-67030042D01*
X23703453Y-67051653D01*
X23699860Y-67061127D01*
X23699858Y-67061134D01*
X23696741Y-67086801D01*
X23669117Y-67150977D01*
X23644771Y-67173423D01*
X23568447Y-67226866D01*
X23568441Y-67226871D01*
X23411868Y-67383444D01*
X23284857Y-67564834D01*
X23284856Y-67564836D01*
X23191279Y-67765513D01*
X23191275Y-67765524D01*
X23133965Y-67979407D01*
X23133964Y-67979414D01*
X23114666Y-68199998D01*
X23114666Y-68200001D01*
X23133964Y-68420585D01*
X23133965Y-68420592D01*
X23191275Y-68634475D01*
X23191279Y-68634486D01*
X23284739Y-68834912D01*
X23284858Y-68835167D01*
X23411868Y-69016555D01*
X23568445Y-69173132D01*
X23749833Y-69300142D01*
X23870572Y-69356443D01*
X23950513Y-69393720D01*
X23950515Y-69393720D01*
X23950520Y-69393723D01*
X24164409Y-69451035D01*
X24321974Y-69464820D01*
X24384998Y-69470334D01*
X24385000Y-69470334D01*
X24385002Y-69470334D01*
X24440276Y-69465498D01*
X24605591Y-69451035D01*
X24819480Y-69393723D01*
X25020167Y-69300142D01*
X25201555Y-69173132D01*
X25358132Y-69016555D01*
X25485142Y-68835167D01*
X25542618Y-68711907D01*
X25588790Y-68659468D01*
X25655983Y-68640316D01*
X25722864Y-68660531D01*
X25767381Y-68711907D01*
X25824858Y-68835167D01*
X25951868Y-69016555D01*
X26108445Y-69173132D01*
X26289833Y-69300142D01*
X26410572Y-69356443D01*
X26490513Y-69393720D01*
X26490515Y-69393720D01*
X26490520Y-69393723D01*
X26704409Y-69451035D01*
X26861974Y-69464820D01*
X26924998Y-69470334D01*
X26925000Y-69470334D01*
X26925002Y-69470334D01*
X26980276Y-69465498D01*
X27145591Y-69451035D01*
X27359480Y-69393723D01*
X27560167Y-69300142D01*
X27741555Y-69173132D01*
X27898132Y-69016555D01*
X28025142Y-68835167D01*
X28082618Y-68711907D01*
X28128790Y-68659468D01*
X28195983Y-68640316D01*
X28262864Y-68660531D01*
X28307381Y-68711907D01*
X28364858Y-68835167D01*
X28491868Y-69016555D01*
X28648445Y-69173132D01*
X28829833Y-69300142D01*
X28950572Y-69356443D01*
X29030513Y-69393720D01*
X29030515Y-69393720D01*
X29030520Y-69393723D01*
X29244409Y-69451035D01*
X29401974Y-69464820D01*
X29464998Y-69470334D01*
X29465000Y-69470334D01*
X29465002Y-69470334D01*
X29520276Y-69465498D01*
X29685591Y-69451035D01*
X29899480Y-69393723D01*
X30100167Y-69300142D01*
X30281555Y-69173132D01*
X30438132Y-69016555D01*
X30565142Y-68835167D01*
X30622618Y-68711907D01*
X30668790Y-68659468D01*
X30735983Y-68640316D01*
X30802864Y-68660531D01*
X30847381Y-68711907D01*
X30904858Y-68835167D01*
X31031868Y-69016555D01*
X31188445Y-69173132D01*
X31369833Y-69300142D01*
X31490572Y-69356443D01*
X31570513Y-69393720D01*
X31570515Y-69393720D01*
X31570520Y-69393723D01*
X31784409Y-69451035D01*
X31941974Y-69464820D01*
X32004998Y-69470334D01*
X32005000Y-69470334D01*
X32005002Y-69470334D01*
X32060276Y-69465498D01*
X32225591Y-69451035D01*
X32439480Y-69393723D01*
X32640167Y-69300142D01*
X32821555Y-69173132D01*
X32978132Y-69016555D01*
X33105142Y-68835167D01*
X33162618Y-68711907D01*
X33208790Y-68659468D01*
X33275983Y-68640316D01*
X33342864Y-68660531D01*
X33387381Y-68711907D01*
X33444858Y-68835167D01*
X33571868Y-69016555D01*
X33728445Y-69173132D01*
X33909833Y-69300142D01*
X34030572Y-69356443D01*
X34110513Y-69393720D01*
X34110515Y-69393720D01*
X34110520Y-69393723D01*
X34324409Y-69451035D01*
X34481974Y-69464820D01*
X34544998Y-69470334D01*
X34545000Y-69470334D01*
X34545002Y-69470334D01*
X34600276Y-69465498D01*
X34765591Y-69451035D01*
X34979480Y-69393723D01*
X35180167Y-69300142D01*
X35361555Y-69173132D01*
X35518132Y-69016555D01*
X35645142Y-68835167D01*
X35702895Y-68711312D01*
X35749064Y-68658878D01*
X35816258Y-68639725D01*
X35883139Y-68659940D01*
X35927657Y-68711316D01*
X35985295Y-68834919D01*
X36031103Y-68900341D01*
X36031105Y-68900342D01*
X36593866Y-68337580D01*
X36616318Y-68414040D01*
X36695605Y-68537413D01*
X36806438Y-68633451D01*
X36939839Y-68694373D01*
X36943633Y-68694918D01*
X36384656Y-69253894D01*
X36450083Y-69299706D01*
X36450085Y-69299707D01*
X36650690Y-69393250D01*
X36650699Y-69393254D01*
X36864490Y-69450538D01*
X36864500Y-69450540D01*
X37084999Y-69469832D01*
X37085001Y-69469832D01*
X37305499Y-69450540D01*
X37305509Y-69450538D01*
X37519300Y-69393254D01*
X37519309Y-69393250D01*
X37719915Y-69299706D01*
X37785342Y-69253894D01*
X37226366Y-68694918D01*
X37230161Y-68694373D01*
X37363562Y-68633451D01*
X37474395Y-68537413D01*
X37553682Y-68414040D01*
X37576133Y-68337580D01*
X38138894Y-68900342D01*
X38184707Y-68834914D01*
X38184708Y-68834912D01*
X38242342Y-68711317D01*
X38288514Y-68658877D01*
X38355707Y-68639725D01*
X38422589Y-68659941D01*
X38467106Y-68711317D01*
X38524739Y-68834912D01*
X38524858Y-68835167D01*
X38651868Y-69016555D01*
X38808445Y-69173132D01*
X38989833Y-69300142D01*
X39110572Y-69356443D01*
X39190513Y-69393720D01*
X39190515Y-69393720D01*
X39190520Y-69393723D01*
X39404409Y-69451035D01*
X39561974Y-69464820D01*
X39624998Y-69470334D01*
X39625000Y-69470334D01*
X39625002Y-69470334D01*
X39680276Y-69465498D01*
X39845591Y-69451035D01*
X40059480Y-69393723D01*
X40260167Y-69300142D01*
X40441555Y-69173132D01*
X40598132Y-69016555D01*
X40725142Y-68835167D01*
X40782618Y-68711907D01*
X40828790Y-68659468D01*
X40895983Y-68640316D01*
X40962864Y-68660531D01*
X41007381Y-68711907D01*
X41064858Y-68835167D01*
X41191868Y-69016555D01*
X41348445Y-69173132D01*
X41529833Y-69300142D01*
X41650572Y-69356443D01*
X41730513Y-69393720D01*
X41730515Y-69393720D01*
X41730520Y-69393723D01*
X41944409Y-69451035D01*
X42101974Y-69464820D01*
X42164998Y-69470334D01*
X42165000Y-69470334D01*
X42165002Y-69470334D01*
X42220276Y-69465498D01*
X42385591Y-69451035D01*
X42599480Y-69393723D01*
X42800167Y-69300142D01*
X42981555Y-69173132D01*
X43138132Y-69016555D01*
X43265142Y-68835167D01*
X43322618Y-68711907D01*
X43368790Y-68659468D01*
X43435983Y-68640316D01*
X43502864Y-68660531D01*
X43547381Y-68711907D01*
X43604858Y-68835167D01*
X43731868Y-69016555D01*
X43888445Y-69173132D01*
X44069833Y-69300142D01*
X44190572Y-69356443D01*
X44270513Y-69393720D01*
X44270515Y-69393720D01*
X44270520Y-69393723D01*
X44484409Y-69451035D01*
X44641974Y-69464820D01*
X44704998Y-69470334D01*
X44705000Y-69470334D01*
X44705002Y-69470334D01*
X44760276Y-69465498D01*
X44925591Y-69451035D01*
X45139480Y-69393723D01*
X45340167Y-69300142D01*
X45521555Y-69173132D01*
X45678132Y-69016555D01*
X45805142Y-68835167D01*
X45862618Y-68711907D01*
X45908790Y-68659468D01*
X45975983Y-68640316D01*
X46042864Y-68660531D01*
X46087381Y-68711907D01*
X46144858Y-68835167D01*
X46271868Y-69016555D01*
X46428445Y-69173132D01*
X46491625Y-69217371D01*
X46535248Y-69271947D01*
X46544500Y-69318945D01*
X46544500Y-74200078D01*
X46544274Y-74207566D01*
X46540642Y-74267603D01*
X46540642Y-74267605D01*
X46551483Y-74326770D01*
X46552610Y-74334171D01*
X46559859Y-74393871D01*
X46559860Y-74393874D01*
X46563451Y-74403343D01*
X46569474Y-74424946D01*
X46571304Y-74434930D01*
X46595991Y-74489782D01*
X46598854Y-74496694D01*
X46620182Y-74552930D01*
X46620183Y-74552931D01*
X46625936Y-74561266D01*
X46636961Y-74580813D01*
X46641120Y-74590055D01*
X46641124Y-74590060D01*
X46678215Y-74637403D01*
X46682655Y-74643438D01*
X46716812Y-74692924D01*
X46716816Y-74692929D01*
X46761828Y-74732805D01*
X46767283Y-74737940D01*
X47898972Y-75869629D01*
X47932457Y-75930952D01*
X47934819Y-75968117D01*
X47914532Y-76199998D01*
X47914532Y-76200001D01*
X47934364Y-76426686D01*
X47934366Y-76426697D01*
X47993258Y-76646488D01*
X47993261Y-76646497D01*
X48089431Y-76852732D01*
X48089432Y-76852734D01*
X48219954Y-77039141D01*
X48380858Y-77200045D01*
X48380861Y-77200047D01*
X48567266Y-77330568D01*
X48773504Y-77426739D01*
X48993308Y-77485635D01*
X49155230Y-77499801D01*
X49219998Y-77505468D01*
X49220000Y-77505468D01*
X49220002Y-77505468D01*
X49276673Y-77500509D01*
X49446692Y-77485635D01*
X49666496Y-77426739D01*
X49872734Y-77330568D01*
X50059139Y-77200047D01*
X50220047Y-77039139D01*
X50350568Y-76852734D01*
X50446739Y-76646496D01*
X50505635Y-76426692D01*
X50525468Y-76200000D01*
X50523572Y-76178334D01*
X50511698Y-76042606D01*
X50505635Y-75973308D01*
X50452976Y-75776780D01*
X50446741Y-75753511D01*
X50446738Y-75753502D01*
X50412469Y-75680012D01*
X50350568Y-75547266D01*
X50220047Y-75360861D01*
X50220045Y-75360858D01*
X50059141Y-75199954D01*
X49872734Y-75069432D01*
X49872732Y-75069431D01*
X49666497Y-74973261D01*
X49666488Y-74973258D01*
X49446697Y-74914366D01*
X49446693Y-74914365D01*
X49446692Y-74914365D01*
X49446691Y-74914364D01*
X49446686Y-74914364D01*
X49220002Y-74894532D01*
X49219998Y-74894532D01*
X48988117Y-74914819D01*
X48919617Y-74901052D01*
X48889629Y-74878972D01*
X47981819Y-73971162D01*
X47948334Y-73909839D01*
X47945500Y-73883481D01*
X47945500Y-73040456D01*
X47965185Y-72973417D01*
X48017989Y-72927662D01*
X48087147Y-72917718D01*
X48150703Y-72946743D01*
X48171073Y-72969331D01*
X48212314Y-73028230D01*
X48219955Y-73039142D01*
X48380858Y-73200045D01*
X48380861Y-73200047D01*
X48567266Y-73330568D01*
X48773504Y-73426739D01*
X48993308Y-73485635D01*
X49155230Y-73499801D01*
X49219998Y-73505468D01*
X49220000Y-73505468D01*
X49220002Y-73505468D01*
X49276673Y-73500509D01*
X49446692Y-73485635D01*
X49666496Y-73426739D01*
X49872734Y-73330568D01*
X50059139Y-73200047D01*
X50220047Y-73039139D01*
X50350568Y-72852734D01*
X50446739Y-72646496D01*
X50505635Y-72426692D01*
X50525468Y-72200000D01*
X50524500Y-72188940D01*
X50505635Y-71973313D01*
X50505635Y-71973308D01*
X50446739Y-71753504D01*
X50350568Y-71547266D01*
X50220047Y-71360861D01*
X50059139Y-71199953D01*
X49973376Y-71139901D01*
X49929751Y-71085324D01*
X49920500Y-71038326D01*
X49920500Y-69568983D01*
X49940185Y-69501944D01*
X49992989Y-69456189D01*
X50012400Y-69449210D01*
X50219480Y-69393723D01*
X50420167Y-69300142D01*
X50601555Y-69173132D01*
X50758132Y-69016555D01*
X50885142Y-68835167D01*
X50942618Y-68711907D01*
X50988790Y-68659468D01*
X51055983Y-68640316D01*
X51122864Y-68660531D01*
X51167381Y-68711907D01*
X51224858Y-68835167D01*
X51351868Y-69016555D01*
X51508445Y-69173132D01*
X51689833Y-69300142D01*
X51810572Y-69356443D01*
X51890513Y-69393720D01*
X51890515Y-69393720D01*
X51890520Y-69393723D01*
X52104409Y-69451035D01*
X52261974Y-69464820D01*
X52324998Y-69470334D01*
X52325000Y-69470334D01*
X52325002Y-69470334D01*
X52380276Y-69465498D01*
X52545591Y-69451035D01*
X52759480Y-69393723D01*
X52960167Y-69300142D01*
X53141555Y-69173132D01*
X53298132Y-69016555D01*
X53425142Y-68835167D01*
X53482618Y-68711907D01*
X53528790Y-68659468D01*
X53595983Y-68640316D01*
X53662864Y-68660531D01*
X53707381Y-68711907D01*
X53764858Y-68835167D01*
X53891868Y-69016555D01*
X54048445Y-69173132D01*
X54229833Y-69300142D01*
X54350572Y-69356443D01*
X54430513Y-69393720D01*
X54430515Y-69393720D01*
X54430520Y-69393723D01*
X54644409Y-69451035D01*
X54801974Y-69464820D01*
X54864998Y-69470334D01*
X54865000Y-69470334D01*
X54865002Y-69470334D01*
X54920276Y-69465498D01*
X55085591Y-69451035D01*
X55299480Y-69393723D01*
X55500167Y-69300142D01*
X55681555Y-69173132D01*
X55838132Y-69016555D01*
X55965142Y-68835167D01*
X56022618Y-68711907D01*
X56068790Y-68659468D01*
X56135983Y-68640316D01*
X56202864Y-68660531D01*
X56247381Y-68711907D01*
X56304858Y-68835167D01*
X56431868Y-69016555D01*
X56588445Y-69173132D01*
X56769833Y-69300142D01*
X56890572Y-69356443D01*
X56970513Y-69393720D01*
X56970515Y-69393720D01*
X56970520Y-69393723D01*
X57184409Y-69451035D01*
X57341974Y-69464820D01*
X57404998Y-69470334D01*
X57405000Y-69470334D01*
X57405002Y-69470334D01*
X57460276Y-69465498D01*
X57625591Y-69451035D01*
X57839480Y-69393723D01*
X57839480Y-69393722D01*
X57843406Y-69392671D01*
X57913256Y-69394334D01*
X57971119Y-69433496D01*
X57998623Y-69497725D01*
X57999500Y-69512446D01*
X57999500Y-71495078D01*
X57999274Y-71502566D01*
X57995642Y-71562603D01*
X57995642Y-71562605D01*
X58006483Y-71621770D01*
X58007610Y-71629171D01*
X58014859Y-71688871D01*
X58014860Y-71688874D01*
X58018451Y-71698343D01*
X58024474Y-71719946D01*
X58026304Y-71729930D01*
X58050991Y-71784782D01*
X58053857Y-71791701D01*
X58075182Y-71847929D01*
X58075184Y-71847933D01*
X58080642Y-71855841D01*
X58102524Y-71922196D01*
X58098368Y-71958366D01*
X58094366Y-71973303D01*
X58094364Y-71973313D01*
X58074532Y-72199998D01*
X58074532Y-72200001D01*
X58094364Y-72426686D01*
X58094366Y-72426697D01*
X58153258Y-72646488D01*
X58153261Y-72646497D01*
X58249431Y-72852732D01*
X58249432Y-72852734D01*
X58379954Y-73039141D01*
X58540858Y-73200045D01*
X58540861Y-73200047D01*
X58727266Y-73330568D01*
X58933504Y-73426739D01*
X59153308Y-73485635D01*
X59315230Y-73499801D01*
X59379998Y-73505468D01*
X59380000Y-73505468D01*
X59380002Y-73505468D01*
X59436673Y-73500509D01*
X59606692Y-73485635D01*
X59826496Y-73426739D01*
X60032734Y-73330568D01*
X60219139Y-73200047D01*
X60219141Y-73200045D01*
X60287819Y-73131368D01*
X60349142Y-73097883D01*
X60418834Y-73102867D01*
X60474767Y-73144739D01*
X60499184Y-73210203D01*
X60499500Y-73219049D01*
X60499500Y-74038480D01*
X60479815Y-74105519D01*
X60463181Y-74126161D01*
X59710369Y-74878972D01*
X59649046Y-74912457D01*
X59611881Y-74914819D01*
X59606680Y-74914364D01*
X59587171Y-74912657D01*
X59380002Y-74894532D01*
X59379998Y-74894532D01*
X59153313Y-74914364D01*
X59153302Y-74914366D01*
X58933511Y-74973258D01*
X58933502Y-74973261D01*
X58727267Y-75069431D01*
X58727265Y-75069432D01*
X58540858Y-75199954D01*
X58379954Y-75360858D01*
X58249432Y-75547265D01*
X58249431Y-75547267D01*
X58153261Y-75753502D01*
X58153258Y-75753511D01*
X58094366Y-75973302D01*
X58094364Y-75973313D01*
X58074532Y-76199998D01*
X58074532Y-76200001D01*
X58094364Y-76426686D01*
X58094366Y-76426697D01*
X58153258Y-76646488D01*
X58153261Y-76646497D01*
X58249431Y-76852732D01*
X58249432Y-76852734D01*
X58379954Y-77039141D01*
X58540858Y-77200045D01*
X58540861Y-77200047D01*
X58727266Y-77330568D01*
X58933504Y-77426739D01*
X59153308Y-77485635D01*
X59315230Y-77499801D01*
X59379998Y-77505468D01*
X59380000Y-77505468D01*
X59380002Y-77505468D01*
X59436673Y-77500509D01*
X59606692Y-77485635D01*
X59826496Y-77426739D01*
X60032734Y-77330568D01*
X60219139Y-77200047D01*
X60380047Y-77039139D01*
X60510568Y-76852734D01*
X60606739Y-76646496D01*
X60665635Y-76426692D01*
X60685468Y-76200000D01*
X60665635Y-75973308D01*
X60665633Y-75973303D01*
X60665180Y-75968117D01*
X60678946Y-75899617D01*
X60701024Y-75869631D01*
X61677731Y-74892924D01*
X61683151Y-74887822D01*
X61728183Y-74847929D01*
X61762362Y-74798411D01*
X61766789Y-74792396D01*
X61803878Y-74745056D01*
X61808037Y-74735813D01*
X61819061Y-74716268D01*
X61824818Y-74707930D01*
X61846145Y-74651694D01*
X61849013Y-74644770D01*
X61873693Y-74589936D01*
X61873693Y-74589934D01*
X61873695Y-74589931D01*
X61875522Y-74579959D01*
X61881546Y-74558347D01*
X61885140Y-74548872D01*
X61892387Y-74489184D01*
X61893514Y-74481777D01*
X61895798Y-74469314D01*
X61904358Y-74422606D01*
X61900726Y-74362565D01*
X61900500Y-74355078D01*
X61900500Y-69515125D01*
X61920185Y-69448086D01*
X61972989Y-69402331D01*
X62042147Y-69392387D01*
X62056585Y-69395348D01*
X62264409Y-69451035D01*
X62421974Y-69464820D01*
X62484998Y-69470334D01*
X62485000Y-69470334D01*
X62485002Y-69470334D01*
X62540276Y-69465498D01*
X62705591Y-69451035D01*
X62919480Y-69393723D01*
X63120167Y-69300142D01*
X63301555Y-69173132D01*
X63458132Y-69016555D01*
X63585142Y-68835167D01*
X63642618Y-68711907D01*
X63688790Y-68659468D01*
X63755983Y-68640316D01*
X63822864Y-68660531D01*
X63867381Y-68711907D01*
X63924858Y-68835167D01*
X64051868Y-69016555D01*
X64208445Y-69173132D01*
X64389833Y-69300142D01*
X64510572Y-69356443D01*
X64590513Y-69393720D01*
X64590515Y-69393720D01*
X64590520Y-69393723D01*
X64804409Y-69451035D01*
X64961974Y-69464820D01*
X65024998Y-69470334D01*
X65025000Y-69470334D01*
X65025002Y-69470334D01*
X65080276Y-69465498D01*
X65245591Y-69451035D01*
X65459480Y-69393723D01*
X65660167Y-69300142D01*
X65841555Y-69173132D01*
X65998132Y-69016555D01*
X66125142Y-68835167D01*
X66182618Y-68711907D01*
X66228790Y-68659468D01*
X66295983Y-68640316D01*
X66362864Y-68660531D01*
X66407381Y-68711907D01*
X66464858Y-68835167D01*
X66591868Y-69016555D01*
X66748445Y-69173132D01*
X66929833Y-69300142D01*
X67050572Y-69356443D01*
X67130513Y-69393720D01*
X67130515Y-69393720D01*
X67130520Y-69393723D01*
X67344409Y-69451035D01*
X67501974Y-69464820D01*
X67564998Y-69470334D01*
X67565000Y-69470334D01*
X67565002Y-69470334D01*
X67620276Y-69465498D01*
X67785591Y-69451035D01*
X67999480Y-69393723D01*
X68200167Y-69300142D01*
X68381555Y-69173132D01*
X68538132Y-69016555D01*
X68613928Y-68908307D01*
X68668501Y-68864685D01*
X68738000Y-68857491D01*
X68800355Y-68889013D01*
X68835769Y-68949243D01*
X68839500Y-68979430D01*
X68839500Y-69012868D01*
X68839501Y-69012876D01*
X68845908Y-69072483D01*
X68896202Y-69207328D01*
X68896206Y-69207335D01*
X68982452Y-69322544D01*
X68982455Y-69322547D01*
X69097664Y-69408793D01*
X69097671Y-69408797D01*
X69232517Y-69459091D01*
X69232516Y-69459091D01*
X69239444Y-69459835D01*
X69292127Y-69465500D01*
X70917872Y-69465499D01*
X70977483Y-69459091D01*
X71112331Y-69408796D01*
X71227546Y-69322546D01*
X71313796Y-69207331D01*
X71364091Y-69072483D01*
X71370500Y-69012873D01*
X71370499Y-67387128D01*
X71364091Y-67327517D01*
X71359603Y-67315485D01*
X71313797Y-67192671D01*
X71313793Y-67192664D01*
X71227547Y-67077455D01*
X71227544Y-67077452D01*
X71112335Y-66991206D01*
X71112328Y-66991202D01*
X70977482Y-66940908D01*
X70977483Y-66940908D01*
X70917883Y-66934501D01*
X70917881Y-66934500D01*
X70917873Y-66934500D01*
X70917864Y-66934500D01*
X69292129Y-66934500D01*
X69292123Y-66934501D01*
X69232516Y-66940908D01*
X69097671Y-66991202D01*
X69097664Y-66991206D01*
X68982455Y-67077452D01*
X68982452Y-67077455D01*
X68896206Y-67192664D01*
X68896202Y-67192671D01*
X68845908Y-67327517D01*
X68842064Y-67363278D01*
X68839501Y-67387123D01*
X68839500Y-67387135D01*
X68839500Y-67420564D01*
X68819815Y-67487603D01*
X68767011Y-67533358D01*
X68697853Y-67543302D01*
X68634297Y-67514277D01*
X68613926Y-67491688D01*
X68538137Y-67383452D01*
X68538136Y-67383451D01*
X68538132Y-67383445D01*
X68381555Y-67226868D01*
X68200167Y-67099858D01*
X68185730Y-67093126D01*
X67999486Y-67006279D01*
X67999475Y-67006275D01*
X67785592Y-66948965D01*
X67785585Y-66948964D01*
X67565002Y-66929666D01*
X67564998Y-66929666D01*
X67344414Y-66948964D01*
X67344407Y-66948965D01*
X67130524Y-67006275D01*
X67130513Y-67006279D01*
X66929836Y-67099856D01*
X66929834Y-67099857D01*
X66748444Y-67226868D01*
X66591868Y-67383444D01*
X66464857Y-67564834D01*
X66464856Y-67564836D01*
X66407382Y-67688091D01*
X66361210Y-67740531D01*
X66294017Y-67759683D01*
X66227135Y-67739467D01*
X66182618Y-67688091D01*
X66154050Y-67626828D01*
X66125142Y-67564833D01*
X65998132Y-67383445D01*
X65841555Y-67226868D01*
X65660167Y-67099858D01*
X65645730Y-67093126D01*
X65459486Y-67006279D01*
X65459475Y-67006275D01*
X65245592Y-66948965D01*
X65245585Y-66948964D01*
X65025002Y-66929666D01*
X65024998Y-66929666D01*
X64804414Y-66948964D01*
X64804407Y-66948965D01*
X64590524Y-67006275D01*
X64590513Y-67006279D01*
X64389836Y-67099856D01*
X64389834Y-67099857D01*
X64208444Y-67226868D01*
X64051868Y-67383444D01*
X63924857Y-67564834D01*
X63924856Y-67564836D01*
X63867382Y-67688091D01*
X63821210Y-67740531D01*
X63754017Y-67759683D01*
X63687135Y-67739467D01*
X63642618Y-67688091D01*
X63614050Y-67626828D01*
X63585142Y-67564833D01*
X63458132Y-67383445D01*
X63301555Y-67226868D01*
X63120167Y-67099858D01*
X63105730Y-67093126D01*
X62919486Y-67006279D01*
X62919475Y-67006275D01*
X62705592Y-66948965D01*
X62705585Y-66948964D01*
X62485002Y-66929666D01*
X62484998Y-66929666D01*
X62264414Y-66948964D01*
X62264404Y-66948966D01*
X62108536Y-66990731D01*
X62038687Y-66989068D01*
X61980824Y-66949905D01*
X61953320Y-66885677D01*
X61964906Y-66816775D01*
X61969056Y-66808956D01*
X61996125Y-66762071D01*
X62027179Y-66708284D01*
X62085674Y-66528256D01*
X62105460Y-66340000D01*
X62085674Y-66151744D01*
X62031112Y-65983823D01*
X62027181Y-65971722D01*
X62027180Y-65971721D01*
X62027179Y-65971716D01*
X61932533Y-65807784D01*
X61805871Y-65667112D01*
X61786650Y-65653147D01*
X61647473Y-65552029D01*
X61648521Y-65550585D01*
X61606315Y-65506326D01*
X61593089Y-65437719D01*
X61619054Y-65372853D01*
X61675966Y-65332322D01*
X61716528Y-65325500D01*
X69492257Y-65325500D01*
X69507877Y-65327224D01*
X69507904Y-65326939D01*
X69515660Y-65327671D01*
X69515667Y-65327673D01*
X69582873Y-65325561D01*
X69586768Y-65325500D01*
X69614346Y-65325500D01*
X69614350Y-65325500D01*
X69618324Y-65324997D01*
X69629963Y-65324080D01*
X69673627Y-65322709D01*
X69692869Y-65317117D01*
X69711912Y-65313174D01*
X69731792Y-65310664D01*
X69772401Y-65294585D01*
X69783444Y-65290803D01*
X69825390Y-65278618D01*
X69842629Y-65268422D01*
X69860103Y-65259862D01*
X69878727Y-65252488D01*
X69878727Y-65252487D01*
X69878732Y-65252486D01*
X69914083Y-65226800D01*
X69923814Y-65220408D01*
X69961420Y-65198170D01*
X69975589Y-65183999D01*
X69990379Y-65171368D01*
X70006587Y-65159594D01*
X70034438Y-65125926D01*
X70042279Y-65117309D01*
X70822771Y-64336818D01*
X70884094Y-64303333D01*
X70910452Y-64300499D01*
X72100002Y-64300499D01*
X72100008Y-64300499D01*
X72202797Y-64289999D01*
X72369334Y-64234814D01*
X72518656Y-64142712D01*
X72642712Y-64018656D01*
X72734814Y-63869334D01*
X72789999Y-63702797D01*
X72800500Y-63600009D01*
X72800499Y-62516517D01*
X72820184Y-62449479D01*
X72836813Y-62428842D01*
X74477731Y-60787924D01*
X74483151Y-60782822D01*
X74528183Y-60742929D01*
X74562358Y-60693416D01*
X74566796Y-60687386D01*
X74577893Y-60673223D01*
X74634734Y-60632593D01*
X74704519Y-60629143D01*
X74765090Y-60663970D01*
X74797217Y-60726015D01*
X74799500Y-60749700D01*
X74799500Y-75163480D01*
X74779815Y-75230519D01*
X74763181Y-75251161D01*
X57703062Y-92311279D01*
X57641739Y-92344764D01*
X57604574Y-92347126D01*
X57405002Y-92329666D01*
X57404998Y-92329666D01*
X57184414Y-92348964D01*
X57184407Y-92348965D01*
X56970524Y-92406275D01*
X56970513Y-92406279D01*
X56769836Y-92499856D01*
X56769834Y-92499857D01*
X56588444Y-92626868D01*
X56431868Y-92783444D01*
X56304857Y-92964833D01*
X56247106Y-93088683D01*
X56200934Y-93141122D01*
X56133740Y-93160274D01*
X56066859Y-93140058D01*
X56022342Y-93088683D01*
X55964707Y-92965085D01*
X55964706Y-92965083D01*
X55918894Y-92899657D01*
X55918894Y-92899656D01*
X55356132Y-93462418D01*
X55333682Y-93385960D01*
X55254395Y-93262587D01*
X55143562Y-93166549D01*
X55010161Y-93105627D01*
X55006366Y-93105081D01*
X55565342Y-92546105D01*
X55565341Y-92546103D01*
X55499919Y-92500295D01*
X55299309Y-92406749D01*
X55299300Y-92406745D01*
X55085509Y-92349461D01*
X55085499Y-92349459D01*
X54865001Y-92330168D01*
X54864999Y-92330168D01*
X54644500Y-92349459D01*
X54644490Y-92349461D01*
X54430699Y-92406745D01*
X54430690Y-92406749D01*
X54230084Y-92500293D01*
X54164657Y-92546104D01*
X54723634Y-93105081D01*
X54719839Y-93105627D01*
X54586438Y-93166549D01*
X54475605Y-93262587D01*
X54396318Y-93385960D01*
X54373866Y-93462419D01*
X53811104Y-92899657D01*
X53765293Y-92965084D01*
X53707657Y-93088683D01*
X53661484Y-93141122D01*
X53594290Y-93160274D01*
X53527409Y-93140058D01*
X53482893Y-93088682D01*
X53482793Y-93088468D01*
X53425142Y-92964833D01*
X53298132Y-92783445D01*
X53141555Y-92626868D01*
X52960167Y-92499858D01*
X52960163Y-92499856D01*
X52759486Y-92406279D01*
X52759475Y-92406275D01*
X52545592Y-92348965D01*
X52545585Y-92348964D01*
X52325002Y-92329666D01*
X52324998Y-92329666D01*
X52104414Y-92348964D01*
X52104407Y-92348965D01*
X51890524Y-92406275D01*
X51890513Y-92406279D01*
X51689836Y-92499856D01*
X51689834Y-92499857D01*
X51508444Y-92626868D01*
X51351868Y-92783444D01*
X51224857Y-92964834D01*
X51224856Y-92964836D01*
X51167382Y-93088091D01*
X51121210Y-93140531D01*
X51054017Y-93159683D01*
X50987135Y-93139467D01*
X50942618Y-93088091D01*
X50914050Y-93026828D01*
X50885142Y-92964833D01*
X50758132Y-92783445D01*
X50601555Y-92626868D01*
X50420167Y-92499858D01*
X50420163Y-92499856D01*
X50219486Y-92406279D01*
X50219475Y-92406275D01*
X50005592Y-92348965D01*
X50005585Y-92348964D01*
X49785002Y-92329666D01*
X49784998Y-92329666D01*
X49564414Y-92348964D01*
X49564407Y-92348965D01*
X49350524Y-92406275D01*
X49350513Y-92406279D01*
X49149836Y-92499856D01*
X49149834Y-92499857D01*
X48968444Y-92626868D01*
X48811868Y-92783444D01*
X48684857Y-92964834D01*
X48684856Y-92964836D01*
X48627382Y-93088091D01*
X48581210Y-93140531D01*
X48514017Y-93159683D01*
X48447135Y-93139467D01*
X48402618Y-93088091D01*
X48374050Y-93026828D01*
X48345142Y-92964833D01*
X48218132Y-92783445D01*
X48061555Y-92626868D01*
X47880167Y-92499858D01*
X47880163Y-92499856D01*
X47679486Y-92406279D01*
X47679475Y-92406275D01*
X47465592Y-92348965D01*
X47465585Y-92348964D01*
X47245002Y-92329666D01*
X47244998Y-92329666D01*
X47024414Y-92348964D01*
X47024407Y-92348965D01*
X46810524Y-92406275D01*
X46810513Y-92406279D01*
X46609836Y-92499856D01*
X46609834Y-92499857D01*
X46428444Y-92626868D01*
X46271868Y-92783444D01*
X46144857Y-92964834D01*
X46144856Y-92964836D01*
X46087382Y-93088091D01*
X46041210Y-93140531D01*
X45974017Y-93159683D01*
X45907135Y-93139467D01*
X45862618Y-93088091D01*
X45834050Y-93026828D01*
X45805142Y-92964833D01*
X45678132Y-92783445D01*
X45521555Y-92626868D01*
X45481873Y-92599082D01*
X45458375Y-92582628D01*
X45414751Y-92528051D01*
X45405500Y-92481054D01*
X45405500Y-92136519D01*
X45425185Y-92069480D01*
X45441813Y-92048843D01*
X45562976Y-91927680D01*
X45624295Y-91894198D01*
X45624305Y-91894195D01*
X45779803Y-91861144D01*
X45779807Y-91861142D01*
X45779808Y-91861142D01*
X45838058Y-91835206D01*
X45952730Y-91784151D01*
X46105871Y-91672888D01*
X46232533Y-91532216D01*
X46327179Y-91368284D01*
X46385674Y-91188256D01*
X46405460Y-91000000D01*
X46385674Y-90811744D01*
X46327179Y-90631716D01*
X46232533Y-90467784D01*
X46105871Y-90327112D01*
X46105870Y-90327111D01*
X45952734Y-90215851D01*
X45952729Y-90215848D01*
X45779807Y-90138857D01*
X45779802Y-90138855D01*
X45634001Y-90107865D01*
X45594646Y-90099500D01*
X45405354Y-90099500D01*
X45372897Y-90106398D01*
X45220197Y-90138855D01*
X45220192Y-90138857D01*
X45047270Y-90215848D01*
X45047265Y-90215851D01*
X44894129Y-90327111D01*
X44767466Y-90467785D01*
X44672821Y-90631715D01*
X44672818Y-90631722D01*
X44614327Y-90811739D01*
X44614325Y-90811750D01*
X44609134Y-90861129D01*
X44582549Y-90925743D01*
X44573495Y-90935846D01*
X44508678Y-91000663D01*
X44447355Y-91034148D01*
X44377663Y-91029164D01*
X44321730Y-90987292D01*
X44297676Y-90925943D01*
X44297093Y-90920394D01*
X44285674Y-90811744D01*
X44227179Y-90631716D01*
X44132533Y-90467784D01*
X44005871Y-90327112D01*
X44005870Y-90327111D01*
X43852734Y-90215851D01*
X43852729Y-90215848D01*
X43679807Y-90138857D01*
X43679802Y-90138855D01*
X43534001Y-90107865D01*
X43494646Y-90099500D01*
X43305354Y-90099500D01*
X43272897Y-90106398D01*
X43120197Y-90138855D01*
X43120192Y-90138857D01*
X42947270Y-90215848D01*
X42947265Y-90215851D01*
X42794129Y-90327111D01*
X42667466Y-90467785D01*
X42572821Y-90631715D01*
X42572819Y-90631719D01*
X42531575Y-90758654D01*
X42501325Y-90808016D01*
X42105628Y-91203713D01*
X42044305Y-91237198D01*
X41974613Y-91232214D01*
X41918680Y-91190342D01*
X41894263Y-91124878D01*
X41894625Y-91103083D01*
X41905460Y-91000000D01*
X41885674Y-90811744D01*
X41827179Y-90631716D01*
X41732533Y-90467784D01*
X41605871Y-90327112D01*
X41605870Y-90327111D01*
X41452734Y-90215851D01*
X41452729Y-90215848D01*
X41279807Y-90138857D01*
X41279802Y-90138855D01*
X41134001Y-90107865D01*
X41094646Y-90099500D01*
X40905354Y-90099500D01*
X40872897Y-90106398D01*
X40720197Y-90138855D01*
X40720192Y-90138857D01*
X40547270Y-90215848D01*
X40547265Y-90215851D01*
X40394129Y-90327111D01*
X40267466Y-90467785D01*
X40172821Y-90631715D01*
X40172818Y-90631722D01*
X40114327Y-90811739D01*
X40114325Y-90811750D01*
X40109134Y-90861129D01*
X40082549Y-90925743D01*
X40073495Y-90935846D01*
X39147290Y-91862051D01*
X39141838Y-91867183D01*
X39096819Y-91907068D01*
X39062649Y-91956569D01*
X39058213Y-91962597D01*
X39021124Y-92009938D01*
X39021119Y-92009948D01*
X39016960Y-92019188D01*
X39005942Y-92038723D01*
X39000187Y-92047061D01*
X39000179Y-92047076D01*
X38978853Y-92103305D01*
X38975989Y-92110220D01*
X38951305Y-92165068D01*
X38949590Y-92174428D01*
X38949477Y-92175042D01*
X38943453Y-92196653D01*
X38939860Y-92206127D01*
X38939860Y-92206128D01*
X38932610Y-92265827D01*
X38931483Y-92273227D01*
X38920642Y-92332389D01*
X38920642Y-92332395D01*
X38924274Y-92392432D01*
X38924500Y-92399920D01*
X38924500Y-92481054D01*
X38904815Y-92548093D01*
X38871625Y-92582628D01*
X38808447Y-92626866D01*
X38808441Y-92626871D01*
X38651868Y-92783444D01*
X38524857Y-92964834D01*
X38524856Y-92964836D01*
X38467382Y-93088091D01*
X38421210Y-93140531D01*
X38354017Y-93159683D01*
X38287135Y-93139467D01*
X38242618Y-93088091D01*
X38214050Y-93026828D01*
X38185142Y-92964833D01*
X38058132Y-92783445D01*
X37901555Y-92626868D01*
X37720167Y-92499858D01*
X37720163Y-92499856D01*
X37519486Y-92406279D01*
X37519475Y-92406275D01*
X37305592Y-92348965D01*
X37305585Y-92348964D01*
X37085002Y-92329666D01*
X37084998Y-92329666D01*
X36864414Y-92348964D01*
X36864407Y-92348965D01*
X36650524Y-92406275D01*
X36650513Y-92406279D01*
X36449836Y-92499856D01*
X36449834Y-92499857D01*
X36268444Y-92626868D01*
X36111868Y-92783444D01*
X35984857Y-92964834D01*
X35984856Y-92964836D01*
X35927382Y-93088091D01*
X35881210Y-93140531D01*
X35814017Y-93159683D01*
X35747135Y-93139467D01*
X35702618Y-93088091D01*
X35674050Y-93026828D01*
X35645142Y-92964833D01*
X35518132Y-92783445D01*
X35361555Y-92626868D01*
X35180167Y-92499858D01*
X35180163Y-92499856D01*
X34979486Y-92406279D01*
X34979475Y-92406275D01*
X34765592Y-92348965D01*
X34765585Y-92348964D01*
X34545002Y-92329666D01*
X34544998Y-92329666D01*
X34324414Y-92348964D01*
X34324407Y-92348965D01*
X34110524Y-92406275D01*
X34110513Y-92406279D01*
X33909836Y-92499856D01*
X33909834Y-92499857D01*
X33728444Y-92626868D01*
X33571868Y-92783444D01*
X33444857Y-92964834D01*
X33444856Y-92964836D01*
X33387382Y-93088091D01*
X33341210Y-93140531D01*
X33274017Y-93159683D01*
X33207135Y-93139467D01*
X33162618Y-93088091D01*
X33134050Y-93026828D01*
X33105142Y-92964833D01*
X32978132Y-92783445D01*
X32821555Y-92626868D01*
X32640167Y-92499858D01*
X32640163Y-92499856D01*
X32439486Y-92406279D01*
X32439475Y-92406275D01*
X32225592Y-92348965D01*
X32225585Y-92348964D01*
X32005002Y-92329666D01*
X32004998Y-92329666D01*
X31784414Y-92348964D01*
X31784407Y-92348965D01*
X31570524Y-92406275D01*
X31570513Y-92406279D01*
X31369836Y-92499856D01*
X31369834Y-92499857D01*
X31188444Y-92626868D01*
X31031868Y-92783444D01*
X30904857Y-92964834D01*
X30904856Y-92964836D01*
X30847382Y-93088091D01*
X30801210Y-93140531D01*
X30734017Y-93159683D01*
X30667135Y-93139467D01*
X30622618Y-93088091D01*
X30594050Y-93026828D01*
X30565142Y-92964833D01*
X30438132Y-92783445D01*
X30281555Y-92626868D01*
X30100167Y-92499858D01*
X30100163Y-92499856D01*
X29899486Y-92406279D01*
X29899475Y-92406275D01*
X29685592Y-92348965D01*
X29685585Y-92348964D01*
X29465002Y-92329666D01*
X29464998Y-92329666D01*
X29244414Y-92348964D01*
X29244407Y-92348965D01*
X29030524Y-92406275D01*
X29030513Y-92406279D01*
X28829836Y-92499856D01*
X28829834Y-92499857D01*
X28648444Y-92626868D01*
X28491868Y-92783444D01*
X28364857Y-92964834D01*
X28364856Y-92964836D01*
X28307382Y-93088091D01*
X28261210Y-93140531D01*
X28194017Y-93159683D01*
X28127135Y-93139467D01*
X28082618Y-93088091D01*
X28054050Y-93026828D01*
X28025142Y-92964833D01*
X27898132Y-92783445D01*
X27741555Y-92626868D01*
X27560167Y-92499858D01*
X27560163Y-92499856D01*
X27359486Y-92406279D01*
X27359475Y-92406275D01*
X27145592Y-92348965D01*
X27145585Y-92348964D01*
X26925002Y-92329666D01*
X26924998Y-92329666D01*
X26704414Y-92348964D01*
X26704407Y-92348965D01*
X26490524Y-92406275D01*
X26490513Y-92406279D01*
X26289836Y-92499856D01*
X26289834Y-92499857D01*
X26108444Y-92626868D01*
X25951868Y-92783444D01*
X25824857Y-92964834D01*
X25824856Y-92964836D01*
X25767382Y-93088091D01*
X25721210Y-93140531D01*
X25654017Y-93159683D01*
X25587135Y-93139467D01*
X25542618Y-93088091D01*
X25514050Y-93026828D01*
X25485142Y-92964833D01*
X25358132Y-92783445D01*
X25201555Y-92626868D01*
X25020167Y-92499858D01*
X25020163Y-92499856D01*
X24819486Y-92406279D01*
X24819475Y-92406275D01*
X24605592Y-92348965D01*
X24605585Y-92348964D01*
X24385002Y-92329666D01*
X24384998Y-92329666D01*
X24164414Y-92348964D01*
X24164407Y-92348965D01*
X23950524Y-92406275D01*
X23950513Y-92406279D01*
X23749836Y-92499856D01*
X23749834Y-92499857D01*
X23568444Y-92626868D01*
X23411868Y-92783444D01*
X23284857Y-92964834D01*
X23284856Y-92964836D01*
X23191279Y-93165513D01*
X23191275Y-93165524D01*
X23133965Y-93379407D01*
X23133964Y-93379414D01*
X23114666Y-93599998D01*
X23114666Y-93600001D01*
X23133964Y-93820585D01*
X23133965Y-93820592D01*
X23191275Y-94034475D01*
X23191279Y-94034486D01*
X23231301Y-94120313D01*
X23284858Y-94235167D01*
X23411868Y-94416555D01*
X23568445Y-94573132D01*
X23749833Y-94700142D01*
X23813884Y-94730009D01*
X23950513Y-94793720D01*
X23950515Y-94793720D01*
X23950520Y-94793723D01*
X24164409Y-94851035D01*
X24321974Y-94864820D01*
X24384998Y-94870334D01*
X24385000Y-94870334D01*
X24385002Y-94870334D01*
X24440147Y-94865509D01*
X24605591Y-94851035D01*
X24819480Y-94793723D01*
X25020167Y-94700142D01*
X25201555Y-94573132D01*
X25358132Y-94416555D01*
X25485142Y-94235167D01*
X25542618Y-94111907D01*
X25588790Y-94059468D01*
X25655983Y-94040316D01*
X25722864Y-94060531D01*
X25767381Y-94111907D01*
X25824858Y-94235167D01*
X25951868Y-94416555D01*
X26108445Y-94573132D01*
X26289833Y-94700142D01*
X26353884Y-94730009D01*
X26490513Y-94793720D01*
X26490515Y-94793720D01*
X26490520Y-94793723D01*
X26704409Y-94851035D01*
X26861974Y-94864820D01*
X26924998Y-94870334D01*
X26925000Y-94870334D01*
X26925002Y-94870334D01*
X26980147Y-94865509D01*
X27145591Y-94851035D01*
X27359480Y-94793723D01*
X27560167Y-94700142D01*
X27741555Y-94573132D01*
X27898132Y-94416555D01*
X28025142Y-94235167D01*
X28082618Y-94111907D01*
X28128790Y-94059468D01*
X28195983Y-94040316D01*
X28262864Y-94060531D01*
X28307381Y-94111907D01*
X28364858Y-94235167D01*
X28491868Y-94416555D01*
X28648445Y-94573132D01*
X28829833Y-94700142D01*
X28893884Y-94730009D01*
X29030513Y-94793720D01*
X29030515Y-94793720D01*
X29030520Y-94793723D01*
X29244409Y-94851035D01*
X29401974Y-94864820D01*
X29464998Y-94870334D01*
X29465000Y-94870334D01*
X29465002Y-94870334D01*
X29520147Y-94865509D01*
X29685591Y-94851035D01*
X29899480Y-94793723D01*
X30100167Y-94700142D01*
X30281555Y-94573132D01*
X30438132Y-94416555D01*
X30565142Y-94235167D01*
X30622618Y-94111907D01*
X30668790Y-94059468D01*
X30735983Y-94040316D01*
X30802864Y-94060531D01*
X30847381Y-94111907D01*
X30904858Y-94235167D01*
X31031868Y-94416555D01*
X31188445Y-94573132D01*
X31369833Y-94700142D01*
X31433884Y-94730009D01*
X31570513Y-94793720D01*
X31570515Y-94793720D01*
X31570520Y-94793723D01*
X31784409Y-94851035D01*
X31941974Y-94864820D01*
X32004998Y-94870334D01*
X32005000Y-94870334D01*
X32005002Y-94870334D01*
X32060147Y-94865509D01*
X32225591Y-94851035D01*
X32439480Y-94793723D01*
X32640167Y-94700142D01*
X32821555Y-94573132D01*
X32978132Y-94416555D01*
X33105142Y-94235167D01*
X33162618Y-94111907D01*
X33208790Y-94059468D01*
X33275983Y-94040316D01*
X33342864Y-94060531D01*
X33387381Y-94111907D01*
X33444858Y-94235167D01*
X33571868Y-94416555D01*
X33728445Y-94573132D01*
X33909833Y-94700142D01*
X33973884Y-94730009D01*
X34110513Y-94793720D01*
X34110515Y-94793720D01*
X34110520Y-94793723D01*
X34324409Y-94851035D01*
X34481974Y-94864820D01*
X34544998Y-94870334D01*
X34545000Y-94870334D01*
X34545002Y-94870334D01*
X34600147Y-94865509D01*
X34765591Y-94851035D01*
X34979480Y-94793723D01*
X35180167Y-94700142D01*
X35361555Y-94573132D01*
X35518132Y-94416555D01*
X35645142Y-94235167D01*
X35702618Y-94111907D01*
X35748790Y-94059468D01*
X35815983Y-94040316D01*
X35882864Y-94060531D01*
X35927381Y-94111907D01*
X35984858Y-94235167D01*
X36111868Y-94416555D01*
X36268445Y-94573132D01*
X36449833Y-94700142D01*
X36513884Y-94730009D01*
X36650513Y-94793720D01*
X36650515Y-94793720D01*
X36650520Y-94793723D01*
X36864409Y-94851035D01*
X37021974Y-94864820D01*
X37084998Y-94870334D01*
X37085000Y-94870334D01*
X37085002Y-94870334D01*
X37140147Y-94865509D01*
X37305591Y-94851035D01*
X37519480Y-94793723D01*
X37720167Y-94700142D01*
X37901555Y-94573132D01*
X38058132Y-94416555D01*
X38185142Y-94235167D01*
X38242618Y-94111907D01*
X38288790Y-94059468D01*
X38355983Y-94040316D01*
X38422864Y-94060531D01*
X38467381Y-94111907D01*
X38524858Y-94235167D01*
X38651868Y-94416555D01*
X38808445Y-94573132D01*
X38989833Y-94700142D01*
X39053884Y-94730009D01*
X39190513Y-94793720D01*
X39190515Y-94793720D01*
X39190520Y-94793723D01*
X39404409Y-94851035D01*
X39561974Y-94864820D01*
X39624998Y-94870334D01*
X39625000Y-94870334D01*
X39625002Y-94870334D01*
X39680147Y-94865509D01*
X39845591Y-94851035D01*
X40059480Y-94793723D01*
X40260167Y-94700142D01*
X40441555Y-94573132D01*
X40598132Y-94416555D01*
X40725142Y-94235167D01*
X40782618Y-94111907D01*
X40828790Y-94059468D01*
X40895983Y-94040316D01*
X40962864Y-94060531D01*
X41007381Y-94111907D01*
X41064858Y-94235167D01*
X41191868Y-94416555D01*
X41348445Y-94573132D01*
X41529833Y-94700142D01*
X41593884Y-94730009D01*
X41730513Y-94793720D01*
X41730515Y-94793720D01*
X41730520Y-94793723D01*
X41944409Y-94851035D01*
X42101974Y-94864820D01*
X42164998Y-94870334D01*
X42165000Y-94870334D01*
X42165002Y-94870334D01*
X42220147Y-94865509D01*
X42385591Y-94851035D01*
X42599480Y-94793723D01*
X42800167Y-94700142D01*
X42981555Y-94573132D01*
X43138132Y-94416555D01*
X43265142Y-94235167D01*
X43322618Y-94111907D01*
X43368790Y-94059468D01*
X43435983Y-94040316D01*
X43502864Y-94060531D01*
X43547381Y-94111907D01*
X43604858Y-94235167D01*
X43731868Y-94416555D01*
X43888445Y-94573132D01*
X44069833Y-94700142D01*
X44133884Y-94730009D01*
X44270513Y-94793720D01*
X44270515Y-94793720D01*
X44270520Y-94793723D01*
X44484409Y-94851035D01*
X44641974Y-94864820D01*
X44704998Y-94870334D01*
X44705000Y-94870334D01*
X44705002Y-94870334D01*
X44760147Y-94865509D01*
X44925591Y-94851035D01*
X45139480Y-94793723D01*
X45340167Y-94700142D01*
X45521555Y-94573132D01*
X45678132Y-94416555D01*
X45805142Y-94235167D01*
X45862618Y-94111907D01*
X45908790Y-94059468D01*
X45975983Y-94040316D01*
X46042864Y-94060531D01*
X46087381Y-94111907D01*
X46144858Y-94235167D01*
X46271868Y-94416555D01*
X46428445Y-94573132D01*
X46609833Y-94700142D01*
X46673884Y-94730009D01*
X46810513Y-94793720D01*
X46810515Y-94793720D01*
X46810520Y-94793723D01*
X47024409Y-94851035D01*
X47181974Y-94864820D01*
X47244998Y-94870334D01*
X47245000Y-94870334D01*
X47245002Y-94870334D01*
X47300147Y-94865509D01*
X47465591Y-94851035D01*
X47679480Y-94793723D01*
X47880167Y-94700142D01*
X48061555Y-94573132D01*
X48218132Y-94416555D01*
X48345142Y-94235167D01*
X48402618Y-94111907D01*
X48448790Y-94059468D01*
X48515983Y-94040316D01*
X48582864Y-94060531D01*
X48627381Y-94111907D01*
X48684858Y-94235167D01*
X48811868Y-94416555D01*
X48968445Y-94573132D01*
X49149833Y-94700142D01*
X49213884Y-94730009D01*
X49350513Y-94793720D01*
X49350515Y-94793720D01*
X49350520Y-94793723D01*
X49564409Y-94851035D01*
X49721974Y-94864820D01*
X49784998Y-94870334D01*
X49785000Y-94870334D01*
X49785002Y-94870334D01*
X49840147Y-94865509D01*
X50005591Y-94851035D01*
X50219480Y-94793723D01*
X50420167Y-94700142D01*
X50601555Y-94573132D01*
X50758132Y-94416555D01*
X50885142Y-94235167D01*
X50942618Y-94111907D01*
X50988790Y-94059468D01*
X51055983Y-94040316D01*
X51122864Y-94060531D01*
X51167381Y-94111907D01*
X51224858Y-94235167D01*
X51351868Y-94416555D01*
X51508445Y-94573132D01*
X51689833Y-94700142D01*
X51753884Y-94730009D01*
X51890513Y-94793720D01*
X51890515Y-94793720D01*
X51890520Y-94793723D01*
X52104409Y-94851035D01*
X52261974Y-94864820D01*
X52324998Y-94870334D01*
X52325000Y-94870334D01*
X52325002Y-94870334D01*
X52380147Y-94865509D01*
X52545591Y-94851035D01*
X52759480Y-94793723D01*
X52960167Y-94700142D01*
X53141555Y-94573132D01*
X53298132Y-94416555D01*
X53425142Y-94235167D01*
X53482895Y-94111312D01*
X53529064Y-94058878D01*
X53596258Y-94039725D01*
X53663139Y-94059940D01*
X53707657Y-94111316D01*
X53765295Y-94234919D01*
X53811103Y-94300341D01*
X53811105Y-94300342D01*
X54373866Y-93737580D01*
X54396318Y-93814040D01*
X54475605Y-93937413D01*
X54586438Y-94033451D01*
X54719839Y-94094373D01*
X54723633Y-94094918D01*
X54164656Y-94653894D01*
X54230083Y-94699706D01*
X54230085Y-94699707D01*
X54430690Y-94793250D01*
X54430699Y-94793254D01*
X54644490Y-94850538D01*
X54644500Y-94850540D01*
X54864999Y-94869832D01*
X54865001Y-94869832D01*
X55085499Y-94850540D01*
X55085509Y-94850538D01*
X55299300Y-94793254D01*
X55299309Y-94793250D01*
X55499915Y-94699706D01*
X55565342Y-94653894D01*
X55006366Y-94094918D01*
X55010161Y-94094373D01*
X55143562Y-94033451D01*
X55254395Y-93937413D01*
X55333682Y-93814040D01*
X55356133Y-93737580D01*
X55918894Y-94300342D01*
X55964707Y-94234914D01*
X55964708Y-94234912D01*
X56022342Y-94111317D01*
X56068514Y-94058877D01*
X56135707Y-94039725D01*
X56202589Y-94059941D01*
X56247106Y-94111317D01*
X56304858Y-94235167D01*
X56431868Y-94416555D01*
X56588445Y-94573132D01*
X56769833Y-94700142D01*
X56833884Y-94730009D01*
X56970513Y-94793720D01*
X56970515Y-94793720D01*
X56970520Y-94793723D01*
X57184409Y-94851035D01*
X57341974Y-94864820D01*
X57404998Y-94870334D01*
X57405000Y-94870334D01*
X57405002Y-94870334D01*
X57460147Y-94865509D01*
X57625591Y-94851035D01*
X57839480Y-94793723D01*
X58040167Y-94700142D01*
X58221555Y-94573132D01*
X58378132Y-94416555D01*
X58505142Y-94235167D01*
X58562618Y-94111907D01*
X58608790Y-94059468D01*
X58675983Y-94040316D01*
X58742864Y-94060531D01*
X58787381Y-94111907D01*
X58844858Y-94235167D01*
X58971868Y-94416555D01*
X59128445Y-94573132D01*
X59309833Y-94700142D01*
X59373884Y-94730009D01*
X59510513Y-94793720D01*
X59510515Y-94793720D01*
X59510520Y-94793723D01*
X59724409Y-94851035D01*
X59881974Y-94864820D01*
X59944998Y-94870334D01*
X59945000Y-94870334D01*
X59945002Y-94870334D01*
X60000147Y-94865509D01*
X60165591Y-94851035D01*
X60379480Y-94793723D01*
X60580167Y-94700142D01*
X60761555Y-94573132D01*
X60918132Y-94416555D01*
X61045142Y-94235167D01*
X61102618Y-94111907D01*
X61148790Y-94059468D01*
X61215983Y-94040316D01*
X61282864Y-94060531D01*
X61327381Y-94111907D01*
X61384858Y-94235167D01*
X61511868Y-94416555D01*
X61668445Y-94573132D01*
X61849833Y-94700142D01*
X61913884Y-94730009D01*
X62050513Y-94793720D01*
X62050515Y-94793720D01*
X62050520Y-94793723D01*
X62264409Y-94851035D01*
X62421974Y-94864820D01*
X62484998Y-94870334D01*
X62485000Y-94870334D01*
X62485002Y-94870334D01*
X62540147Y-94865509D01*
X62705591Y-94851035D01*
X62919480Y-94793723D01*
X63120167Y-94700142D01*
X63301555Y-94573132D01*
X63458132Y-94416555D01*
X63585142Y-94235167D01*
X63642618Y-94111907D01*
X63688790Y-94059468D01*
X63755983Y-94040316D01*
X63822864Y-94060531D01*
X63867381Y-94111907D01*
X63924858Y-94235167D01*
X64051868Y-94416555D01*
X64208445Y-94573132D01*
X64389833Y-94700142D01*
X64453884Y-94730009D01*
X64590513Y-94793720D01*
X64590515Y-94793720D01*
X64590520Y-94793723D01*
X64804409Y-94851035D01*
X64961974Y-94864820D01*
X65024998Y-94870334D01*
X65025000Y-94870334D01*
X65025002Y-94870334D01*
X65080147Y-94865509D01*
X65245591Y-94851035D01*
X65459480Y-94793723D01*
X65660167Y-94700142D01*
X65841555Y-94573132D01*
X65998132Y-94416555D01*
X66125142Y-94235167D01*
X66182618Y-94111907D01*
X66228790Y-94059468D01*
X66295983Y-94040316D01*
X66362864Y-94060531D01*
X66407381Y-94111907D01*
X66464858Y-94235167D01*
X66591868Y-94416555D01*
X66748445Y-94573132D01*
X66929833Y-94700142D01*
X66993884Y-94730009D01*
X67130513Y-94793720D01*
X67130515Y-94793720D01*
X67130520Y-94793723D01*
X67344409Y-94851035D01*
X67501974Y-94864820D01*
X67564998Y-94870334D01*
X67565000Y-94870334D01*
X67565002Y-94870334D01*
X67620147Y-94865509D01*
X67785591Y-94851035D01*
X67999480Y-94793723D01*
X68200167Y-94700142D01*
X68381555Y-94573132D01*
X68538132Y-94416555D01*
X68665142Y-94235167D01*
X68722895Y-94111312D01*
X68769064Y-94058878D01*
X68836258Y-94039725D01*
X68903139Y-94059940D01*
X68947657Y-94111316D01*
X69005295Y-94234919D01*
X69051103Y-94300341D01*
X69051105Y-94300342D01*
X69613866Y-93737580D01*
X69636318Y-93814040D01*
X69715605Y-93937413D01*
X69826438Y-94033451D01*
X69959839Y-94094373D01*
X69963633Y-94094918D01*
X69404656Y-94653894D01*
X69470083Y-94699706D01*
X69470085Y-94699707D01*
X69670690Y-94793250D01*
X69670699Y-94793254D01*
X69884490Y-94850538D01*
X69884500Y-94850540D01*
X70104999Y-94869832D01*
X70105001Y-94869832D01*
X70325499Y-94850540D01*
X70325509Y-94850538D01*
X70539300Y-94793254D01*
X70539309Y-94793250D01*
X70739915Y-94699706D01*
X70805342Y-94653894D01*
X70246366Y-94094918D01*
X70250161Y-94094373D01*
X70383562Y-94033451D01*
X70494395Y-93937413D01*
X70573682Y-93814040D01*
X70596133Y-93737580D01*
X71158894Y-94300342D01*
X71204706Y-94234915D01*
X71298250Y-94034309D01*
X71298254Y-94034300D01*
X71355538Y-93820509D01*
X71355540Y-93820499D01*
X71374832Y-93600000D01*
X71374832Y-93599999D01*
X71355540Y-93379500D01*
X71355538Y-93379490D01*
X71298254Y-93165699D01*
X71298250Y-93165690D01*
X71204707Y-92965085D01*
X71204706Y-92965083D01*
X71158894Y-92899657D01*
X71158894Y-92899656D01*
X70596132Y-93462418D01*
X70573682Y-93385960D01*
X70494395Y-93262587D01*
X70383562Y-93166549D01*
X70250161Y-93105627D01*
X70246366Y-93105081D01*
X70805342Y-92546105D01*
X70805341Y-92546103D01*
X70739919Y-92500295D01*
X70539309Y-92406749D01*
X70539300Y-92406745D01*
X70325509Y-92349461D01*
X70325499Y-92349459D01*
X70105001Y-92330168D01*
X70104999Y-92330168D01*
X69884500Y-92349459D01*
X69884490Y-92349461D01*
X69670699Y-92406745D01*
X69670690Y-92406749D01*
X69470084Y-92500293D01*
X69404657Y-92546104D01*
X69963634Y-93105081D01*
X69959839Y-93105627D01*
X69826438Y-93166549D01*
X69715605Y-93262587D01*
X69636318Y-93385960D01*
X69613866Y-93462419D01*
X69051104Y-92899657D01*
X69005293Y-92965084D01*
X68947657Y-93088683D01*
X68901484Y-93141122D01*
X68834290Y-93160274D01*
X68767409Y-93140058D01*
X68722893Y-93088682D01*
X68722793Y-93088468D01*
X68665142Y-92964833D01*
X68538132Y-92783445D01*
X68381555Y-92626868D01*
X68200167Y-92499858D01*
X68200163Y-92499856D01*
X67999486Y-92406279D01*
X67999475Y-92406275D01*
X67785592Y-92348965D01*
X67785585Y-92348964D01*
X67565002Y-92329666D01*
X67564998Y-92329666D01*
X67344414Y-92348964D01*
X67344407Y-92348965D01*
X67130524Y-92406275D01*
X67130513Y-92406279D01*
X66929836Y-92499856D01*
X66929834Y-92499857D01*
X66748444Y-92626868D01*
X66591868Y-92783444D01*
X66464857Y-92964834D01*
X66464856Y-92964836D01*
X66407382Y-93088091D01*
X66361210Y-93140531D01*
X66294017Y-93159683D01*
X66227135Y-93139467D01*
X66182618Y-93088091D01*
X66154050Y-93026828D01*
X66125142Y-92964833D01*
X65998132Y-92783445D01*
X65841555Y-92626868D01*
X65801873Y-92599082D01*
X65778375Y-92582628D01*
X65734751Y-92528051D01*
X65725500Y-92481054D01*
X65725500Y-92067763D01*
X72145787Y-92067763D01*
X72175413Y-92337013D01*
X72175415Y-92337024D01*
X72243926Y-92599082D01*
X72243928Y-92599088D01*
X72349870Y-92848390D01*
X72421087Y-92965083D01*
X72490979Y-93079605D01*
X72490986Y-93079615D01*
X72664253Y-93287819D01*
X72664259Y-93287824D01*
X72766472Y-93379407D01*
X72865998Y-93468582D01*
X73091910Y-93618044D01*
X73337176Y-93733020D01*
X73337183Y-93733022D01*
X73337185Y-93733023D01*
X73596557Y-93811057D01*
X73596564Y-93811058D01*
X73596569Y-93811060D01*
X73864561Y-93850500D01*
X73864566Y-93850500D01*
X74067629Y-93850500D01*
X74067631Y-93850500D01*
X74067636Y-93850499D01*
X74067648Y-93850499D01*
X74105191Y-93847750D01*
X74270156Y-93835677D01*
X74382758Y-93810593D01*
X74534546Y-93776782D01*
X74534548Y-93776781D01*
X74534553Y-93776780D01*
X74787558Y-93680014D01*
X75023777Y-93547441D01*
X75238177Y-93381888D01*
X75426186Y-93186881D01*
X75583799Y-92966579D01*
X75657787Y-92822669D01*
X75707649Y-92725690D01*
X75707651Y-92725684D01*
X75707656Y-92725675D01*
X75795118Y-92469305D01*
X75844319Y-92202933D01*
X75854212Y-91932235D01*
X75824586Y-91662982D01*
X75756072Y-91400912D01*
X75650130Y-91151610D01*
X75509018Y-90920390D01*
X75507845Y-90918981D01*
X75335746Y-90712180D01*
X75335740Y-90712175D01*
X75134002Y-90531418D01*
X74908092Y-90381957D01*
X74908090Y-90381956D01*
X74662824Y-90266980D01*
X74662819Y-90266978D01*
X74662814Y-90266976D01*
X74403442Y-90188942D01*
X74403428Y-90188939D01*
X74287791Y-90171921D01*
X74135439Y-90149500D01*
X73932369Y-90149500D01*
X73932351Y-90149500D01*
X73729844Y-90164323D01*
X73729831Y-90164325D01*
X73465453Y-90223217D01*
X73465446Y-90223220D01*
X73212439Y-90319987D01*
X72976226Y-90452557D01*
X72761822Y-90618112D01*
X72573822Y-90813109D01*
X72573816Y-90813116D01*
X72416202Y-91033419D01*
X72416199Y-91033424D01*
X72292350Y-91274309D01*
X72292343Y-91274327D01*
X72204884Y-91530685D01*
X72204882Y-91530695D01*
X72163933Y-91752394D01*
X72155681Y-91797068D01*
X72155680Y-91797075D01*
X72145787Y-92067763D01*
X65725500Y-92067763D01*
X65725500Y-87816518D01*
X65745185Y-87749479D01*
X65761814Y-87728842D01*
X76977731Y-76512924D01*
X76983151Y-76507822D01*
X77028183Y-76467929D01*
X77062362Y-76418411D01*
X77066789Y-76412396D01*
X77103878Y-76365056D01*
X77108037Y-76355813D01*
X77119061Y-76336268D01*
X77124818Y-76327930D01*
X77146145Y-76271694D01*
X77149013Y-76264770D01*
X77173693Y-76209936D01*
X77173693Y-76209934D01*
X77173695Y-76209931D01*
X77175522Y-76199959D01*
X77181546Y-76178347D01*
X77185140Y-76168872D01*
X77192387Y-76109184D01*
X77193514Y-76101777D01*
X77204358Y-76042606D01*
X77200726Y-75982565D01*
X77200500Y-75975078D01*
X77200500Y-44199908D01*
X77200726Y-44192421D01*
X77204357Y-44132394D01*
X77204356Y-44132391D01*
X77203576Y-44128136D01*
X77196754Y-44090903D01*
X77193516Y-44073235D01*
X77192389Y-44065830D01*
X77185140Y-44006129D01*
X77185139Y-44006125D01*
X77181546Y-43996651D01*
X77175519Y-43975029D01*
X77173694Y-43965070D01*
X77173694Y-43965068D01*
X77149010Y-43910223D01*
X77146149Y-43903317D01*
X77124818Y-43847070D01*
X77119058Y-43838726D01*
X77108035Y-43819180D01*
X77103878Y-43809943D01*
X77066763Y-43762569D01*
X77062345Y-43756563D01*
X77028185Y-43707073D01*
X77028183Y-43707071D01*
X76983153Y-43667178D01*
X76977715Y-43662058D01*
X72786236Y-39470579D01*
X72752751Y-39409256D01*
X72754142Y-39350804D01*
X72785063Y-39235408D01*
X72805659Y-39000000D01*
X72804897Y-38991296D01*
X72799686Y-38931728D01*
X72785063Y-38764592D01*
X72723903Y-38536337D01*
X72624035Y-38322171D01*
X72624034Y-38322169D01*
X72488494Y-38128597D01*
X72321402Y-37961505D01*
X72127830Y-37825965D01*
X72127828Y-37825964D01*
X71989179Y-37761311D01*
X71913663Y-37726097D01*
X71913659Y-37726096D01*
X71913655Y-37726094D01*
X71685413Y-37664938D01*
X71685403Y-37664936D01*
X71508967Y-37649500D01*
X71508966Y-37649500D01*
X71141034Y-37649500D01*
X71141033Y-37649500D01*
X70964596Y-37664936D01*
X70964586Y-37664938D01*
X70736344Y-37726094D01*
X70736335Y-37726098D01*
X70522171Y-37825964D01*
X70522169Y-37825965D01*
X70328597Y-37961505D01*
X70161506Y-38128597D01*
X70161501Y-38128604D01*
X70025967Y-38322165D01*
X70025965Y-38322169D01*
X69926098Y-38536335D01*
X69926094Y-38536344D01*
X69864938Y-38764586D01*
X69864936Y-38764596D01*
X69844341Y-38999999D01*
X69844341Y-39000000D01*
X69864936Y-39235403D01*
X69864938Y-39235413D01*
X69926094Y-39463655D01*
X69926096Y-39463659D01*
X69926097Y-39463663D01*
X69976031Y-39570746D01*
X70025964Y-39677828D01*
X70025965Y-39677830D01*
X70161505Y-39871402D01*
X70328597Y-40038494D01*
X70485595Y-40148425D01*
X70529220Y-40203002D01*
X70536414Y-40272500D01*
X70504891Y-40334855D01*
X70485595Y-40351575D01*
X70328597Y-40461505D01*
X70161506Y-40628597D01*
X70161501Y-40628604D01*
X70025967Y-40822165D01*
X70025965Y-40822169D01*
X69926098Y-41036335D01*
X69926094Y-41036344D01*
X69864938Y-41264586D01*
X69864936Y-41264596D01*
X69844341Y-41499999D01*
X69844341Y-41500000D01*
X69864936Y-41735403D01*
X69864938Y-41735413D01*
X69926094Y-41963655D01*
X69926096Y-41963659D01*
X69926097Y-41963663D01*
X69931005Y-41974188D01*
X70025964Y-42177828D01*
X70025965Y-42177830D01*
X70161505Y-42371402D01*
X70328597Y-42538494D01*
X70486031Y-42648730D01*
X70529656Y-42703307D01*
X70536850Y-42772805D01*
X70505327Y-42835160D01*
X70486032Y-42851880D01*
X70328922Y-42961890D01*
X70328920Y-42961891D01*
X70161894Y-43128917D01*
X70026399Y-43322421D01*
X69926570Y-43536507D01*
X69926567Y-43536513D01*
X69869364Y-43749999D01*
X69869364Y-43750000D01*
X70921031Y-43750000D01*
X70888481Y-43800649D01*
X70850000Y-43931705D01*
X70850000Y-44068295D01*
X70888481Y-44199351D01*
X70921031Y-44250000D01*
X69869364Y-44250000D01*
X69926567Y-44463486D01*
X69926570Y-44463492D01*
X70026399Y-44677577D01*
X70026400Y-44677579D01*
X70161886Y-44871073D01*
X70309143Y-45018331D01*
X70342627Y-45079654D01*
X70337643Y-45149346D01*
X70295771Y-45205279D01*
X70286558Y-45211550D01*
X70131347Y-45307285D01*
X70131343Y-45307288D01*
X70007289Y-45431342D01*
X69915187Y-45580663D01*
X69915186Y-45580666D01*
X69860001Y-45747203D01*
X69860001Y-45747204D01*
X69860000Y-45747204D01*
X69849500Y-45849983D01*
X69849500Y-47150001D01*
X69849501Y-47150018D01*
X69860000Y-47252796D01*
X69860001Y-47252799D01*
X69900525Y-47375090D01*
X69915186Y-47419334D01*
X70007288Y-47568656D01*
X70131344Y-47692712D01*
X70280666Y-47784814D01*
X70447203Y-47839999D01*
X70549991Y-47850500D01*
X72100008Y-47850499D01*
X72202797Y-47839999D01*
X72240266Y-47827582D01*
X72310094Y-47825181D01*
X72366951Y-47857608D01*
X73263181Y-48753838D01*
X73296666Y-48815161D01*
X73299500Y-48841519D01*
X73299500Y-51775500D01*
X73279815Y-51842539D01*
X73227011Y-51888294D01*
X73175500Y-51899500D01*
X73105354Y-51899500D01*
X73072897Y-51906398D01*
X72920197Y-51938855D01*
X72920192Y-51938857D01*
X72747270Y-52015848D01*
X72747265Y-52015851D01*
X72664729Y-52075818D01*
X72598923Y-52099298D01*
X72591844Y-52099500D01*
X72560759Y-52099500D01*
X72493720Y-52079815D01*
X72473078Y-52063181D01*
X72321402Y-51911505D01*
X72127830Y-51775965D01*
X72127828Y-51775964D01*
X72020746Y-51726031D01*
X71913663Y-51676097D01*
X71913659Y-51676096D01*
X71913655Y-51676094D01*
X71685413Y-51614938D01*
X71685403Y-51614936D01*
X71508967Y-51599500D01*
X71508966Y-51599500D01*
X71141034Y-51599500D01*
X71141033Y-51599500D01*
X70964596Y-51614936D01*
X70964586Y-51614938D01*
X70736344Y-51676094D01*
X70736335Y-51676098D01*
X70522171Y-51775964D01*
X70522169Y-51775965D01*
X70328597Y-51911505D01*
X70161506Y-52078597D01*
X70161501Y-52078604D01*
X70025967Y-52272165D01*
X70025965Y-52272169D01*
X69926098Y-52486335D01*
X69926094Y-52486344D01*
X69864938Y-52714586D01*
X69864936Y-52714596D01*
X69844341Y-52949999D01*
X69844341Y-52950000D01*
X69864936Y-53185403D01*
X69864938Y-53185413D01*
X69926094Y-53413655D01*
X69926096Y-53413659D01*
X69926097Y-53413663D01*
X69976031Y-53520746D01*
X70025964Y-53627828D01*
X70025965Y-53627830D01*
X70161505Y-53821402D01*
X70328597Y-53988494D01*
X70485595Y-54098425D01*
X70529220Y-54153002D01*
X70536414Y-54222500D01*
X70504891Y-54284855D01*
X70485595Y-54301575D01*
X70328597Y-54411505D01*
X70161506Y-54578597D01*
X70161501Y-54578604D01*
X70025967Y-54772165D01*
X70025965Y-54772169D01*
X69926098Y-54986335D01*
X69926094Y-54986344D01*
X69864938Y-55214586D01*
X69864936Y-55214596D01*
X69844341Y-55449999D01*
X69844341Y-55450000D01*
X69864936Y-55685403D01*
X69864938Y-55685413D01*
X69926094Y-55913655D01*
X69926096Y-55913659D01*
X69926097Y-55913663D01*
X69963162Y-55993149D01*
X70025964Y-56127828D01*
X70025965Y-56127830D01*
X70161505Y-56321402D01*
X70328597Y-56488494D01*
X70485595Y-56598425D01*
X70529220Y-56653002D01*
X70536414Y-56722500D01*
X70504891Y-56784855D01*
X70485595Y-56801575D01*
X70328597Y-56911505D01*
X70161506Y-57078597D01*
X70161501Y-57078604D01*
X70025967Y-57272165D01*
X70025965Y-57272169D01*
X69926098Y-57486335D01*
X69926094Y-57486344D01*
X69864938Y-57714586D01*
X69864936Y-57714596D01*
X69844341Y-57949999D01*
X69844341Y-57950000D01*
X69864936Y-58185403D01*
X69864938Y-58185413D01*
X69926094Y-58413655D01*
X69926096Y-58413659D01*
X69926097Y-58413663D01*
X69927281Y-58416202D01*
X70025964Y-58627828D01*
X70025965Y-58627830D01*
X70161505Y-58821402D01*
X70328597Y-58988494D01*
X70486031Y-59098730D01*
X70529656Y-59153307D01*
X70536850Y-59222805D01*
X70505327Y-59285160D01*
X70486032Y-59301880D01*
X70328922Y-59411890D01*
X70328920Y-59411891D01*
X70161894Y-59578917D01*
X70026399Y-59772421D01*
X69926570Y-59986507D01*
X69926567Y-59986513D01*
X69869364Y-60199999D01*
X69869364Y-60200000D01*
X70921031Y-60200000D01*
X70888481Y-60250649D01*
X70850000Y-60381705D01*
X70850000Y-60518295D01*
X70888481Y-60649351D01*
X70921031Y-60700000D01*
X69869364Y-60700000D01*
X69926567Y-60913486D01*
X69926570Y-60913492D01*
X70026399Y-61127577D01*
X70026400Y-61127579D01*
X70161886Y-61321073D01*
X70309143Y-61468331D01*
X70342627Y-61529654D01*
X70337643Y-61599346D01*
X70295771Y-61655279D01*
X70286558Y-61661550D01*
X70131347Y-61757285D01*
X70131343Y-61757288D01*
X70007289Y-61881342D01*
X69915187Y-62030663D01*
X69915186Y-62030666D01*
X69860001Y-62197203D01*
X69860001Y-62197204D01*
X69860000Y-62197204D01*
X69849500Y-62299983D01*
X69849500Y-63489546D01*
X69829815Y-63556585D01*
X69813181Y-63577227D01*
X69352228Y-64038181D01*
X69290905Y-64071666D01*
X69264547Y-64074500D01*
X65622107Y-64074500D01*
X65555068Y-64054815D01*
X65509313Y-64002011D01*
X65499369Y-63932853D01*
X65516567Y-63885405D01*
X65526480Y-63869334D01*
X65581665Y-63702797D01*
X65592166Y-63600009D01*
X65592165Y-62299992D01*
X65589745Y-62276306D01*
X65581665Y-62197203D01*
X65581664Y-62197200D01*
X65526480Y-62030666D01*
X65434378Y-61881344D01*
X65310322Y-61757288D01*
X65161000Y-61665186D01*
X65155107Y-61661551D01*
X65108383Y-61609603D01*
X65097160Y-61540640D01*
X65125004Y-61476558D01*
X65132523Y-61468331D01*
X65279771Y-61321082D01*
X65415266Y-61127578D01*
X65515095Y-60913492D01*
X65515098Y-60913486D01*
X65572302Y-60700000D01*
X64525352Y-60700000D01*
X64551159Y-60659844D01*
X64591666Y-60521889D01*
X64591666Y-60378111D01*
X64551159Y-60240156D01*
X64525352Y-60200000D01*
X65572302Y-60200000D01*
X65572301Y-60199999D01*
X65515098Y-59986513D01*
X65515095Y-59986507D01*
X65415266Y-59772422D01*
X65415265Y-59772420D01*
X65279779Y-59578926D01*
X65279774Y-59578920D01*
X65112745Y-59411891D01*
X65112739Y-59411886D01*
X64919245Y-59276400D01*
X64919243Y-59276399D01*
X64705158Y-59176570D01*
X64705149Y-59176566D01*
X64476992Y-59115432D01*
X64476982Y-59115430D01*
X64341666Y-59103590D01*
X64341666Y-60014498D01*
X64233981Y-59965320D01*
X64127429Y-59950000D01*
X64055903Y-59950000D01*
X63949351Y-59965320D01*
X63841666Y-60014498D01*
X63841666Y-59103591D01*
X63841665Y-59103590D01*
X63706349Y-59115430D01*
X63706339Y-59115432D01*
X63478182Y-59176566D01*
X63478173Y-59176570D01*
X63264088Y-59276399D01*
X63264086Y-59276400D01*
X63070592Y-59411886D01*
X63070586Y-59411891D01*
X62903560Y-59578917D01*
X62768065Y-59772421D01*
X62668236Y-59986507D01*
X62668233Y-59986513D01*
X62611030Y-60199999D01*
X62611030Y-60200000D01*
X63657980Y-60200000D01*
X63632173Y-60240156D01*
X63591666Y-60378111D01*
X63591666Y-60521889D01*
X63632173Y-60659844D01*
X63657980Y-60700000D01*
X62611030Y-60700000D01*
X62668233Y-60913486D01*
X62668236Y-60913492D01*
X62768065Y-61127577D01*
X62768066Y-61127579D01*
X62903552Y-61321073D01*
X63050809Y-61468331D01*
X63084293Y-61529654D01*
X63079309Y-61599346D01*
X63037437Y-61655279D01*
X63028224Y-61661550D01*
X62873013Y-61757285D01*
X62873009Y-61757288D01*
X62748955Y-61881342D01*
X62656853Y-62030663D01*
X62656852Y-62030666D01*
X62612501Y-62164505D01*
X62572730Y-62221949D01*
X62508215Y-62248772D01*
X62494797Y-62249500D01*
X62074921Y-62249500D01*
X62067433Y-62249274D01*
X62007396Y-62245642D01*
X62007388Y-62245642D01*
X61948227Y-62256483D01*
X61940827Y-62257610D01*
X61881128Y-62264860D01*
X61881121Y-62264861D01*
X61871647Y-62268454D01*
X61850049Y-62274475D01*
X61840068Y-62276305D01*
X61840063Y-62276306D01*
X61785212Y-62300992D01*
X61778296Y-62303857D01*
X61722070Y-62325181D01*
X61722066Y-62325184D01*
X61713723Y-62330942D01*
X61694188Y-62341960D01*
X61684948Y-62346119D01*
X61684938Y-62346124D01*
X61637597Y-62383213D01*
X61631569Y-62387649D01*
X61582068Y-62421819D01*
X61542183Y-62466838D01*
X61537051Y-62472290D01*
X60941781Y-63067560D01*
X60880458Y-63101045D01*
X60879882Y-63101169D01*
X60820196Y-63113856D01*
X60820192Y-63113857D01*
X60647270Y-63190848D01*
X60647265Y-63190851D01*
X60494129Y-63302111D01*
X60367466Y-63442785D01*
X60272824Y-63606711D01*
X60272818Y-63606722D01*
X60214327Y-63786740D01*
X60214326Y-63786744D01*
X60195753Y-63963462D01*
X60169168Y-64028076D01*
X60111871Y-64068061D01*
X60072432Y-64074500D01*
X59124499Y-64074500D01*
X59057460Y-64054815D01*
X59011705Y-64002011D01*
X59000499Y-63950500D01*
X59000499Y-63652129D01*
X59000498Y-63652123D01*
X59000497Y-63652116D01*
X58994091Y-63592517D01*
X58988388Y-63577227D01*
X58943797Y-63457671D01*
X58943793Y-63457664D01*
X58857547Y-63342455D01*
X58857544Y-63342452D01*
X58742335Y-63256206D01*
X58742328Y-63256202D01*
X58607482Y-63205908D01*
X58607483Y-63205908D01*
X58547883Y-63199501D01*
X58547881Y-63199500D01*
X58547873Y-63199500D01*
X58547864Y-63199500D01*
X56452129Y-63199500D01*
X56452123Y-63199501D01*
X56392516Y-63205908D01*
X56257671Y-63256202D01*
X56257664Y-63256206D01*
X56142455Y-63342452D01*
X56142452Y-63342455D01*
X56056206Y-63457664D01*
X56056202Y-63457671D01*
X56005908Y-63592517D01*
X55999675Y-63650500D01*
X55999501Y-63652123D01*
X55999500Y-63652135D01*
X55999500Y-63875500D01*
X55979815Y-63942539D01*
X55927011Y-63988294D01*
X55875500Y-63999500D01*
X53676519Y-63999500D01*
X53609480Y-63979815D01*
X53588838Y-63963181D01*
X51165874Y-61540217D01*
X51132389Y-61478894D01*
X51130027Y-61441731D01*
X51144177Y-61280000D01*
X51125503Y-61066556D01*
X51070049Y-60859597D01*
X50979499Y-60665412D01*
X50856604Y-60489900D01*
X50705100Y-60338396D01*
X50529589Y-60215501D01*
X50335403Y-60124951D01*
X50335402Y-60124950D01*
X50330496Y-60122663D01*
X50331413Y-60120695D01*
X50282683Y-60084778D01*
X50257780Y-60019497D01*
X50272124Y-59951115D01*
X50321161Y-59901344D01*
X50330441Y-59897112D01*
X50330326Y-59896865D01*
X50529333Y-59804066D01*
X50529341Y-59804062D01*
X50585903Y-59764456D01*
X50021035Y-59199587D01*
X50048776Y-59195599D01*
X50171714Y-59139455D01*
X50273855Y-59050949D01*
X50346923Y-58937253D01*
X50373907Y-58845354D01*
X50939456Y-59410903D01*
X50979062Y-59354341D01*
X50979066Y-59354333D01*
X51069574Y-59160238D01*
X51069579Y-59160224D01*
X51125007Y-58953362D01*
X51125009Y-58953351D01*
X51143675Y-58740002D01*
X51143675Y-58739997D01*
X51125009Y-58526648D01*
X51125007Y-58526637D01*
X51069579Y-58319775D01*
X51069575Y-58319766D01*
X50979061Y-58125659D01*
X50939456Y-58069096D01*
X50939455Y-58069095D01*
X50373906Y-58634644D01*
X50346923Y-58542747D01*
X50273855Y-58429051D01*
X50171714Y-58340545D01*
X50048776Y-58284401D01*
X50021035Y-58280412D01*
X50585903Y-57715544D01*
X50585902Y-57715543D01*
X50529338Y-57675936D01*
X50529336Y-57675935D01*
X50497052Y-57660881D01*
X50444613Y-57614709D01*
X50425461Y-57547515D01*
X50445677Y-57480634D01*
X50498842Y-57435299D01*
X50549457Y-57424499D01*
X50686871Y-57424499D01*
X50686872Y-57424499D01*
X50746483Y-57418091D01*
X50881331Y-57367796D01*
X50996546Y-57281546D01*
X51082796Y-57166331D01*
X51133091Y-57031483D01*
X51139500Y-56971873D01*
X51139500Y-56920833D01*
X60215373Y-56920833D01*
X60235159Y-57109089D01*
X60235160Y-57109092D01*
X60293651Y-57289110D01*
X60293654Y-57289117D01*
X60388300Y-57453049D01*
X60514962Y-57593721D01*
X60668098Y-57704981D01*
X60668103Y-57704984D01*
X60841025Y-57781975D01*
X60841030Y-57781977D01*
X61026187Y-57821333D01*
X61026188Y-57821333D01*
X61215477Y-57821333D01*
X61215479Y-57821333D01*
X61400636Y-57781977D01*
X61573563Y-57704984D01*
X61726704Y-57593721D01*
X61853366Y-57453049D01*
X61948012Y-57289117D01*
X62006507Y-57109089D01*
X62011697Y-57059702D01*
X62038280Y-56995091D01*
X62047327Y-56984994D01*
X63695504Y-55336818D01*
X63756827Y-55303333D01*
X63783185Y-55300499D01*
X64891668Y-55300499D01*
X64891674Y-55300499D01*
X64994463Y-55289999D01*
X65161000Y-55234814D01*
X65310322Y-55142712D01*
X65434378Y-55018656D01*
X65526480Y-54869334D01*
X65581665Y-54702797D01*
X65592166Y-54600009D01*
X65592165Y-53299992D01*
X65581665Y-53197203D01*
X65526480Y-53030666D01*
X65434378Y-52881344D01*
X65310322Y-52757288D01*
X65161000Y-52665186D01*
X65155107Y-52661551D01*
X65108383Y-52609603D01*
X65097160Y-52540640D01*
X65125004Y-52476558D01*
X65132523Y-52468331D01*
X65279771Y-52321082D01*
X65415266Y-52127578D01*
X65515095Y-51913492D01*
X65515098Y-51913486D01*
X65572302Y-51700000D01*
X64525352Y-51700000D01*
X64551159Y-51659844D01*
X64591666Y-51521889D01*
X64591666Y-51378111D01*
X64551159Y-51240156D01*
X64525352Y-51200000D01*
X65572302Y-51200000D01*
X65572301Y-51199999D01*
X65515098Y-50986513D01*
X65515095Y-50986507D01*
X65415266Y-50772422D01*
X65415265Y-50772420D01*
X65279779Y-50578926D01*
X65279774Y-50578920D01*
X65112745Y-50411891D01*
X65112739Y-50411886D01*
X64919245Y-50276400D01*
X64919243Y-50276399D01*
X64705158Y-50176570D01*
X64705149Y-50176566D01*
X64476992Y-50115432D01*
X64476982Y-50115430D01*
X64341666Y-50103590D01*
X64341666Y-51014498D01*
X64233981Y-50965320D01*
X64127429Y-50950000D01*
X64055903Y-50950000D01*
X63949351Y-50965320D01*
X63841666Y-51014498D01*
X63841666Y-50103591D01*
X63841665Y-50103590D01*
X63706349Y-50115430D01*
X63706339Y-50115432D01*
X63478182Y-50176566D01*
X63478173Y-50176570D01*
X63264088Y-50276399D01*
X63264086Y-50276400D01*
X63070592Y-50411886D01*
X63070586Y-50411891D01*
X62903560Y-50578917D01*
X62768065Y-50772421D01*
X62668236Y-50986507D01*
X62668233Y-50986513D01*
X62611030Y-51199999D01*
X62611030Y-51200000D01*
X63657980Y-51200000D01*
X63632173Y-51240156D01*
X63591666Y-51378111D01*
X63591666Y-51521889D01*
X63632173Y-51659844D01*
X63657980Y-51700000D01*
X62611030Y-51700000D01*
X62668233Y-51913486D01*
X62668236Y-51913492D01*
X62768065Y-52127577D01*
X62768066Y-52127579D01*
X62903552Y-52321073D01*
X63050809Y-52468331D01*
X63084293Y-52529654D01*
X63079309Y-52599346D01*
X63037437Y-52655279D01*
X63028224Y-52661550D01*
X62873013Y-52757285D01*
X62873009Y-52757288D01*
X62748955Y-52881342D01*
X62656853Y-53030663D01*
X62656852Y-53030666D01*
X62601667Y-53197203D01*
X62601667Y-53197204D01*
X62601666Y-53197204D01*
X62591166Y-53299983D01*
X62591166Y-54408480D01*
X62571481Y-54475519D01*
X62554847Y-54496161D01*
X61057859Y-55993149D01*
X60996536Y-56026634D01*
X60995959Y-56026758D01*
X60841030Y-56059688D01*
X60841025Y-56059690D01*
X60668103Y-56136681D01*
X60668098Y-56136684D01*
X60514962Y-56247944D01*
X60388299Y-56388618D01*
X60293654Y-56552548D01*
X60293651Y-56552555D01*
X60238433Y-56722500D01*
X60235159Y-56732577D01*
X60215373Y-56920833D01*
X51139500Y-56920833D01*
X51139499Y-56466976D01*
X51141492Y-56444834D01*
X51165500Y-56312549D01*
X51165500Y-52917175D01*
X51166280Y-52903290D01*
X51170237Y-52868172D01*
X51165781Y-52802075D01*
X51165500Y-52793734D01*
X51165500Y-52783850D01*
X51165500Y-52783845D01*
X51161843Y-52743215D01*
X51161626Y-52740452D01*
X51159883Y-52714596D01*
X51155096Y-52643588D01*
X51154027Y-52639348D01*
X51150768Y-52620169D01*
X51150377Y-52615812D01*
X51124531Y-52522164D01*
X51123839Y-52519544D01*
X51100096Y-52425316D01*
X51098290Y-52421340D01*
X51091654Y-52403039D01*
X51090493Y-52398830D01*
X51048340Y-52311299D01*
X51047189Y-52308839D01*
X51007007Y-52220374D01*
X51004517Y-52216780D01*
X50994725Y-52199964D01*
X50992830Y-52196029D01*
X50992827Y-52196024D01*
X50935740Y-52117450D01*
X50934162Y-52115228D01*
X50878820Y-52035346D01*
X50875729Y-52032255D01*
X50863093Y-52017461D01*
X50860521Y-52013921D01*
X50860518Y-52013918D01*
X50790299Y-51946781D01*
X50788310Y-51944836D01*
X48793474Y-49950000D01*
X50720034Y-49950000D01*
X50739858Y-50176599D01*
X50739860Y-50176610D01*
X50798730Y-50396317D01*
X50798735Y-50396331D01*
X50894863Y-50602478D01*
X50945974Y-50675472D01*
X51627046Y-49994400D01*
X51639835Y-50075148D01*
X51697359Y-50188045D01*
X51786955Y-50277641D01*
X51899852Y-50335165D01*
X51980599Y-50347953D01*
X51299526Y-51029025D01*
X51372513Y-51080132D01*
X51372521Y-51080136D01*
X51578668Y-51176264D01*
X51578682Y-51176269D01*
X51798389Y-51235139D01*
X51798400Y-51235141D01*
X52024998Y-51254966D01*
X52025002Y-51254966D01*
X52251599Y-51235141D01*
X52251610Y-51235139D01*
X52471317Y-51176269D01*
X52471331Y-51176264D01*
X52677478Y-51080136D01*
X52750471Y-51029024D01*
X52069400Y-50347953D01*
X52150148Y-50335165D01*
X52263045Y-50277641D01*
X52352641Y-50188045D01*
X52410165Y-50075148D01*
X52422953Y-49994400D01*
X53104024Y-50675471D01*
X53155136Y-50602478D01*
X53251264Y-50396331D01*
X53251269Y-50396317D01*
X53310139Y-50176610D01*
X53310141Y-50176599D01*
X53329966Y-49950000D01*
X56015960Y-49950000D01*
X56076411Y-50188716D01*
X56176267Y-50416367D01*
X56312232Y-50624478D01*
X56480592Y-50807364D01*
X56480602Y-50807373D01*
X56676762Y-50960051D01*
X56676771Y-50960057D01*
X56895385Y-51078364D01*
X56895396Y-51078369D01*
X57130507Y-51159083D01*
X57249999Y-51179023D01*
X57250000Y-51179022D01*
X57250000Y-50135501D01*
X57357685Y-50184680D01*
X57464237Y-50200000D01*
X57535763Y-50200000D01*
X57642315Y-50184680D01*
X57750000Y-50135501D01*
X57750000Y-51179023D01*
X57869492Y-51159083D01*
X58104603Y-51078369D01*
X58104614Y-51078364D01*
X58323228Y-50960057D01*
X58323237Y-50960051D01*
X58519397Y-50807373D01*
X58519407Y-50807364D01*
X58687767Y-50624478D01*
X58823732Y-50416367D01*
X58923588Y-50188716D01*
X58984040Y-49950000D01*
X57933686Y-49950000D01*
X57959493Y-49909844D01*
X58000000Y-49771889D01*
X58000000Y-49628111D01*
X57959493Y-49490156D01*
X57933686Y-49450000D01*
X58984040Y-49450000D01*
X58923588Y-49211283D01*
X58823732Y-48983632D01*
X58687767Y-48775521D01*
X58519407Y-48592635D01*
X58519397Y-48592626D01*
X58323237Y-48439948D01*
X58323228Y-48439942D01*
X58104614Y-48321635D01*
X58104603Y-48321630D01*
X57869492Y-48240916D01*
X57750000Y-48220976D01*
X57750000Y-49264498D01*
X57642315Y-49215320D01*
X57535763Y-49200000D01*
X57464237Y-49200000D01*
X57357685Y-49215320D01*
X57250000Y-49264498D01*
X57250000Y-48220976D01*
X57249999Y-48220976D01*
X57130507Y-48240916D01*
X56895396Y-48321630D01*
X56895385Y-48321635D01*
X56676771Y-48439942D01*
X56676762Y-48439948D01*
X56480602Y-48592626D01*
X56480592Y-48592635D01*
X56312232Y-48775521D01*
X56176267Y-48983632D01*
X56076411Y-49211283D01*
X56015960Y-49450000D01*
X57066314Y-49450000D01*
X57040507Y-49490156D01*
X57000000Y-49628111D01*
X57000000Y-49771889D01*
X57040507Y-49909844D01*
X57066314Y-49950000D01*
X56015960Y-49950000D01*
X53329966Y-49950000D01*
X53329966Y-49949997D01*
X53310141Y-49723400D01*
X53310139Y-49723389D01*
X53251269Y-49503682D01*
X53251264Y-49503668D01*
X53155136Y-49297521D01*
X53155132Y-49297513D01*
X53104025Y-49224526D01*
X52422953Y-49905598D01*
X52410165Y-49824852D01*
X52352641Y-49711955D01*
X52263045Y-49622359D01*
X52150148Y-49564835D01*
X52069401Y-49552046D01*
X52750472Y-48870974D01*
X52677478Y-48819863D01*
X52471331Y-48723735D01*
X52471317Y-48723730D01*
X52251610Y-48664860D01*
X52251599Y-48664858D01*
X52025002Y-48645034D01*
X52024998Y-48645034D01*
X51798400Y-48664858D01*
X51798389Y-48664860D01*
X51578682Y-48723730D01*
X51578673Y-48723734D01*
X51372516Y-48819866D01*
X51372512Y-48819868D01*
X51299526Y-48870973D01*
X51299526Y-48870974D01*
X51980599Y-49552046D01*
X51899852Y-49564835D01*
X51786955Y-49622359D01*
X51697359Y-49711955D01*
X51639835Y-49824852D01*
X51627046Y-49905598D01*
X50945974Y-49224526D01*
X50945973Y-49224526D01*
X50894868Y-49297512D01*
X50894866Y-49297516D01*
X50798734Y-49503673D01*
X50798730Y-49503682D01*
X50739860Y-49723389D01*
X50739858Y-49723400D01*
X50720034Y-49949997D01*
X50720034Y-49950000D01*
X48793474Y-49950000D01*
X48183985Y-49340511D01*
X48159283Y-49305233D01*
X48158654Y-49303884D01*
X48155568Y-49297266D01*
X48155566Y-49297264D01*
X48155566Y-49297262D01*
X48025045Y-49110858D01*
X47864141Y-48949954D01*
X47677734Y-48819432D01*
X47677735Y-48819432D01*
X47672234Y-48816867D01*
X47643059Y-48797868D01*
X47632610Y-48788739D01*
X47626513Y-48783039D01*
X47619532Y-48776058D01*
X47619521Y-48776048D01*
X47588255Y-48749945D01*
X47586139Y-48748138D01*
X47513003Y-48684240D01*
X47512997Y-48684236D01*
X47512996Y-48684235D01*
X47509241Y-48681991D01*
X47493373Y-48670732D01*
X47490019Y-48667932D01*
X47490018Y-48667931D01*
X47490013Y-48667927D01*
X47405548Y-48620001D01*
X47403144Y-48618601D01*
X47319763Y-48568784D01*
X47315669Y-48567248D01*
X47298044Y-48559002D01*
X47294245Y-48556846D01*
X47202569Y-48524767D01*
X47199953Y-48523819D01*
X47109029Y-48489694D01*
X47109019Y-48489691D01*
X47104723Y-48488912D01*
X47085918Y-48483949D01*
X47081784Y-48482502D01*
X47081777Y-48482501D01*
X46985848Y-48467307D01*
X46983105Y-48466841D01*
X46887550Y-48449500D01*
X46887547Y-48449500D01*
X46883172Y-48449500D01*
X46863769Y-48447972D01*
X46859460Y-48447289D01*
X46781877Y-48449030D01*
X46714413Y-48430853D01*
X46667485Y-48379089D01*
X46655993Y-48310171D01*
X46659422Y-48294638D01*
X46659322Y-48294617D01*
X46660672Y-48288261D01*
X46660674Y-48288256D01*
X46665864Y-48238867D01*
X46692446Y-48174257D01*
X46701486Y-48164169D01*
X46952723Y-47912931D01*
X46958125Y-47907845D01*
X47003183Y-47867929D01*
X47037358Y-47818416D01*
X47041779Y-47812406D01*
X47078877Y-47765057D01*
X47083029Y-47755828D01*
X47094062Y-47736268D01*
X47094419Y-47735750D01*
X47099818Y-47727930D01*
X47121154Y-47671668D01*
X47124014Y-47664766D01*
X47148693Y-47609934D01*
X47148692Y-47609934D01*
X47148694Y-47609932D01*
X47150520Y-47599965D01*
X47156548Y-47578340D01*
X47160140Y-47568872D01*
X47167389Y-47509169D01*
X47168516Y-47501762D01*
X47179357Y-47442606D01*
X47175726Y-47382577D01*
X47175500Y-47375090D01*
X47175500Y-46591771D01*
X47195185Y-46524732D01*
X47247989Y-46478977D01*
X47317147Y-46469033D01*
X47358518Y-46482717D01*
X47495803Y-46557012D01*
X47495818Y-46557019D01*
X47709377Y-46630334D01*
X47932100Y-46667500D01*
X48157900Y-46667500D01*
X48380622Y-46630334D01*
X48594181Y-46557019D01*
X48594187Y-46557017D01*
X48792770Y-46449548D01*
X48817076Y-46430629D01*
X48817077Y-46430629D01*
X48235087Y-45848639D01*
X48334981Y-45807262D01*
X48455095Y-45715095D01*
X48547262Y-45594981D01*
X48588639Y-45495086D01*
X49169093Y-46075541D01*
X49247389Y-45955702D01*
X49338092Y-45748920D01*
X49393523Y-45530029D01*
X49393525Y-45530021D01*
X49412170Y-45305006D01*
X49412170Y-45304993D01*
X49393525Y-45079978D01*
X49393523Y-45079970D01*
X49338092Y-44861079D01*
X49247391Y-44654302D01*
X49169093Y-44534457D01*
X48588638Y-45114912D01*
X48547262Y-45015019D01*
X48455095Y-44894905D01*
X48334981Y-44802738D01*
X48235085Y-44761360D01*
X48817076Y-44179369D01*
X48817076Y-44179367D01*
X48792779Y-44160456D01*
X48792768Y-44160449D01*
X48762996Y-44144337D01*
X48713406Y-44095117D01*
X48698299Y-44026901D01*
X48722470Y-43961345D01*
X48762998Y-43926228D01*
X48793045Y-43909968D01*
X48971298Y-43771228D01*
X49124285Y-43605041D01*
X49247831Y-43415939D01*
X49338567Y-43209082D01*
X49394018Y-42990111D01*
X49406759Y-42836350D01*
X49412671Y-42765005D01*
X49412671Y-42764994D01*
X49395498Y-42557748D01*
X49394018Y-42539889D01*
X49338567Y-42320918D01*
X49247831Y-42114061D01*
X49227833Y-42083451D01*
X49124284Y-41924957D01*
X48971301Y-41758775D01*
X48971298Y-41758772D01*
X48793041Y-41620029D01*
X48793039Y-41620028D01*
X48763522Y-41604055D01*
X48713931Y-41554836D01*
X48698823Y-41486620D01*
X48722993Y-41421064D01*
X48763522Y-41385945D01*
X48793045Y-41369968D01*
X48971298Y-41231228D01*
X49124285Y-41065041D01*
X49177513Y-40983569D01*
X49230659Y-40938212D01*
X49288810Y-40927616D01*
X49317606Y-40929358D01*
X49376782Y-40918513D01*
X49384185Y-40917387D01*
X49387921Y-40916933D01*
X49443872Y-40910140D01*
X49453335Y-40906550D01*
X49474961Y-40900522D01*
X49475893Y-40900351D01*
X49484932Y-40898695D01*
X49539808Y-40873996D01*
X49546678Y-40871150D01*
X49602930Y-40849818D01*
X49611266Y-40844062D01*
X49630821Y-40833034D01*
X49640057Y-40828878D01*
X49687413Y-40791775D01*
X49693404Y-40787366D01*
X49742929Y-40753183D01*
X49782822Y-40708151D01*
X49787924Y-40702731D01*
X51977731Y-38512924D01*
X51983151Y-38507822D01*
X52028183Y-38467929D01*
X52062366Y-38418404D01*
X52066775Y-38412413D01*
X52103878Y-38365057D01*
X52108037Y-38355815D01*
X52119062Y-38336268D01*
X52124818Y-38327930D01*
X52124821Y-38327924D01*
X52146146Y-38271690D01*
X52149002Y-38264791D01*
X52173694Y-38209932D01*
X52175520Y-38199965D01*
X52181548Y-38178340D01*
X52185140Y-38168872D01*
X52192389Y-38109169D01*
X52193516Y-38101762D01*
X52199349Y-38069932D01*
X52204357Y-38042606D01*
X52200726Y-37982577D01*
X52200500Y-37975090D01*
X52200500Y-33290346D01*
X56795702Y-33290346D01*
X56805819Y-33528528D01*
X56805819Y-33528532D01*
X56856045Y-33761580D01*
X56923168Y-33928620D01*
X56944936Y-33982790D01*
X57069931Y-34185795D01*
X57227436Y-34364755D01*
X57412920Y-34514523D01*
X57621046Y-34630790D01*
X57746951Y-34675275D01*
X57845829Y-34710211D01*
X58080790Y-34750499D01*
X58080798Y-34750499D01*
X58080800Y-34750500D01*
X58080801Y-34750500D01*
X60059496Y-34750500D01*
X60059497Y-34750500D01*
X60059498Y-34750499D01*
X60059515Y-34750499D01*
X60237536Y-34735347D01*
X60237539Y-34735346D01*
X60237541Y-34735346D01*
X60468249Y-34675275D01*
X60653453Y-34591557D01*
X60685480Y-34577080D01*
X60685481Y-34577078D01*
X60685486Y-34577077D01*
X60826063Y-34482064D01*
X60892629Y-34460832D01*
X60960106Y-34478959D01*
X61007071Y-34530690D01*
X61019500Y-34584799D01*
X61019500Y-41672814D01*
X61018720Y-41686698D01*
X61014762Y-41721822D01*
X61014761Y-41721830D01*
X61019219Y-41787931D01*
X61019500Y-41796273D01*
X61019500Y-41806156D01*
X61023153Y-41846749D01*
X61023371Y-41849521D01*
X61029903Y-41946407D01*
X61029903Y-41946412D01*
X61030972Y-41950652D01*
X61034230Y-41969824D01*
X61034623Y-41974190D01*
X61060465Y-42067824D01*
X61061158Y-42070447D01*
X61073022Y-42117529D01*
X61084903Y-42164681D01*
X61086715Y-42168670D01*
X61093340Y-42186944D01*
X61094504Y-42191162D01*
X61094507Y-42191170D01*
X61136657Y-42278698D01*
X61137830Y-42281205D01*
X61140591Y-42287283D01*
X61177993Y-42369626D01*
X61177994Y-42369629D01*
X61180483Y-42373221D01*
X61190269Y-42390026D01*
X61192166Y-42393965D01*
X61192171Y-42393973D01*
X61249311Y-42472620D01*
X61250835Y-42474768D01*
X61288433Y-42529038D01*
X61306181Y-42554656D01*
X61309273Y-42557748D01*
X61321907Y-42572539D01*
X61324478Y-42576078D01*
X61324482Y-42576082D01*
X61394699Y-42643217D01*
X61396688Y-42645162D01*
X64539017Y-45787491D01*
X64564892Y-45825362D01*
X64622168Y-45955938D01*
X64745715Y-46145042D01*
X64854296Y-46262991D01*
X64898702Y-46311228D01*
X65076955Y-46449968D01*
X65275613Y-46557477D01*
X65375508Y-46591771D01*
X65489253Y-46630820D01*
X65489255Y-46630820D01*
X65489257Y-46630821D01*
X65712059Y-46668000D01*
X65712060Y-46668000D01*
X65937940Y-46668000D01*
X65937941Y-46668000D01*
X66160743Y-46630821D01*
X66374387Y-46557477D01*
X66573045Y-46449968D01*
X66751298Y-46311228D01*
X66904285Y-46145041D01*
X67027831Y-45955939D01*
X67118567Y-45749082D01*
X67174018Y-45530111D01*
X67190487Y-45331357D01*
X67192671Y-45305005D01*
X67192671Y-45304994D01*
X67174025Y-45079978D01*
X67174018Y-45079889D01*
X67118567Y-44860918D01*
X67027831Y-44654061D01*
X66920750Y-44490161D01*
X66904284Y-44464957D01*
X66751301Y-44298775D01*
X66751298Y-44298772D01*
X66663350Y-44230319D01*
X66573045Y-44160032D01*
X66573044Y-44160031D01*
X66573041Y-44160029D01*
X66573039Y-44160028D01*
X66453093Y-44095117D01*
X66374387Y-44052523D01*
X66350671Y-44044381D01*
X66303255Y-44014781D01*
X63556819Y-41268345D01*
X63523334Y-41207022D01*
X63520500Y-41180664D01*
X63520500Y-30897185D01*
X63521280Y-30883300D01*
X63525238Y-30848173D01*
X63520780Y-30782066D01*
X63520500Y-30773725D01*
X63520500Y-30763852D01*
X63520500Y-30763845D01*
X63516838Y-30723172D01*
X63516630Y-30720516D01*
X63513499Y-30674080D01*
X63510097Y-30623593D01*
X63509028Y-30619351D01*
X63505768Y-30600169D01*
X63505377Y-30595812D01*
X63479527Y-30502150D01*
X63478831Y-30499514D01*
X63455096Y-30405317D01*
X63453289Y-30401339D01*
X63446653Y-30383034D01*
X63445492Y-30378828D01*
X63403351Y-30291320D01*
X63402172Y-30288800D01*
X63362008Y-30200377D01*
X63362007Y-30200374D01*
X63359517Y-30196780D01*
X63349725Y-30179964D01*
X63347830Y-30176029D01*
X63347827Y-30176024D01*
X63290740Y-30097450D01*
X63289162Y-30095228D01*
X63233820Y-30015346D01*
X63230729Y-30012255D01*
X63218093Y-29997461D01*
X63215521Y-29993921D01*
X63215518Y-29993918D01*
X63145299Y-29926781D01*
X63143310Y-29924836D01*
X61377630Y-28159156D01*
X61344145Y-28097833D01*
X61346747Y-28035164D01*
X61374015Y-27946126D01*
X61374016Y-27946123D01*
X61404298Y-27709654D01*
X61394180Y-27471468D01*
X61390982Y-27456631D01*
X61343954Y-27238419D01*
X61271131Y-27057194D01*
X61255064Y-27017210D01*
X61130069Y-26814205D01*
X60972564Y-26635245D01*
X60787080Y-26485477D01*
X60673130Y-26421820D01*
X60578955Y-26369210D01*
X60354170Y-26289788D01*
X60119209Y-26249500D01*
X60119200Y-26249500D01*
X58140503Y-26249500D01*
X58140484Y-26249500D01*
X57962463Y-26264652D01*
X57731751Y-26324724D01*
X57514519Y-26422919D01*
X57514511Y-26422924D01*
X57317006Y-26556413D01*
X57316997Y-26556421D01*
X57144881Y-26721379D01*
X57003123Y-26913050D01*
X57003120Y-26913054D01*
X56895796Y-27125920D01*
X56895793Y-27125926D01*
X56825983Y-27353878D01*
X56795702Y-27590346D01*
X56805819Y-27828528D01*
X56805819Y-27828532D01*
X56856045Y-28061580D01*
X56901260Y-28174099D01*
X56944936Y-28282790D01*
X57069931Y-28485795D01*
X57227436Y-28664755D01*
X57412920Y-28814523D01*
X57588121Y-28912397D01*
X57617365Y-28928734D01*
X57621046Y-28930790D01*
X57740880Y-28973130D01*
X57845829Y-29010211D01*
X58080790Y-29050499D01*
X58080798Y-29050499D01*
X58080800Y-29050500D01*
X58680664Y-29050500D01*
X58747703Y-29070185D01*
X58768345Y-29086819D01*
X60983181Y-31301655D01*
X61016666Y-31362978D01*
X61019500Y-31389336D01*
X61019500Y-32113644D01*
X60999815Y-32180683D01*
X60947011Y-32226438D01*
X60877853Y-32236382D01*
X60817602Y-32210122D01*
X60787080Y-32185477D01*
X60644041Y-32105570D01*
X60578955Y-32069210D01*
X60354170Y-31989788D01*
X60119209Y-31949500D01*
X60119200Y-31949500D01*
X58140503Y-31949500D01*
X58140484Y-31949500D01*
X57962463Y-31964652D01*
X57731751Y-32024724D01*
X57514519Y-32122919D01*
X57514511Y-32122924D01*
X57317006Y-32256413D01*
X57316997Y-32256421D01*
X57144881Y-32421379D01*
X57003123Y-32613050D01*
X57003120Y-32613054D01*
X56895796Y-32825920D01*
X56895793Y-32825926D01*
X56825983Y-33053878D01*
X56795702Y-33290346D01*
X52200500Y-33290346D01*
X52200500Y-25599908D01*
X52200726Y-25592421D01*
X52204357Y-25532394D01*
X52193512Y-25473217D01*
X52192388Y-25465826D01*
X52185140Y-25406127D01*
X52181548Y-25396656D01*
X52175522Y-25375042D01*
X52173695Y-25365068D01*
X52149006Y-25310212D01*
X52146142Y-25303297D01*
X52124819Y-25247071D01*
X52122723Y-25244035D01*
X52119063Y-25238733D01*
X52108036Y-25219182D01*
X52103879Y-25209946D01*
X52103878Y-25209943D01*
X52066785Y-25162597D01*
X52062355Y-25156577D01*
X52028183Y-25107071D01*
X51983153Y-25067178D01*
X51977715Y-25062058D01*
X50190413Y-23274756D01*
X50156928Y-23213433D01*
X50161912Y-23143741D01*
X50178393Y-23113347D01*
X50271879Y-22986947D01*
X50379207Y-22774074D01*
X50449016Y-22546123D01*
X50479298Y-22309654D01*
X50474230Y-22190346D01*
X56795702Y-22190346D01*
X56805819Y-22428528D01*
X56805819Y-22428532D01*
X56856045Y-22661580D01*
X56944656Y-22882093D01*
X56944936Y-22882790D01*
X57069931Y-23085795D01*
X57227436Y-23264755D01*
X57412920Y-23414523D01*
X57621046Y-23530790D01*
X57647665Y-23540195D01*
X57845829Y-23610211D01*
X58080790Y-23650499D01*
X58080798Y-23650499D01*
X58080800Y-23650500D01*
X58680664Y-23650500D01*
X58747703Y-23670185D01*
X58768345Y-23686819D01*
X64538181Y-29456655D01*
X64571666Y-29517978D01*
X64574500Y-29544336D01*
X64574500Y-37116735D01*
X64564056Y-37166545D01*
X64531432Y-37240919D01*
X64475981Y-37459892D01*
X64457329Y-37684994D01*
X64457329Y-37685005D01*
X64475981Y-37910107D01*
X64531433Y-38129082D01*
X64622168Y-38335938D01*
X64745715Y-38525042D01*
X64898698Y-38691224D01*
X64898702Y-38691228D01*
X65076955Y-38829968D01*
X65275613Y-38937477D01*
X65372686Y-38970802D01*
X65489253Y-39010820D01*
X65489255Y-39010820D01*
X65489257Y-39010821D01*
X65712059Y-39048000D01*
X65712060Y-39048000D01*
X65937940Y-39048000D01*
X65937941Y-39048000D01*
X66160743Y-39010821D01*
X66374387Y-38937477D01*
X66573045Y-38829968D01*
X66751298Y-38691228D01*
X66904285Y-38525041D01*
X67027831Y-38335939D01*
X67118567Y-38129082D01*
X67174018Y-37910111D01*
X67186707Y-37756977D01*
X67192671Y-37685005D01*
X67192671Y-37684994D01*
X67174018Y-37459892D01*
X67174018Y-37459889D01*
X67118567Y-37240918D01*
X67085943Y-37166544D01*
X67075500Y-37116735D01*
X67075500Y-32940346D01*
X67720702Y-32940346D01*
X67730819Y-33178528D01*
X67730819Y-33178532D01*
X67781045Y-33411580D01*
X67828041Y-33528532D01*
X67869936Y-33632790D01*
X67994931Y-33835795D01*
X68152436Y-34014755D01*
X68337920Y-34164523D01*
X68526273Y-34269744D01*
X68542161Y-34278620D01*
X68546046Y-34280790D01*
X68671951Y-34325275D01*
X68770829Y-34360211D01*
X69005790Y-34400499D01*
X69005798Y-34400499D01*
X69005800Y-34400500D01*
X69005801Y-34400500D01*
X70984496Y-34400500D01*
X70984497Y-34400500D01*
X70984498Y-34400499D01*
X70984515Y-34400499D01*
X71162536Y-34385347D01*
X71162539Y-34385346D01*
X71162541Y-34385346D01*
X71393249Y-34325275D01*
X71525973Y-34265279D01*
X71610480Y-34227080D01*
X71610481Y-34227078D01*
X71610486Y-34227077D01*
X71808003Y-34093579D01*
X71980118Y-33928621D01*
X72121879Y-33736947D01*
X72229207Y-33524074D01*
X72299016Y-33296123D01*
X72329298Y-33059654D01*
X72319180Y-32821468D01*
X72268954Y-32588419D01*
X72180064Y-32367210D01*
X72055069Y-32164205D01*
X71897564Y-31985245D01*
X71712080Y-31835477D01*
X71598130Y-31771820D01*
X71503955Y-31719210D01*
X71279170Y-31639788D01*
X71044209Y-31599500D01*
X71044200Y-31599500D01*
X69065503Y-31599500D01*
X69065484Y-31599500D01*
X68887463Y-31614652D01*
X68656751Y-31674724D01*
X68439519Y-31772919D01*
X68439511Y-31772924D01*
X68242006Y-31906413D01*
X68241997Y-31906421D01*
X68069881Y-32071379D01*
X67928123Y-32263050D01*
X67928120Y-32263054D01*
X67820796Y-32475920D01*
X67820793Y-32475926D01*
X67750983Y-32703878D01*
X67720702Y-32940346D01*
X67075500Y-32940346D01*
X67075500Y-29052175D01*
X67076280Y-29038290D01*
X67080237Y-29003172D01*
X67078324Y-28974803D01*
X67075781Y-28937075D01*
X67075500Y-28928734D01*
X67075500Y-28918850D01*
X67075500Y-28918845D01*
X67071843Y-28878215D01*
X67071626Y-28875452D01*
X67065096Y-28778588D01*
X67064027Y-28774348D01*
X67060768Y-28755169D01*
X67060377Y-28750812D01*
X67034531Y-28657164D01*
X67033839Y-28654544D01*
X67010096Y-28560316D01*
X67008290Y-28556340D01*
X67001654Y-28538039D01*
X67000493Y-28533830D01*
X66958340Y-28446299D01*
X66957189Y-28443839D01*
X66917007Y-28355374D01*
X66914517Y-28351780D01*
X66904725Y-28334964D01*
X66902830Y-28331029D01*
X66902827Y-28331024D01*
X66845740Y-28252450D01*
X66844162Y-28250228D01*
X66788820Y-28170346D01*
X66785729Y-28167255D01*
X66773093Y-28152461D01*
X66770521Y-28148921D01*
X66770518Y-28148918D01*
X66700299Y-28081781D01*
X66698310Y-28079836D01*
X65668474Y-27050000D01*
X67745582Y-27050000D01*
X68829118Y-27050000D01*
X68790444Y-27143369D01*
X68769823Y-27300000D01*
X68790444Y-27456631D01*
X68829118Y-27550000D01*
X67746734Y-27550000D01*
X67781525Y-27711433D01*
X67870383Y-27932562D01*
X67995333Y-28135494D01*
X68152780Y-28314389D01*
X68152786Y-28314396D01*
X68338194Y-28464102D01*
X68338204Y-28464109D01*
X68546248Y-28580331D01*
X68770947Y-28659722D01*
X68770961Y-28659726D01*
X69005832Y-28699999D01*
X69005843Y-28700000D01*
X69775000Y-28700000D01*
X69775000Y-27900000D01*
X70275000Y-27900000D01*
X70275000Y-28700000D01*
X70984472Y-28700000D01*
X70984491Y-28699999D01*
X71162450Y-28684852D01*
X71162453Y-28684851D01*
X71393078Y-28624802D01*
X71610241Y-28526639D01*
X71610244Y-28526637D01*
X71807688Y-28393187D01*
X71807690Y-28393185D01*
X71979736Y-28228293D01*
X72121450Y-28036683D01*
X72228742Y-27823884D01*
X72298524Y-27596020D01*
X72304418Y-27550000D01*
X71220882Y-27550000D01*
X71259556Y-27456631D01*
X71280177Y-27300000D01*
X71259556Y-27143369D01*
X71220882Y-27050000D01*
X72303266Y-27050000D01*
X72303265Y-27049999D01*
X72268474Y-26888566D01*
X72179616Y-26667437D01*
X72054666Y-26464505D01*
X71897219Y-26285610D01*
X71897213Y-26285603D01*
X71711805Y-26135897D01*
X71711795Y-26135890D01*
X71503751Y-26019668D01*
X71279052Y-25940277D01*
X71279038Y-25940273D01*
X71044167Y-25900000D01*
X70275000Y-25900000D01*
X70275000Y-26700000D01*
X69775000Y-26700000D01*
X69775000Y-25900000D01*
X69065508Y-25900000D01*
X68887549Y-25915147D01*
X68887546Y-25915148D01*
X68656921Y-25975197D01*
X68439758Y-26073360D01*
X68439755Y-26073362D01*
X68242311Y-26206812D01*
X68242309Y-26206814D01*
X68070263Y-26371706D01*
X67928549Y-26563316D01*
X67821257Y-26776115D01*
X67751475Y-27003979D01*
X67745582Y-27050000D01*
X65668474Y-27050000D01*
X62618474Y-24000000D01*
X63594540Y-24000000D01*
X63614326Y-24188256D01*
X63614327Y-24188259D01*
X63672818Y-24368277D01*
X63672821Y-24368284D01*
X63767467Y-24532216D01*
X63894129Y-24672888D01*
X64047265Y-24784148D01*
X64047270Y-24784151D01*
X64220192Y-24861142D01*
X64220197Y-24861144D01*
X64405354Y-24900500D01*
X64405355Y-24900500D01*
X64594644Y-24900500D01*
X64594646Y-24900500D01*
X64779803Y-24861144D01*
X64952730Y-24784151D01*
X65105871Y-24672888D01*
X65232533Y-24532216D01*
X65327179Y-24368284D01*
X65385674Y-24188256D01*
X65390864Y-24138869D01*
X65417447Y-24074258D01*
X65426494Y-24064161D01*
X66853837Y-22636819D01*
X66915160Y-22603334D01*
X66941518Y-22600500D01*
X67842356Y-22600500D01*
X67909395Y-22620185D01*
X67947945Y-22659485D01*
X67994931Y-22735795D01*
X68152436Y-22914755D01*
X68337920Y-23064523D01*
X68479726Y-23143741D01*
X68542161Y-23178620D01*
X68546046Y-23180790D01*
X68749528Y-23252685D01*
X68770829Y-23260211D01*
X69005790Y-23300499D01*
X69005798Y-23300499D01*
X69005800Y-23300500D01*
X69005801Y-23300500D01*
X70984496Y-23300500D01*
X70984497Y-23300500D01*
X70984498Y-23300499D01*
X70984515Y-23300499D01*
X71162536Y-23285347D01*
X71162539Y-23285346D01*
X71162541Y-23285346D01*
X71393249Y-23225275D01*
X71525973Y-23165279D01*
X71610480Y-23127080D01*
X71610481Y-23127078D01*
X71610486Y-23127077D01*
X71808003Y-22993579D01*
X71980118Y-22828621D01*
X72121879Y-22636947D01*
X72229207Y-22424074D01*
X72299016Y-22196123D01*
X72329298Y-21959654D01*
X72319180Y-21721468D01*
X72311080Y-21683886D01*
X72268954Y-21488419D01*
X72180064Y-21267210D01*
X72055069Y-21064205D01*
X71897564Y-20885245D01*
X71712080Y-20735477D01*
X71598130Y-20671820D01*
X71503955Y-20619210D01*
X71279170Y-20539788D01*
X71044209Y-20499500D01*
X71044200Y-20499500D01*
X69065503Y-20499500D01*
X69065484Y-20499500D01*
X68887463Y-20514652D01*
X68656751Y-20574724D01*
X68439519Y-20672919D01*
X68439511Y-20672924D01*
X68242006Y-20806413D01*
X68241997Y-20806421D01*
X68069881Y-20971379D01*
X67985496Y-21085477D01*
X67938340Y-21149234D01*
X67882652Y-21191429D01*
X67838646Y-21199500D01*
X66624909Y-21199500D01*
X66617422Y-21199274D01*
X66557396Y-21195643D01*
X66557389Y-21195643D01*
X66498243Y-21206481D01*
X66490843Y-21207608D01*
X66431125Y-21214860D01*
X66421642Y-21218456D01*
X66400038Y-21224478D01*
X66398535Y-21224754D01*
X66390065Y-21226306D01*
X66390063Y-21226307D01*
X66335234Y-21250983D01*
X66328319Y-21253848D01*
X66272068Y-21275182D01*
X66263724Y-21280942D01*
X66244183Y-21291964D01*
X66234941Y-21296123D01*
X66187603Y-21333210D01*
X66181573Y-21337647D01*
X66132072Y-21371816D01*
X66132064Y-21371823D01*
X66092176Y-21416846D01*
X66087044Y-21422298D01*
X64437026Y-23072316D01*
X64375703Y-23105801D01*
X64375126Y-23105925D01*
X64220197Y-23138855D01*
X64220192Y-23138857D01*
X64047270Y-23215848D01*
X64047265Y-23215851D01*
X63894129Y-23327111D01*
X63767466Y-23467785D01*
X63672821Y-23631715D01*
X63672818Y-23631722D01*
X63614327Y-23811740D01*
X63614326Y-23811744D01*
X63594540Y-24000000D01*
X62618474Y-24000000D01*
X61377630Y-22759156D01*
X61344145Y-22697833D01*
X61346747Y-22635164D01*
X61351335Y-22620185D01*
X61374016Y-22546123D01*
X61404298Y-22309654D01*
X61394180Y-22071468D01*
X61343954Y-21838419D01*
X61255064Y-21617210D01*
X61130069Y-21414205D01*
X60972564Y-21235245D01*
X60787080Y-21085477D01*
X60673130Y-21021820D01*
X60578955Y-20969210D01*
X60354170Y-20889788D01*
X60119209Y-20849500D01*
X60119200Y-20849500D01*
X58140503Y-20849500D01*
X58140484Y-20849500D01*
X57962463Y-20864652D01*
X57731751Y-20924724D01*
X57514519Y-21022919D01*
X57514511Y-21022924D01*
X57317006Y-21156413D01*
X57316997Y-21156421D01*
X57144881Y-21321379D01*
X57003123Y-21513050D01*
X57003120Y-21513054D01*
X56895796Y-21725920D01*
X56895793Y-21725926D01*
X56825983Y-21953878D01*
X56795702Y-22190346D01*
X50474230Y-22190346D01*
X50469180Y-22071468D01*
X50418954Y-21838419D01*
X50330064Y-21617210D01*
X50205069Y-21414205D01*
X50047564Y-21235245D01*
X49862080Y-21085477D01*
X49748130Y-21021820D01*
X49653955Y-20969210D01*
X49429170Y-20889788D01*
X49194209Y-20849500D01*
X49194200Y-20849500D01*
X47215503Y-20849500D01*
X47215484Y-20849500D01*
X47037463Y-20864652D01*
X46806751Y-20924724D01*
X46589519Y-21022919D01*
X46589511Y-21022924D01*
X46392006Y-21156413D01*
X46391997Y-21156421D01*
X46219881Y-21321379D01*
X46078123Y-21513050D01*
X46078120Y-21513054D01*
X45970796Y-21725920D01*
X45970793Y-21725926D01*
X45900983Y-21953878D01*
X45870702Y-22190346D01*
X45880819Y-22428528D01*
X45880819Y-22428532D01*
X45931045Y-22661580D01*
X46019656Y-22882093D01*
X46019936Y-22882790D01*
X46144931Y-23085795D01*
X46302436Y-23264755D01*
X46487920Y-23414523D01*
X46696046Y-23530790D01*
X46722665Y-23540195D01*
X46920829Y-23610211D01*
X47155790Y-23650499D01*
X47155798Y-23650499D01*
X47155800Y-23650500D01*
X48533481Y-23650500D01*
X48600520Y-23670185D01*
X48621162Y-23686819D01*
X50763181Y-25828838D01*
X50796666Y-25890161D01*
X50799500Y-25916519D01*
X50799500Y-37658480D01*
X50779815Y-37725519D01*
X50763181Y-37746161D01*
X49480845Y-39028496D01*
X49419522Y-39061981D01*
X49417114Y-39061808D01*
X49400083Y-39107473D01*
X49388496Y-39120845D01*
X49215714Y-39293627D01*
X49154391Y-39327112D01*
X49084699Y-39322128D01*
X49036804Y-39289930D01*
X49009439Y-39260204D01*
X48985971Y-39234711D01*
X48955049Y-39172059D01*
X48962909Y-39102633D01*
X49007055Y-39048477D01*
X49033869Y-39034547D01*
X49149826Y-38991298D01*
X49149826Y-38991297D01*
X49149831Y-38991296D01*
X49226506Y-38933896D01*
X49277007Y-38915060D01*
X49284332Y-38881388D01*
X49293890Y-38866515D01*
X49351296Y-38789831D01*
X49401591Y-38654983D01*
X49408000Y-38595373D01*
X49407999Y-36774628D01*
X49401591Y-36715017D01*
X49384517Y-36669240D01*
X49351297Y-36580171D01*
X49351293Y-36580164D01*
X49265047Y-36464955D01*
X49265044Y-36464952D01*
X49149835Y-36378706D01*
X49149828Y-36378702D01*
X49014982Y-36328408D01*
X49014983Y-36328408D01*
X48955383Y-36322001D01*
X48955381Y-36322000D01*
X48955373Y-36322000D01*
X48955364Y-36322000D01*
X47134629Y-36322000D01*
X47134623Y-36322001D01*
X47075016Y-36328408D01*
X46940171Y-36378702D01*
X46940168Y-36378704D01*
X46898674Y-36409767D01*
X46833209Y-36434184D01*
X46824363Y-36434500D01*
X46408044Y-36434500D01*
X46394161Y-36433720D01*
X46384427Y-36432623D01*
X46359043Y-36429763D01*
X46359036Y-36429762D01*
X46296220Y-36433998D01*
X46292944Y-36434219D01*
X46284604Y-36434500D01*
X46274705Y-36434500D01*
X46234105Y-36438153D01*
X46231337Y-36438371D01*
X46134458Y-36444903D01*
X46130217Y-36445972D01*
X46111044Y-36449230D01*
X46106681Y-36449622D01*
X46106679Y-36449623D01*
X46013016Y-36475471D01*
X46010329Y-36476180D01*
X45916181Y-36499904D01*
X45916180Y-36499904D01*
X45912187Y-36501718D01*
X45893927Y-36508338D01*
X45889718Y-36509500D01*
X45889690Y-36509510D01*
X45802191Y-36551646D01*
X45799674Y-36552824D01*
X45711243Y-36592991D01*
X45707643Y-36595486D01*
X45690839Y-36605271D01*
X45686899Y-36607168D01*
X45686897Y-36607169D01*
X45608328Y-36664251D01*
X45606063Y-36665858D01*
X45526213Y-36721180D01*
X45523107Y-36724286D01*
X45508333Y-36736903D01*
X45504796Y-36739473D01*
X45504789Y-36739478D01*
X45437672Y-36809677D01*
X45435727Y-36811665D01*
X44495344Y-37752048D01*
X44484980Y-37761311D01*
X44457337Y-37783357D01*
X44457334Y-37783360D01*
X44413736Y-37833260D01*
X44408048Y-37839344D01*
X44401064Y-37846328D01*
X44401051Y-37846343D01*
X44374928Y-37877632D01*
X44373125Y-37879743D01*
X44309234Y-37952872D01*
X44309230Y-37952878D01*
X44306981Y-37956642D01*
X44295746Y-37972476D01*
X44292932Y-37975847D01*
X44244978Y-38060358D01*
X44243604Y-38062717D01*
X44218076Y-38105446D01*
X44193781Y-38146110D01*
X44192247Y-38150200D01*
X44184008Y-38167813D01*
X44181850Y-38171615D01*
X44181847Y-38171622D01*
X44149762Y-38263313D01*
X44148815Y-38265923D01*
X44125545Y-38327930D01*
X44114692Y-38356847D01*
X44114689Y-38356856D01*
X44113909Y-38361156D01*
X44108952Y-38379937D01*
X44107503Y-38384077D01*
X44107502Y-38384083D01*
X44092304Y-38480033D01*
X44091838Y-38482774D01*
X44074500Y-38578315D01*
X44074500Y-38582695D01*
X44072973Y-38602097D01*
X44072289Y-38606408D01*
X44074469Y-38703507D01*
X44074500Y-38706289D01*
X44074500Y-45630664D01*
X44054815Y-45697703D01*
X44038185Y-45718340D01*
X43952533Y-45803993D01*
X43869687Y-45886839D01*
X43808364Y-45920323D01*
X43738672Y-45915339D01*
X43682739Y-45873467D01*
X43658322Y-45808003D01*
X43667620Y-45754176D01*
X43666903Y-45753930D01*
X43668433Y-45749473D01*
X43668457Y-45749331D01*
X43668567Y-45749082D01*
X43724018Y-45530111D01*
X43740487Y-45331357D01*
X43742671Y-45305005D01*
X43742671Y-45304994D01*
X43724025Y-45079978D01*
X43724018Y-45079889D01*
X43668567Y-44860918D01*
X43577831Y-44654061D01*
X43470750Y-44490161D01*
X43454284Y-44464957D01*
X43301301Y-44298775D01*
X43301298Y-44298772D01*
X43213350Y-44230319D01*
X43123045Y-44160032D01*
X43123044Y-44160031D01*
X43123041Y-44160029D01*
X43123039Y-44160028D01*
X43003093Y-44095117D01*
X42924387Y-44052523D01*
X42900671Y-44044381D01*
X42853255Y-44014781D01*
X41696819Y-42858345D01*
X41663334Y-42797022D01*
X41660500Y-42770664D01*
X41660500Y-39054466D01*
X41680185Y-38987427D01*
X41732989Y-38941672D01*
X41802147Y-38931728D01*
X41824763Y-38937185D01*
X41825612Y-38937476D01*
X41825613Y-38937477D01*
X41825619Y-38937479D01*
X42039253Y-39010820D01*
X42039255Y-39010820D01*
X42039257Y-39010821D01*
X42262059Y-39048000D01*
X42262060Y-39048000D01*
X42487940Y-39048000D01*
X42487941Y-39048000D01*
X42710743Y-39010821D01*
X42924387Y-38937477D01*
X43123045Y-38829968D01*
X43301298Y-38691228D01*
X43454285Y-38525041D01*
X43577831Y-38335939D01*
X43668567Y-38129082D01*
X43724018Y-37910111D01*
X43736707Y-37756977D01*
X43742671Y-37685005D01*
X43742671Y-37684994D01*
X43724018Y-37459892D01*
X43724018Y-37459889D01*
X43668567Y-37240918D01*
X43635943Y-37166544D01*
X43625500Y-37116735D01*
X43625500Y-33290346D01*
X45870702Y-33290346D01*
X45880819Y-33528528D01*
X45880819Y-33528532D01*
X45931045Y-33761580D01*
X45998168Y-33928620D01*
X46019936Y-33982790D01*
X46144931Y-34185795D01*
X46302436Y-34364755D01*
X46487920Y-34514523D01*
X46696046Y-34630790D01*
X46821951Y-34675275D01*
X46920829Y-34710211D01*
X47155790Y-34750499D01*
X47155798Y-34750499D01*
X47155800Y-34750500D01*
X47155801Y-34750500D01*
X49134496Y-34750500D01*
X49134497Y-34750500D01*
X49134498Y-34750499D01*
X49134515Y-34750499D01*
X49312536Y-34735347D01*
X49312539Y-34735346D01*
X49312541Y-34735346D01*
X49543249Y-34675275D01*
X49728453Y-34591557D01*
X49760480Y-34577080D01*
X49760481Y-34577078D01*
X49760486Y-34577077D01*
X49922478Y-34467590D01*
X49957993Y-34443586D01*
X49957994Y-34443584D01*
X49958003Y-34443579D01*
X50130118Y-34278621D01*
X50271879Y-34086947D01*
X50379207Y-33874074D01*
X50449016Y-33646123D01*
X50479298Y-33409654D01*
X50469180Y-33171468D01*
X50445171Y-33060068D01*
X50418954Y-32938419D01*
X50386477Y-32857597D01*
X50330064Y-32717210D01*
X50205069Y-32514205D01*
X50047564Y-32335245D01*
X49862080Y-32185477D01*
X49719041Y-32105570D01*
X49653955Y-32069210D01*
X49429170Y-31989788D01*
X49194209Y-31949500D01*
X49194200Y-31949500D01*
X47215503Y-31949500D01*
X47215484Y-31949500D01*
X47037463Y-31964652D01*
X46806751Y-32024724D01*
X46589519Y-32122919D01*
X46589511Y-32122924D01*
X46392006Y-32256413D01*
X46391997Y-32256421D01*
X46219881Y-32421379D01*
X46078123Y-32613050D01*
X46078120Y-32613054D01*
X45970796Y-32825920D01*
X45970793Y-32825926D01*
X45900983Y-33053878D01*
X45870702Y-33290346D01*
X43625500Y-33290346D01*
X43625500Y-27452185D01*
X43626280Y-27438300D01*
X43630238Y-27403173D01*
X43630024Y-27400000D01*
X45895582Y-27400000D01*
X46979118Y-27400000D01*
X46940444Y-27493369D01*
X46919823Y-27650000D01*
X46940444Y-27806631D01*
X46979118Y-27900000D01*
X45896734Y-27900000D01*
X45931525Y-28061433D01*
X46020383Y-28282562D01*
X46145333Y-28485494D01*
X46302780Y-28664389D01*
X46302786Y-28664396D01*
X46488194Y-28814102D01*
X46488204Y-28814109D01*
X46696248Y-28930331D01*
X46920947Y-29009722D01*
X46920961Y-29009726D01*
X47155832Y-29049999D01*
X47155843Y-29050000D01*
X47925000Y-29050000D01*
X47925000Y-28250000D01*
X48425000Y-28250000D01*
X48425000Y-29050000D01*
X49134472Y-29050000D01*
X49134491Y-29049999D01*
X49312450Y-29034852D01*
X49312453Y-29034851D01*
X49543078Y-28974802D01*
X49760241Y-28876639D01*
X49760244Y-28876637D01*
X49957688Y-28743187D01*
X49957690Y-28743185D01*
X50129736Y-28578293D01*
X50271450Y-28386683D01*
X50378742Y-28173884D01*
X50448524Y-27946020D01*
X50454418Y-27900000D01*
X49370882Y-27900000D01*
X49409556Y-27806631D01*
X49430177Y-27650000D01*
X49409556Y-27493369D01*
X49370882Y-27400000D01*
X50453266Y-27400000D01*
X50453265Y-27399999D01*
X50418474Y-27238566D01*
X50329616Y-27017437D01*
X50204666Y-26814505D01*
X50047219Y-26635610D01*
X50047213Y-26635603D01*
X49861805Y-26485897D01*
X49861795Y-26485890D01*
X49653751Y-26369668D01*
X49429052Y-26290277D01*
X49429038Y-26290273D01*
X49194167Y-26250000D01*
X48425000Y-26250000D01*
X48425000Y-27050000D01*
X47925000Y-27050000D01*
X47925000Y-26250000D01*
X47215508Y-26250000D01*
X47037549Y-26265147D01*
X47037546Y-26265148D01*
X46806921Y-26325197D01*
X46589758Y-26423360D01*
X46589755Y-26423362D01*
X46392311Y-26556812D01*
X46392309Y-26556814D01*
X46220263Y-26721706D01*
X46078549Y-26913316D01*
X45971257Y-27126115D01*
X45901475Y-27353979D01*
X45895582Y-27400000D01*
X43630024Y-27400000D01*
X43626921Y-27353979D01*
X43625781Y-27337061D01*
X43625500Y-27328720D01*
X43625500Y-27318852D01*
X43625500Y-27318845D01*
X43621844Y-27278224D01*
X43621630Y-27275498D01*
X43619195Y-27239382D01*
X43615097Y-27178588D01*
X43614028Y-27174345D01*
X43610768Y-27155155D01*
X43610377Y-27150815D01*
X43610377Y-27150812D01*
X43584507Y-27057079D01*
X43583856Y-27054610D01*
X43560096Y-26960317D01*
X43558289Y-26956339D01*
X43551653Y-26938034D01*
X43550493Y-26933831D01*
X43550493Y-26933830D01*
X43508298Y-26846211D01*
X43507200Y-26843864D01*
X43467007Y-26755375D01*
X43464518Y-26751782D01*
X43454728Y-26734970D01*
X43452829Y-26731027D01*
X43452827Y-26731024D01*
X43452825Y-26731020D01*
X43452824Y-26731019D01*
X43395740Y-26652451D01*
X43394128Y-26650180D01*
X43384034Y-26635610D01*
X43338820Y-26570346D01*
X43335729Y-26567255D01*
X43323093Y-26552461D01*
X43320521Y-26548921D01*
X43320518Y-26548918D01*
X43250299Y-26481781D01*
X43248310Y-26479836D01*
X39527630Y-22759156D01*
X39494145Y-22697833D01*
X39496747Y-22635164D01*
X39501335Y-22620185D01*
X39524016Y-22546123D01*
X39554298Y-22309654D01*
X39544180Y-22071468D01*
X39493954Y-21838419D01*
X39405064Y-21617210D01*
X39280069Y-21414205D01*
X39122564Y-21235245D01*
X38937080Y-21085477D01*
X38823130Y-21021820D01*
X38728955Y-20969210D01*
X38504170Y-20889788D01*
X38269209Y-20849500D01*
X38269200Y-20849500D01*
X36290503Y-20849500D01*
X36290484Y-20849500D01*
X36112463Y-20864652D01*
X35881751Y-20924724D01*
X35664519Y-21022919D01*
X35664511Y-21022924D01*
X35467006Y-21156413D01*
X35466997Y-21156421D01*
X35294881Y-21321379D01*
X35153123Y-21513050D01*
X35153120Y-21513054D01*
X35045796Y-21725920D01*
X35045793Y-21725926D01*
X34975983Y-21953878D01*
X34945702Y-22190346D01*
X34955819Y-22428528D01*
X34955819Y-22428532D01*
X35006045Y-22661580D01*
X35094656Y-22882093D01*
X35094936Y-22882790D01*
X35219931Y-23085795D01*
X35377436Y-23264755D01*
X35562920Y-23414523D01*
X35771046Y-23530790D01*
X35797665Y-23540195D01*
X35995829Y-23610211D01*
X36230790Y-23650499D01*
X36230798Y-23650499D01*
X36230800Y-23650500D01*
X36830664Y-23650500D01*
X36897703Y-23670185D01*
X36918345Y-23686819D01*
X41088181Y-27856655D01*
X41121666Y-27917978D01*
X41124500Y-27944336D01*
X41124500Y-29456664D01*
X41104815Y-29523703D01*
X41052011Y-29569458D01*
X40982853Y-29579402D01*
X40919297Y-29550377D01*
X40912819Y-29544345D01*
X39527630Y-28159156D01*
X39494145Y-28097833D01*
X39496747Y-28035164D01*
X39524015Y-27946126D01*
X39524016Y-27946123D01*
X39554298Y-27709654D01*
X39544180Y-27471468D01*
X39540982Y-27456631D01*
X39493954Y-27238419D01*
X39421131Y-27057194D01*
X39405064Y-27017210D01*
X39280069Y-26814205D01*
X39122564Y-26635245D01*
X38937080Y-26485477D01*
X38823130Y-26421820D01*
X38728955Y-26369210D01*
X38504170Y-26289788D01*
X38269209Y-26249500D01*
X38269200Y-26249500D01*
X36290503Y-26249500D01*
X36290484Y-26249500D01*
X36112463Y-26264652D01*
X35881751Y-26324724D01*
X35664519Y-26422919D01*
X35664511Y-26422924D01*
X35467006Y-26556413D01*
X35466997Y-26556421D01*
X35294881Y-26721379D01*
X35153123Y-26913050D01*
X35153120Y-26913054D01*
X35045796Y-27125920D01*
X35045793Y-27125926D01*
X34975983Y-27353878D01*
X34945702Y-27590346D01*
X34955819Y-27828528D01*
X34955819Y-27828532D01*
X35006045Y-28061580D01*
X35051260Y-28174099D01*
X35094936Y-28282790D01*
X35219931Y-28485795D01*
X35377436Y-28664755D01*
X35562920Y-28814523D01*
X35738121Y-28912397D01*
X35767365Y-28928734D01*
X35771046Y-28930790D01*
X35890880Y-28973130D01*
X35995829Y-29010211D01*
X36230790Y-29050499D01*
X36230798Y-29050499D01*
X36230800Y-29050500D01*
X36830664Y-29050500D01*
X36897703Y-29070185D01*
X36918345Y-29086819D01*
X39123181Y-31291655D01*
X39156666Y-31352978D01*
X39159500Y-31379336D01*
X39159500Y-32105570D01*
X39139815Y-32172609D01*
X39087011Y-32218364D01*
X39017853Y-32228308D01*
X38957602Y-32202047D01*
X38937081Y-32185478D01*
X38937080Y-32185477D01*
X38794041Y-32105570D01*
X38728955Y-32069210D01*
X38504170Y-31989788D01*
X38269209Y-31949500D01*
X38269200Y-31949500D01*
X36290503Y-31949500D01*
X36290484Y-31949500D01*
X36112463Y-31964652D01*
X35881751Y-32024724D01*
X35664519Y-32122919D01*
X35664511Y-32122924D01*
X35467006Y-32256413D01*
X35466997Y-32256421D01*
X35294881Y-32421379D01*
X35153123Y-32613050D01*
X35153120Y-32613054D01*
X35045796Y-32825920D01*
X35045793Y-32825926D01*
X34975983Y-33053878D01*
X34945702Y-33290346D01*
X34955819Y-33528528D01*
X34955819Y-33528532D01*
X35006045Y-33761580D01*
X35073168Y-33928620D01*
X35094936Y-33982790D01*
X35219931Y-34185795D01*
X35377436Y-34364755D01*
X35562920Y-34514523D01*
X35771046Y-34630790D01*
X35896951Y-34675275D01*
X35995829Y-34710211D01*
X36230790Y-34750499D01*
X36230798Y-34750499D01*
X36230800Y-34750500D01*
X36230801Y-34750500D01*
X38209496Y-34750500D01*
X38209497Y-34750500D01*
X38209498Y-34750499D01*
X38209515Y-34750499D01*
X38387536Y-34735347D01*
X38387539Y-34735346D01*
X38387541Y-34735346D01*
X38618249Y-34675275D01*
X38803453Y-34591557D01*
X38835480Y-34577080D01*
X38835481Y-34577078D01*
X38835486Y-34577077D01*
X38966064Y-34488821D01*
X39032628Y-34467590D01*
X39100106Y-34485717D01*
X39147071Y-34537447D01*
X39159500Y-34591557D01*
X39159500Y-43262814D01*
X39158720Y-43276698D01*
X39154762Y-43311822D01*
X39154761Y-43311830D01*
X39159219Y-43377931D01*
X39159500Y-43386273D01*
X39159500Y-43396156D01*
X39163153Y-43436749D01*
X39163371Y-43439521D01*
X39169903Y-43536407D01*
X39169903Y-43536412D01*
X39170972Y-43540652D01*
X39174230Y-43559824D01*
X39174623Y-43564190D01*
X39200465Y-43657824D01*
X39201158Y-43660447D01*
X39207532Y-43685742D01*
X39224903Y-43754681D01*
X39226715Y-43758670D01*
X39233340Y-43776944D01*
X39234504Y-43781162D01*
X39234507Y-43781170D01*
X39276657Y-43868698D01*
X39277830Y-43871205D01*
X39292408Y-43903300D01*
X39317993Y-43959626D01*
X39317994Y-43959629D01*
X39320483Y-43963221D01*
X39330269Y-43980026D01*
X39332166Y-43983965D01*
X39332171Y-43983973D01*
X39389311Y-44062620D01*
X39390835Y-44064768D01*
X39423377Y-44111740D01*
X39446181Y-44144656D01*
X39449273Y-44147748D01*
X39461907Y-44162539D01*
X39464478Y-44166078D01*
X39464482Y-44166082D01*
X39534699Y-44233217D01*
X39536688Y-44235162D01*
X41089017Y-45787491D01*
X41114892Y-45825362D01*
X41161093Y-45930690D01*
X41169996Y-45999990D01*
X41140019Y-46063102D01*
X41080679Y-46099989D01*
X41047537Y-46104500D01*
X38422176Y-46104500D01*
X38408293Y-46103720D01*
X38398559Y-46102623D01*
X38373175Y-46099763D01*
X38373168Y-46099762D01*
X38310352Y-46103998D01*
X38307076Y-46104219D01*
X38298736Y-46104500D01*
X38288837Y-46104500D01*
X38248237Y-46108153D01*
X38245469Y-46108371D01*
X38148590Y-46114903D01*
X38144349Y-46115972D01*
X38125176Y-46119230D01*
X38120813Y-46119622D01*
X38120811Y-46119623D01*
X38027148Y-46145471D01*
X38024461Y-46146180D01*
X37930313Y-46169904D01*
X37930312Y-46169904D01*
X37926319Y-46171718D01*
X37908059Y-46178338D01*
X37903850Y-46179500D01*
X37903822Y-46179510D01*
X37816323Y-46221646D01*
X37813806Y-46222824D01*
X37725375Y-46262991D01*
X37721775Y-46265486D01*
X37704971Y-46275271D01*
X37701031Y-46277168D01*
X37701029Y-46277169D01*
X37622460Y-46334251D01*
X37620195Y-46335858D01*
X37540345Y-46391180D01*
X37537239Y-46394286D01*
X37522465Y-46406903D01*
X37518928Y-46409473D01*
X37518921Y-46409478D01*
X37451804Y-46479677D01*
X37449859Y-46481665D01*
X36865497Y-47066027D01*
X36804174Y-47099512D01*
X36734482Y-47094528D01*
X36690135Y-47066027D01*
X26479450Y-36855342D01*
X26470183Y-36844973D01*
X26448140Y-36817332D01*
X26398237Y-36773732D01*
X26392141Y-36768033D01*
X26385166Y-36761058D01*
X26385155Y-36761048D01*
X26353889Y-36734945D01*
X26351773Y-36733138D01*
X26278637Y-36669240D01*
X26278631Y-36669236D01*
X26278630Y-36669235D01*
X26274875Y-36666991D01*
X26259007Y-36655732D01*
X26255653Y-36652932D01*
X26255652Y-36652931D01*
X26255647Y-36652927D01*
X26171182Y-36605001D01*
X26168778Y-36603601D01*
X26085397Y-36553784D01*
X26081303Y-36552248D01*
X26063678Y-36544002D01*
X26059879Y-36541846D01*
X25968203Y-36509767D01*
X25965587Y-36508819D01*
X25874663Y-36474694D01*
X25874656Y-36474692D01*
X25870356Y-36473912D01*
X25851553Y-36468949D01*
X25847416Y-36467501D01*
X25841004Y-36466486D01*
X25786094Y-36443280D01*
X25699831Y-36378704D01*
X25699828Y-36378702D01*
X25564982Y-36328408D01*
X25564983Y-36328408D01*
X25505383Y-36322001D01*
X25505381Y-36322000D01*
X25505373Y-36322000D01*
X25505364Y-36322000D01*
X23684629Y-36322000D01*
X23684623Y-36322001D01*
X23625016Y-36328408D01*
X23490171Y-36378702D01*
X23490164Y-36378706D01*
X23374955Y-36464952D01*
X23374952Y-36464955D01*
X23288706Y-36580164D01*
X23288702Y-36580171D01*
X23238408Y-36715017D01*
X23232096Y-36773732D01*
X23232001Y-36774623D01*
X23232000Y-36774635D01*
X23232000Y-37571981D01*
X23212315Y-37639020D01*
X23159511Y-37684775D01*
X23090353Y-37694719D01*
X23026797Y-37665694D01*
X23020319Y-37659662D01*
X22966819Y-37606162D01*
X22933334Y-37544839D01*
X22930500Y-37518481D01*
X22930500Y-33611518D01*
X22950185Y-33544479D01*
X22966819Y-33523837D01*
X23492351Y-32998305D01*
X24045648Y-32445007D01*
X24106969Y-32411524D01*
X24176661Y-32416508D01*
X24232594Y-32458380D01*
X24257011Y-32523844D01*
X24242159Y-32592117D01*
X24233027Y-32606419D01*
X24228123Y-32613049D01*
X24228120Y-32613054D01*
X24120796Y-32825920D01*
X24120793Y-32825926D01*
X24050983Y-33053878D01*
X24020702Y-33290346D01*
X24030819Y-33528528D01*
X24030819Y-33528532D01*
X24081045Y-33761580D01*
X24148168Y-33928620D01*
X24169936Y-33982790D01*
X24294931Y-34185795D01*
X24452436Y-34364755D01*
X24637920Y-34514523D01*
X24846046Y-34630790D01*
X24971951Y-34675275D01*
X25070829Y-34710211D01*
X25305790Y-34750499D01*
X25305798Y-34750499D01*
X25305800Y-34750500D01*
X25305801Y-34750500D01*
X27284496Y-34750500D01*
X27284497Y-34750500D01*
X27284498Y-34750499D01*
X27284515Y-34750499D01*
X27462536Y-34735347D01*
X27462539Y-34735346D01*
X27462541Y-34735346D01*
X27693249Y-34675275D01*
X27878453Y-34591557D01*
X27910480Y-34577080D01*
X27910481Y-34577078D01*
X27910486Y-34577077D01*
X28072478Y-34467590D01*
X28107993Y-34443586D01*
X28107994Y-34443584D01*
X28108003Y-34443579D01*
X28280118Y-34278621D01*
X28421879Y-34086947D01*
X28529207Y-33874074D01*
X28599016Y-33646123D01*
X28629298Y-33409654D01*
X28619180Y-33171468D01*
X28595171Y-33060068D01*
X28568954Y-32938419D01*
X28536477Y-32857597D01*
X28480064Y-32717210D01*
X28355069Y-32514205D01*
X28197564Y-32335245D01*
X28012080Y-32185477D01*
X27869041Y-32105570D01*
X27803955Y-32069210D01*
X27579170Y-31989788D01*
X27344209Y-31949500D01*
X27344200Y-31949500D01*
X25365503Y-31949500D01*
X25365484Y-31949500D01*
X25187463Y-31964652D01*
X24956751Y-32024724D01*
X24739519Y-32122919D01*
X24739513Y-32122922D01*
X24664705Y-32173484D01*
X24598139Y-32194715D01*
X24530662Y-32176587D01*
X24483697Y-32124856D01*
X24472156Y-32055947D01*
X24499702Y-31991736D01*
X24507577Y-31983078D01*
X25253837Y-31236819D01*
X25315160Y-31203334D01*
X25341518Y-31200500D01*
X27475079Y-31200500D01*
X27482566Y-31200725D01*
X27542606Y-31204358D01*
X27601782Y-31193513D01*
X27609185Y-31192387D01*
X27612921Y-31191933D01*
X27668872Y-31185140D01*
X27678335Y-31181550D01*
X27699961Y-31175522D01*
X27700893Y-31175351D01*
X27709932Y-31173695D01*
X27764808Y-31148996D01*
X27771678Y-31146150D01*
X27827930Y-31124818D01*
X27836266Y-31119062D01*
X27855821Y-31108034D01*
X27865057Y-31103878D01*
X27912413Y-31066775D01*
X27918404Y-31062366D01*
X27967929Y-31028183D01*
X28007822Y-30983151D01*
X28012924Y-30977731D01*
X29977731Y-29012924D01*
X29983151Y-29007822D01*
X30028183Y-28967929D01*
X30062366Y-28918404D01*
X30066775Y-28912413D01*
X30103878Y-28865057D01*
X30108037Y-28855815D01*
X30119062Y-28836268D01*
X30124818Y-28827930D01*
X30129903Y-28814523D01*
X30146146Y-28771690D01*
X30149002Y-28764791D01*
X30173694Y-28709932D01*
X30175520Y-28699965D01*
X30181548Y-28678340D01*
X30185140Y-28668872D01*
X30192389Y-28609169D01*
X30193516Y-28601762D01*
X30204357Y-28542606D01*
X30200726Y-28482577D01*
X30200500Y-28475090D01*
X30200500Y-26284920D01*
X30200726Y-26277432D01*
X30201499Y-26264652D01*
X30204358Y-26217394D01*
X30193514Y-26158219D01*
X30192387Y-26150814D01*
X30190575Y-26135890D01*
X30185140Y-26091128D01*
X30181548Y-26081656D01*
X30175522Y-26060042D01*
X30173695Y-26050068D01*
X30149006Y-25995212D01*
X30146142Y-25988297D01*
X30124819Y-25932071D01*
X30122723Y-25929035D01*
X30119063Y-25923733D01*
X30108036Y-25904182D01*
X30103879Y-25894946D01*
X30103878Y-25894943D01*
X30066785Y-25847597D01*
X30062355Y-25841577D01*
X30028183Y-25792071D01*
X29983153Y-25752178D01*
X29977715Y-25747058D01*
X27895767Y-23665110D01*
X27862282Y-23603787D01*
X27867266Y-23534095D01*
X27909138Y-23478162D01*
X27914012Y-23474694D01*
X28107988Y-23343590D01*
X28107992Y-23343585D01*
X28108003Y-23343579D01*
X28280118Y-23178621D01*
X28421879Y-22986947D01*
X28529207Y-22774074D01*
X28599016Y-22546123D01*
X28629298Y-22309654D01*
X28619180Y-22071468D01*
X28568954Y-21838419D01*
X28480064Y-21617210D01*
X28355069Y-21414205D01*
X28197564Y-21235245D01*
X28012080Y-21085477D01*
X27898130Y-21021820D01*
X27803955Y-20969210D01*
X27579170Y-20889788D01*
X27344209Y-20849500D01*
X27344200Y-20849500D01*
X25365503Y-20849500D01*
X25365484Y-20849500D01*
X25187463Y-20864652D01*
X24956751Y-20924724D01*
X24739519Y-21022919D01*
X24739511Y-21022924D01*
X24542006Y-21156413D01*
X24541997Y-21156421D01*
X24369881Y-21321379D01*
X24228123Y-21513050D01*
X24228120Y-21513054D01*
X24120796Y-21725920D01*
X24120793Y-21725926D01*
X24050983Y-21953878D01*
X24020702Y-22190346D01*
X24030819Y-22428528D01*
X24030819Y-22428532D01*
X24081045Y-22661580D01*
X24169656Y-22882093D01*
X24169936Y-22882790D01*
X24294931Y-23085795D01*
X24452436Y-23264755D01*
X24637920Y-23414523D01*
X24846046Y-23530790D01*
X24872665Y-23540195D01*
X25070829Y-23610211D01*
X25305790Y-23650499D01*
X25305798Y-23650499D01*
X25305800Y-23650500D01*
X25848481Y-23650500D01*
X25915520Y-23670185D01*
X25936162Y-23686819D01*
X28763181Y-26513838D01*
X28796666Y-26575161D01*
X28799500Y-26601519D01*
X28799500Y-27172343D01*
X28779815Y-27239382D01*
X28727011Y-27285137D01*
X28657853Y-27295081D01*
X28594297Y-27266056D01*
X28560442Y-27218578D01*
X28479616Y-27017437D01*
X28354666Y-26814505D01*
X28197219Y-26635610D01*
X28197213Y-26635603D01*
X28011805Y-26485897D01*
X28011795Y-26485890D01*
X27803751Y-26369668D01*
X27579052Y-26290277D01*
X27579038Y-26290273D01*
X27344167Y-26250000D01*
X26575000Y-26250000D01*
X26575000Y-27050000D01*
X26075000Y-27050000D01*
X26075000Y-26250000D01*
X25365508Y-26250000D01*
X25187549Y-26265147D01*
X25187546Y-26265148D01*
X24956921Y-26325197D01*
X24739758Y-26423360D01*
X24739755Y-26423362D01*
X24542311Y-26556812D01*
X24542309Y-26556814D01*
X24370263Y-26721706D01*
X24228549Y-26913316D01*
X24121257Y-27126115D01*
X24051475Y-27353979D01*
X24045582Y-27400000D01*
X25129118Y-27400000D01*
X25090444Y-27493369D01*
X25069823Y-27650000D01*
X25090444Y-27806631D01*
X25129118Y-27900000D01*
X24046734Y-27900000D01*
X24081525Y-28061433D01*
X24170383Y-28282562D01*
X24295333Y-28485494D01*
X24452780Y-28664389D01*
X24452786Y-28664396D01*
X24638194Y-28814102D01*
X24638204Y-28814109D01*
X24846248Y-28930331D01*
X25070947Y-29009722D01*
X25070961Y-29009726D01*
X25305832Y-29049999D01*
X25305843Y-29050000D01*
X26075000Y-29050000D01*
X26075000Y-28250000D01*
X26575000Y-28250000D01*
X26575000Y-29050000D01*
X27284472Y-29050000D01*
X27284491Y-29049999D01*
X27462450Y-29034852D01*
X27462453Y-29034851D01*
X27693075Y-28974803D01*
X27696776Y-28973130D01*
X27765971Y-28963447D01*
X27829417Y-28992712D01*
X27866970Y-29051632D01*
X27866707Y-29121501D01*
X27835543Y-29173799D01*
X27246162Y-29763181D01*
X27184839Y-29796666D01*
X27158481Y-29799500D01*
X25024921Y-29799500D01*
X25017433Y-29799274D01*
X24957396Y-29795642D01*
X24957388Y-29795642D01*
X24898227Y-29806483D01*
X24890827Y-29807610D01*
X24831128Y-29814860D01*
X24831121Y-29814861D01*
X24821647Y-29818454D01*
X24800049Y-29824475D01*
X24790069Y-29826304D01*
X24735227Y-29850987D01*
X24728309Y-29853852D01*
X24672072Y-29875181D01*
X24672063Y-29875185D01*
X24663721Y-29880943D01*
X24644189Y-29891960D01*
X24634946Y-29896120D01*
X24587609Y-29933206D01*
X24581579Y-29937643D01*
X24532072Y-29971816D01*
X24532064Y-29971823D01*
X24492176Y-30016846D01*
X24487044Y-30022298D01*
X21752290Y-32757051D01*
X21746838Y-32762183D01*
X21701819Y-32802068D01*
X21667649Y-32851569D01*
X21663213Y-32857597D01*
X21626124Y-32904938D01*
X21626119Y-32904948D01*
X21621960Y-32914188D01*
X21610942Y-32933723D01*
X21605187Y-32942061D01*
X21605179Y-32942076D01*
X21583853Y-32998305D01*
X21580989Y-33005220D01*
X21556305Y-33060068D01*
X21554477Y-33070042D01*
X21548453Y-33091653D01*
X21544860Y-33101127D01*
X21544860Y-33101128D01*
X21537610Y-33160827D01*
X21536483Y-33168227D01*
X21525642Y-33227389D01*
X21525642Y-33227395D01*
X21529274Y-33287432D01*
X21529500Y-33294920D01*
X21529500Y-37835078D01*
X21529274Y-37842566D01*
X21525642Y-37902603D01*
X21525642Y-37902605D01*
X20828927Y-37902605D01*
X20828927Y-24002870D01*
X20829059Y-23997144D01*
X20829086Y-23996564D01*
X20836894Y-23827664D01*
X20846598Y-23630172D01*
X20847633Y-23619177D01*
X20873026Y-23437137D01*
X20873059Y-23436914D01*
X20900387Y-23252685D01*
X20902324Y-23242565D01*
X20944907Y-23061513D01*
X20945234Y-23060166D01*
X20989839Y-22882093D01*
X20992526Y-22872899D01*
X21051923Y-22695683D01*
X21052684Y-22693487D01*
X21114153Y-22521692D01*
X21117438Y-22513463D01*
X21193104Y-22342096D01*
X21194385Y-22339292D01*
X21272183Y-22174802D01*
X21275905Y-22167565D01*
X21367240Y-22003588D01*
X21369097Y-22000373D01*
X21462497Y-21844545D01*
X21466498Y-21838308D01*
X21572639Y-21683361D01*
X21575310Y-21679615D01*
X21683350Y-21533940D01*
X21687496Y-21528659D01*
X21807571Y-21384057D01*
X21811015Y-21380088D01*
X21932789Y-21245731D01*
X21936906Y-21241407D01*
X22069835Y-21108478D01*
X22074159Y-21104361D01*
X22208516Y-20982587D01*
X22212485Y-20979143D01*
X22357087Y-20859068D01*
X22362368Y-20854922D01*
X22508048Y-20746878D01*
X22511756Y-20744234D01*
X22666729Y-20638074D01*
X22673006Y-20634049D01*
X22828730Y-20540711D01*
X22832047Y-20538794D01*
X22995988Y-20447479D01*
X23003257Y-20443741D01*
X23167686Y-20365972D01*
X23170488Y-20364691D01*
X23341897Y-20289006D01*
X23350124Y-20285722D01*
X23521876Y-20224268D01*
X23524147Y-20223481D01*
X23701320Y-20164099D01*
X23710528Y-20161407D01*
X23888434Y-20116844D01*
X23890033Y-20116456D01*
X24070990Y-20073896D01*
X24081137Y-20071953D01*
X24265112Y-20044663D01*
X24265683Y-20044580D01*
X24447605Y-20019203D01*
X24458597Y-20018168D01*
X24656416Y-20008449D01*
X24822115Y-20000788D01*
X24825508Y-20000632D01*
X24831233Y-20000500D01*
X74168703Y-20000500D01*
X74174427Y-20000631D01*
G37*
%TD.AperFunction*%
%TD*%
M02*
