M48
; DRILL file {KiCad 9.0.0} date 2025-02-28T16:23:17+0100
; FORMAT={-:-/ absolute / metric / decimal}
; #@! TF.CreationDate,2025-02-28T16:23:17+01:00
; #@! TF.GenerationSoftware,Kicad,Pcbnew,9.0.0
; #@! TF.FileFunction,MixedPlating,1,2
FMAT,2
METRIC
; #@! TA.AperFunction,Plated,PTH,ComponentDrill
T1C0.750
; #@! TA.AperFunction,Plated,PTH,ViaDrill
T2C0.800
; #@! TA.AperFunction,Plated,PTH,ComponentDrill
T3C0.800
; #@! TA.AperFunction,Plated,PTH,ComponentDrill
T4C1.000
; #@! TA.AperFunction,Plated,PTH,ComponentDrill
T5C1.200
%
G90
G05
T1
X143.23Y-54.86
X144.5Y-54.86
X145.77Y-54.86
X157.23Y-54.36
X158.5Y-54.36
X159.77Y-54.36
T2
X132.2Y-59.05
X141.95Y-52.05
X144.25Y-65.9
X150.85Y-52.3
X152.0Y-62.0
X157.1Y-59.05
X158.0Y-62.0
X160.175Y-65.825
T3
X139.45Y-52.6
X139.45Y-55.14
X153.45Y-53.15
X153.45Y-55.69
T4
X102.7Y-49.0
X103.0Y-61.46
X103.0Y-64.0
X103.5Y-86.96
X103.5Y-89.5
X103.55Y-74.96
X103.55Y-77.5
X104.95Y-96.7
X105.24Y-49.0
X107.49Y-96.7
X107.78Y-49.0
X110.32Y-49.0
X116.9Y-96.7
X118.796Y-49.2
X119.44Y-96.7
X121.336Y-49.2
X123.876Y-49.2
X126.416Y-49.2
X127.43Y-81.445
X127.53Y-60.695
X127.94Y-97.46
X128.956Y-49.2
X130.48Y-97.46
X131.496Y-49.2
X133.02Y-97.46
X134.036Y-49.2
X135.56Y-97.46
X136.576Y-49.2
X138.1Y-97.46
X139.116Y-49.2
X140.64Y-97.46
X141.656Y-49.2
X143.18Y-97.46
X145.72Y-49.2
X145.72Y-97.46
X148.26Y-49.2
X150.8Y-49.2
X150.8Y-97.46
X153.34Y-49.2
X153.34Y-97.46
X154.0Y-78.0
X154.0Y-80.54
X154.0Y-83.08
X155.88Y-49.2
X155.88Y-97.46
X158.42Y-49.2
X158.42Y-97.46
X160.5Y-77.46
X160.5Y-80.0
X160.5Y-82.54
X160.96Y-49.2
X160.96Y-97.46
X163.5Y-49.2
X163.5Y-97.46
X165.5Y-63.5
X165.5Y-66.04
T5
X109.65Y-81.445
X109.65Y-89.065
X109.75Y-60.695
X109.75Y-68.315
X127.43Y-83.985
X127.43Y-86.525
X127.43Y-89.065
X127.53Y-63.235
X127.53Y-65.775
X127.53Y-68.315
T4
G00X132.15Y-83.2
M15
G01X132.15Y-82.4
M16
G05
G00X132.225Y-62.1
M15
G01X132.225Y-61.3
M16
G05
G00X132.25Y-87.4
M15
G01X132.25Y-86.6
M16
G05
G00X132.325Y-66.3
M15
G01X132.325Y-65.5
M16
G05
G00X131.6Y-72.3
M15
G01X135.4Y-72.3
M16
G05
G00X136.85Y-83.1
M15
G01X136.85Y-82.3
M16
G05
G00X136.925Y-62.0
M15
G01X136.925Y-61.2
M16
G05
G00X136.95Y-87.3
M15
G01X136.95Y-86.5
M16
G05
G00X137.025Y-66.2
M15
G01X137.025Y-65.4
M16
G05
G00X141.65Y-83.0
M15
G01X141.65Y-82.2
M16
G05
G00X141.65Y-87.3
M15
G01X141.65Y-86.5
M16
G05
G00X141.725Y-61.9
M15
G01X141.725Y-61.1
M16
G05
G00X141.725Y-66.2
M15
G01X141.725Y-65.4
M16
G05
G00X141.0Y-76.5
M15
G01X144.0Y-76.5
M16
G05
M30
